<svg xmlns="http://www.w3.org/2000/svg" width="120" height="80" viewBox="0 0 120 80" fill="none"><path d="M4.29493 74.1137C3.10834 74.1137 2.08942 73.6784 1.25107 72.7944C0.412726 71.9103 0 70.8494 0 69.5981V59.275C0 58.0237 0.425623 56.9492 1.26397 56.0651C2.10232 55.1811 3.12124 54.7458 4.29493 54.7458C5.48151 54.7458 6.50043 55.1947 7.32588 56.0787C8.15133 56.9628 8.57696 58.0373 8.57696 59.275V61.4239H5.76526V59.207C5.76526 58.7581 5.61049 58.3637 5.30095 58.0509C4.9914 57.7245 4.63027 57.5613 4.20464 57.5613C3.77902 57.5613 3.40499 57.7245 3.10834 58.0509C2.81169 58.3773 2.65692 58.7581 2.65692 59.207V69.5573C2.65692 70.0062 2.81169 70.4006 3.10834 70.7134C3.40499 71.0262 3.77902 71.1895 4.20464 71.1895C4.63027 71.1895 5.0043 71.0262 5.30095 70.7134C5.61049 70.4006 5.76526 70.0062 5.76526 69.5573V66.9459H8.56406V69.5845C8.56406 70.8358 8.13843 71.9103 7.30009 72.7808C6.47463 73.6648 5.46862 74.1137 4.29493 74.1137Z" fill="#231F20"></path><path d="M13.5942 69.5165L12.9364 73.8688H10.1118L13.1557 54.9634H16.8702L19.8754 73.8688H17.025L16.393 69.5165H13.5942ZM15.0129 59.2885L14.0069 66.7419H16.0061L15.0129 59.2885Z" fill="#231F20"></path><path d="M22.5066 57.8198H19.6304V54.95H28.0784V57.8198H25.2151V73.8689H22.5066V57.8198Z" fill="#231F20"></path><path d="M42.343 64.9602C41.9174 66.9731 41.337 68.6733 40.6019 70.0606C41.2983 70.7406 41.9045 71.067 42.4204 71.067V73.7056C41.3757 73.7056 40.2923 73.2024 39.1702 72.1959C38.0997 73.3792 36.9518 73.9777 35.7394 73.9777C34.3336 73.9777 33.2502 73.3656 32.5021 72.1415C32.0378 71.3663 31.8057 70.4822 31.8057 69.4893C31.8057 68.5101 32.0249 67.5036 32.4763 66.4427C32.5537 66.2659 32.8117 65.8035 33.2373 65.0554C33.4695 64.6474 33.7145 64.2665 33.9467 63.8993L33.3921 62.5528C33.1212 61.9272 32.9407 61.4919 32.8504 61.2199C32.6569 60.7031 32.5279 60.2406 32.4505 59.8326C32.3603 59.3838 32.3216 58.9349 32.3216 58.4997C32.3216 57.6564 32.5021 56.8812 32.8504 56.1739C33.2115 55.4259 33.7403 54.8682 34.4239 54.501C34.9656 54.1882 35.5718 54.0386 36.2296 54.0386C36.9647 54.0386 37.6354 54.229 38.2416 54.6234C38.8478 55.0042 39.325 55.5483 39.6474 56.2283C39.9054 56.786 40.0344 57.3844 40.0344 58.0237C40.0344 59.1662 39.6603 60.2406 38.8994 61.2743L38.319 62.0768C37.7902 62.8112 37.2872 63.5049 36.8486 64.1441C37.4548 65.4634 38.1255 66.7011 38.8865 67.8436C39.3379 66.7691 39.6732 65.6266 39.9183 64.4025L42.343 64.9602ZM35.7394 71.3663C36.2812 71.3663 36.8615 70.999 37.4677 70.2782C36.7326 69.2853 35.9974 68.0612 35.2493 66.6195C35.0817 66.9187 34.9011 67.2316 34.7334 67.558C34.4497 68.2516 34.3078 68.8909 34.3078 69.4893C34.3078 70.0062 34.411 70.4414 34.6431 70.7678C34.8882 71.1623 35.2622 71.3663 35.7394 71.3663ZM34.8108 58.4861C34.8108 59.0437 35.0817 60.023 35.6363 61.4103C35.7523 61.2607 35.8684 61.1111 35.9845 60.9615L36.3456 60.4583L36.9131 59.6558C37.3388 59.0709 37.5451 58.5269 37.5451 58.0237C37.5451 57.6564 37.4935 57.3708 37.4032 57.1668C37.1582 56.5276 36.7713 56.2147 36.2296 56.2147C35.7652 56.2147 35.3912 56.4868 35.1333 57.0172C34.914 57.4524 34.8108 57.9285 34.8108 58.4861Z" fill="#231F20"></path><path d="M54.6345 69.3397C54.6345 70.591 54.2218 71.6519 53.3835 72.536C52.558 73.42 51.552 73.8689 50.3783 73.8689H46.1221V54.9363H50.3783C51.5649 54.9363 52.5709 55.3851 53.3964 56.2692C54.2218 57.1532 54.6345 58.2141 54.6345 59.4518V69.3397ZM48.8435 71.0399H50.4686C50.8942 71.0399 51.2553 70.8767 51.552 70.5502C51.8486 70.2238 51.9905 69.843 51.9905 69.3941V59.4926C51.9905 59.0438 51.8357 58.6494 51.5391 58.3365C51.2424 58.0101 50.8813 57.8469 50.4557 57.8469H48.8306V71.0399H48.8435Z" fill="#231F20"></path><path d="M61.2513 54.7188C62.4378 54.7188 63.4568 55.1676 64.2951 56.0516C65.1335 56.9357 65.5462 58.0102 65.5462 59.2479V69.571C65.5462 70.8223 65.1206 71.8968 64.2822 72.7809C63.4439 73.6649 62.425 74.1002 61.2513 74.1002C60.0647 74.1002 59.0458 73.6513 58.2203 72.7673C57.3949 71.8832 56.9692 70.8087 56.9692 69.571V59.2479C56.9692 57.9966 57.3949 56.9221 58.2332 56.038C59.0716 55.154 60.0776 54.7188 61.2513 54.7188ZM62.7216 59.1799C62.7216 58.731 62.5668 58.3366 62.2702 58.0238C61.9735 57.711 61.5995 57.5478 61.1739 57.5478C60.7483 57.5478 60.3742 57.711 60.0776 58.0238C59.768 58.3366 59.6133 58.731 59.6133 59.1799V69.5302C59.6133 69.9791 59.768 70.3735 60.0776 70.6863C60.3871 70.9991 60.7483 71.1623 61.1739 71.1623C61.5995 71.1623 61.9735 70.9991 62.2702 70.6863C62.5668 70.3735 62.7216 69.9791 62.7216 69.5302V59.1799Z" fill="#231F20"></path><path d="M72.1753 74.1137C70.9887 74.1137 69.9698 73.6648 69.1314 72.7808C68.2931 71.8967 67.8804 70.8358 67.8804 69.5981V59.275C67.8804 58.0237 68.306 56.9492 69.1443 56.0651C69.9827 55.1811 71.0016 54.7458 72.1753 54.7458C73.3619 54.7458 74.3808 55.1947 75.2062 56.0787C76.0317 56.9628 76.4573 58.0373 76.4573 59.275V61.4239H73.6456V59.207C73.6456 58.7581 73.4909 58.3637 73.1813 58.0509C72.8718 57.7245 72.5106 57.5613 72.085 57.5613C71.6594 57.5613 71.2854 57.7245 70.9887 58.0509C70.6921 58.3773 70.5373 58.7581 70.5373 59.207V69.5573C70.5373 70.0062 70.6921 70.4006 70.9887 70.7134C71.2854 71.0262 71.6594 71.1895 72.085 71.1895C72.5106 71.1895 72.8847 71.0262 73.1813 70.7134C73.4909 70.4006 73.6456 70.0198 73.6456 69.5573V65.8443H72.1366V62.9745H76.4444V69.5845C76.4444 70.8358 76.0188 71.9103 75.1805 72.7808C74.355 73.6648 73.349 74.1137 72.1753 74.1137Z" fill="#231F20"></path><path d="M84.4668 74.1137C83.2802 74.1137 82.2613 73.6784 81.423 72.7944C80.5846 71.9103 80.1719 70.8494 80.1719 69.5981V59.275C80.1719 58.0237 80.5975 56.9492 81.4359 56.0651C82.2742 55.1811 83.2931 54.7458 84.4668 54.7458C85.6534 54.7458 86.6723 55.1947 87.4978 56.0787C88.3232 56.9628 88.7488 58.0373 88.7488 59.275V61.4239H85.95V59.207C85.95 58.7581 85.7953 58.3637 85.4857 58.0509C85.1762 57.7245 84.815 57.5613 84.3894 57.5613C83.9638 57.5613 83.5898 57.7245 83.2931 58.0509C82.9965 58.3773 82.8417 58.7581 82.8417 59.207V69.5573C82.8417 70.0062 82.9965 70.4006 83.2931 70.7134C83.5898 71.0262 83.9638 71.1895 84.3894 71.1895C84.815 71.1895 85.1891 71.0262 85.4857 70.7134C85.7953 70.4006 85.95 70.0062 85.95 69.5573V66.9459H88.7488V69.5845C88.7488 70.8358 88.3232 71.9103 87.4849 72.7808C86.6465 73.6648 85.6405 74.1137 84.4668 74.1137Z" fill="#231F20"></path><path d="M95.2234 74.073C94.0368 74.073 93.0179 73.6377 92.1925 72.7537C91.367 71.8832 90.9414 70.8223 90.9414 69.571V54.95H93.5854V69.5438C93.5854 69.9927 93.7402 70.3871 94.0497 70.6999C94.3593 71.0127 94.7204 71.1759 95.1461 71.1759C95.5717 71.1759 95.9457 71.0127 96.2424 70.6999C96.539 70.3871 96.6938 69.9927 96.6938 69.5438V54.95H99.5184V69.5846C99.5184 70.8495 99.0927 71.924 98.2544 72.7809C97.416 73.6513 96.41 74.073 95.2234 74.073Z" fill="#231F20"></path><path d="M104.562 57.8198H101.686V54.95H110.134V57.8198H107.27V73.8689H104.562V57.8198Z" fill="#231F20"></path><path d="M112.3 73.8689V54.9363H120V57.8061H115.008V62.9609H118.658V65.8307H115.008V70.9855H120V73.8553H112.3V73.8689Z" fill="#231F20"></path><path d="M9.24982 77.4262L10.4247 75.0713H11.3285L9.63716 78.2241V79.9227H8.82375V78.1726L7.1582 75.0713H8.06199L9.24982 77.4262Z" fill="#231F20"></path><path d="M17.0353 77.9282C17.0353 78.5201 16.8545 79.0092 16.4801 79.4081C16.1056 79.7941 15.615 79.9872 15.0211 79.9872C14.4401 79.9872 13.9624 79.7941 13.6009 79.4081C13.2394 79.022 13.0586 78.5201 13.0586 77.9282V77.0531C13.0586 76.4612 13.2394 75.9722 13.6009 75.5861C13.9624 75.2 14.4401 74.9941 15.0211 74.9941C15.615 74.9941 16.1056 75.1872 16.4801 75.5861C16.8545 75.9722 17.0482 76.474 17.0482 77.0531V77.9282H17.0353ZM16.2218 77.0531C16.2218 76.6542 16.1186 76.3196 15.8991 76.0622C15.6796 75.8049 15.3955 75.6762 15.0211 75.6762C14.6596 75.6762 14.3755 75.8049 14.169 76.0622C13.9624 76.3196 13.8591 76.6542 13.8591 77.0531V77.9282C13.8591 78.34 13.9624 78.6746 14.169 78.9319C14.3755 79.1893 14.6596 79.318 15.0211 79.318C15.3955 79.318 15.6925 79.1893 15.8991 78.9319C16.1186 78.6746 16.2218 78.34 16.2218 77.9282V77.0531Z" fill="#231F20"></path><path d="M22.9876 75.0713V78.2627C22.9876 78.8032 22.8068 79.2279 22.4582 79.5367C22.0967 79.8456 21.6448 80 21.0767 80C20.5215 80 20.0696 79.8456 19.721 79.5367C19.3724 79.2279 19.2046 78.8032 19.2046 78.2627V75.0713H20.018V78.2627C20.018 78.6102 20.1213 78.8675 20.315 79.0606C20.5086 79.2536 20.7668 79.3437 21.0896 79.3437C21.4253 79.3437 21.6835 79.2536 21.8901 79.0606C22.0967 78.8675 22.1871 78.6102 22.1871 78.2627V75.0713H22.9876Z" fill="#231F20"></path><path d="M26.1117 77.9023V79.9098H25.2983V75.0583H26.9768C27.5191 75.0583 27.9322 75.187 28.2292 75.4187C28.5261 75.6632 28.6682 76.0106 28.6682 76.461C28.6682 76.7184 28.6036 76.9243 28.4745 77.1044C28.3454 77.2846 28.1517 77.4262 27.9064 77.542C28.1775 77.632 28.3841 77.7736 28.5003 77.9666C28.6165 78.1597 28.6811 78.4042 28.6811 78.6873V79.0862C28.6811 79.2277 28.694 79.3693 28.7327 79.498C28.7715 79.6395 28.8231 79.7425 28.9135 79.8068V79.884H28.0743C27.9839 79.8068 27.9322 79.691 27.9064 79.5366C27.8806 79.3822 27.8677 79.2277 27.8677 79.0733V78.6873C27.8677 78.4428 27.7902 78.2369 27.6482 78.0953C27.5062 77.9538 27.3125 77.8766 27.0672 77.8766H26.1117V77.9023ZM26.1117 77.2589H26.9252C27.2479 77.2589 27.4933 77.1945 27.6353 77.0658C27.7902 76.9371 27.8548 76.757 27.8548 76.4996C27.8548 76.2551 27.7773 76.0621 27.6353 75.9205C27.4933 75.779 27.2608 75.7146 26.9639 75.7146H26.0988V77.2589H26.1117Z" fill="#231F20"></path><path d="M37.6674 78.34L37.6803 78.3657C37.6933 78.8547 37.5254 79.2537 37.2026 79.5496C36.8798 79.8456 36.428 80.0001 35.8728 80.0001C35.3047 80.0001 34.8528 79.807 34.4913 79.4338C34.1427 79.0478 33.9619 78.5716 33.9619 77.9668V77.0403C33.9619 76.4483 34.1298 75.9593 34.4784 75.5732C34.827 75.1872 35.2789 74.9941 35.834 74.9941C36.4021 74.9941 36.854 75.1357 37.1897 75.4317C37.5125 75.7277 37.6803 76.1266 37.6674 76.6285L37.6545 76.6542H36.8669C36.8669 76.3325 36.7766 76.0751 36.6087 75.9078C36.428 75.7405 36.1697 75.6504 35.834 75.6504C35.4983 75.6504 35.2401 75.7791 35.0465 76.0365C34.8528 76.2939 34.7624 76.6285 34.7624 77.0274V77.9539C34.7624 78.3529 34.8657 78.6874 35.0594 78.9448C35.253 79.2022 35.5242 79.3309 35.8599 79.3309C36.1956 79.3309 36.4409 79.2408 36.6216 79.0735C36.7895 78.9062 36.8798 78.6488 36.8798 78.3271H37.6674V78.34Z" fill="#231F20"></path><path d="M43.6451 77.9282C43.6451 78.5201 43.4644 79.0092 43.0899 79.4081C42.7155 79.7941 42.2249 79.9872 41.631 79.9872C41.05 79.9872 40.5722 79.7941 40.2107 79.4081C39.8492 79.022 39.6685 78.5201 39.6685 77.9282V77.0531C39.6685 76.4612 39.8492 75.9722 40.2107 75.5861C40.5722 75.2 41.05 74.9941 41.631 74.9941C42.2249 74.9941 42.7155 75.1872 43.0899 75.5861C43.4644 75.9722 43.658 76.474 43.658 77.0531V77.9282H43.6451ZM42.8317 77.0531C42.8317 76.6542 42.7284 76.3196 42.5089 76.0622C42.2894 75.8049 42.0054 75.6762 41.631 75.6762C41.2695 75.6762 40.9854 75.8049 40.7788 76.0622C40.5722 76.3196 40.469 76.6542 40.469 77.0531V77.9282C40.469 78.34 40.5722 78.6746 40.7788 78.9319C40.9854 79.1893 41.2695 79.318 41.631 79.318C42.0054 79.318 42.3023 79.1893 42.5089 78.9319C42.7284 78.6746 42.8317 78.34 42.8317 77.9282V77.0531Z" fill="#231F20"></path><path d="M48.3452 78.8032H48.371L49.7783 75.0713H50.8112V79.9227H49.9978V76.4354H49.972L48.6292 79.9227H48.074L46.7054 76.371L46.6796 76.3839V79.9356H45.8662V75.0842H46.9378L48.3452 78.8032Z" fill="#231F20"></path><path d="M54.0258 78.0825V79.9227H53.2124V75.0713H55.0845C55.6268 75.0713 56.04 75.2128 56.3498 75.4831C56.6597 75.7662 56.8017 76.1265 56.8017 76.5769C56.8017 77.0273 56.6468 77.4005 56.3498 77.6707C56.04 77.941 55.6268 78.0825 55.0845 78.0825H54.0258ZM54.0258 77.4262H55.0845C55.3815 77.4262 55.6139 77.349 55.7688 77.1817C55.9238 77.0273 56.0012 76.8214 56.0012 76.5769C56.0012 76.3324 55.9238 76.1265 55.7688 75.9592C55.6139 75.7919 55.3944 75.7147 55.0845 75.7147H54.0258V77.4262Z" fill="#231F20"></path><path d="M60.8817 78.7903H59.1516L58.7772 79.9227H57.938L59.6423 75.0713H60.4169L62.0954 79.9227H61.2562L60.8817 78.7903ZM59.3711 78.1083H60.6493L60.0296 76.1909H60.0038L59.3711 78.1083Z" fill="#231F20"></path><path d="M67.8669 79.9227H67.0535L64.8973 76.4225L64.8715 76.4354V79.9227H64.0581V75.0713H64.8715L67.0277 78.5715L67.0535 78.5587V75.0713H67.8669V79.9227Z" fill="#231F20"></path><path d="M71.8177 77.4262L72.9926 75.0713H73.8964L72.205 78.2241V79.9227H71.3916V78.1726L69.7261 75.0713H70.6299L71.8177 77.4262Z" fill="#231F20"></path><path d="M81.5137 78.6746C81.5137 78.4687 81.4362 78.3014 81.2942 78.1727C81.1521 78.044 80.8939 77.9282 80.5324 77.8252C80.003 77.6837 79.6028 77.4907 79.3187 77.259C79.0347 77.0274 78.8927 76.7185 78.8927 76.3453C78.8927 75.9593 79.0476 75.6376 79.3575 75.3802C79.6673 75.1228 80.0676 74.9941 80.5582 74.9941C81.0876 74.9941 81.5007 75.1357 81.8235 75.4188C82.1334 75.7019 82.2883 76.0494 82.2754 76.4612L82.2625 76.4869H81.4749C81.4749 76.2295 81.3845 76.0236 81.2167 75.8821C81.0488 75.7277 80.8164 75.6504 80.5324 75.6504C80.2613 75.6504 80.0418 75.7148 79.8997 75.8435C79.7577 75.9722 79.6803 76.1395 79.6803 76.3453C79.6803 76.5384 79.7577 76.6799 79.9256 76.8086C80.0934 76.9244 80.3516 77.0403 80.739 77.1561C81.2554 77.2976 81.6428 77.4907 81.901 77.7352C82.1721 77.9797 82.3012 78.2885 82.3012 78.6746C82.3012 79.0735 82.1463 79.3952 81.8235 79.6397C81.5007 79.8842 81.0876 80.0001 80.5711 80.0001C80.0805 80.0001 79.6415 79.8714 79.28 79.6011C78.9185 79.3437 78.7377 78.9706 78.7506 78.4944L78.7636 78.4687H79.5511C79.5511 78.7647 79.6544 78.9834 79.8481 79.125C80.0547 79.2665 80.3 79.3437 80.584 79.3437C80.8681 79.3437 81.1005 79.2794 81.2554 79.1636C81.4362 79.0478 81.5137 78.8805 81.5137 78.6746Z" fill="#231F20"></path><path d="M85.3486 79.2793H87.6338V79.9227H84.5352V75.0713H85.3486V79.2793Z" fill="#231F20"></path><path d="M93.4308 77.9282C93.4308 78.5201 93.25 79.0092 92.8756 79.4081C92.5012 79.7941 92.0105 79.9872 91.4166 79.9872C90.8356 79.9872 90.3579 79.7941 89.9964 79.4081C89.6349 79.022 89.4541 78.5201 89.4541 77.9282V77.0531C89.4541 76.4612 89.6349 75.9722 89.9964 75.5861C90.3579 75.2 90.8356 74.9941 91.4166 74.9941C92.0105 74.9941 92.5012 75.1872 92.8756 75.5861C93.25 75.9722 93.4437 76.474 93.4437 77.0531V77.9282H93.4308ZM92.6174 77.0531C92.6174 76.6542 92.5141 76.3196 92.2946 76.0622C92.0751 75.8049 91.791 75.6762 91.4166 75.6762C91.0551 75.6762 90.771 75.8049 90.5645 76.0622C90.3579 76.3196 90.2546 76.6542 90.2546 77.0531V77.9282C90.2546 78.34 90.3579 78.6746 90.5645 78.9319C90.771 79.1893 91.0551 79.318 91.4166 79.318C91.791 79.318 92.088 79.1893 92.2946 78.9319C92.5141 78.6746 92.6174 78.34 92.6174 77.9282V77.0531Z" fill="#231F20"></path><path d="M99.2669 79.2665C99.1378 79.4595 98.9183 79.6268 98.6214 79.7683C98.3244 79.9099 97.95 79.9871 97.4852 79.9871C96.9042 79.9871 96.4394 79.8069 96.0649 79.4338C95.6905 79.0606 95.5098 78.5844 95.5098 77.9925V76.9758C95.5098 76.3839 95.6905 75.9077 96.052 75.5346C96.4136 75.1614 96.8784 74.9812 97.4335 74.9812C98.0016 74.9812 98.4406 75.1228 98.7634 75.4059C99.0862 75.689 99.2282 76.0622 99.2282 76.5254L99.2153 76.5512H98.4406C98.4406 76.2809 98.3502 76.0622 98.1824 75.8949C98.0145 75.7276 97.7692 75.6504 97.4465 75.6504C97.1108 75.6504 96.8396 75.7791 96.633 76.0236C96.4265 76.2809 96.3232 76.5898 96.3232 76.9758V77.9925C96.3232 78.3785 96.4265 78.7002 96.646 78.9576C96.8654 79.215 97.1366 79.3308 97.4852 79.3308C97.7434 79.3308 97.95 79.3051 98.1049 79.2407C98.2599 79.1764 98.3761 79.112 98.4535 79.022V78.0182H97.4335V77.4134H99.2669V79.2665Z" fill="#231F20"></path><path d="M104.173 78.7903H102.443L102.069 79.9227H101.229L102.934 75.0713H103.708L105.387 79.9227H104.548L104.173 78.7903ZM102.663 78.1083H103.941L103.321 76.1909H103.295L102.663 78.1083Z" fill="#231F20"></path><path d="M111.158 79.9227H110.345L108.189 76.4225L108.163 76.4354V79.9227H107.35V75.0713H108.163L110.319 78.5715L110.345 78.5587V75.0713H111.158V79.9227Z" fill="#231F20"></path><path d="M80.3119 31.9993C80.4928 31.0014 80.1181 29.2487 76.126 28.5323C72.1338 27.8159 71.1519 29.3127 70.971 30.3106C70.7901 31.3085 72.7668 34.9929 74.8211 35.364C76.8753 35.7478 80.1311 33.01 80.3119 31.9993Z" fill="#231F20"></path><path d="M69.1621 38.7541C69.1621 38.7541 70.5445 40.3021 70.299 42.1955C70.0536 44.1017 69.3042 48.4003 71.6427 49.4238C73.9811 50.4472 76.6038 47.0698 77.0431 44.1529C77.4824 41.236 75.7253 39.5217 73.4514 40.1102C73.4385 40.123 71.8752 37.9865 69.1621 38.7541Z" fill="#ED1C24"></path><path d="M93.516 4.80065C92.2757 4.58317 91.2034 4.83903 90.299 5.56826C88.9166 6.69407 88.3094 8.7538 88.0381 10.3146C86.4748 8.49794 83.5937 5.76016 79.9375 5.0949C76.2812 4.44244 72.5991 6.00323 70.4932 7.15463C70.8033 5.59384 70.9583 3.45735 70.0669 1.92215C69.4855 0.924264 68.5553 0.310182 67.3279 0.0799016C64.4985 -0.431833 59.8345 1.60231 56.3979 3.67484C54.7054 4.69831 49.137 8.28045 48.5169 11.6707C48.1035 13.8967 49.2016 17.3254 51.4497 20.8435C53.168 23.5301 55.7907 26.5366 58.0516 26.946C58.2712 26.9843 58.4909 26.9843 58.7105 26.9716C57.7544 28.5323 56.9534 30.1571 56.6046 32.0889C56.049 35.1465 57.509 38.3449 60.7389 41.0954C63.1032 43.104 66.2685 44.7287 69.6922 45.701C69.7051 47.4026 70.0927 49.0913 71.5268 49.7182C71.7076 49.7949 71.9014 49.8589 72.0823 49.8845C72.6895 49.9996 73.3355 49.8717 73.9815 49.5263C74.9505 49.0017 75.8548 47.9527 76.4879 46.7373C77.2631 46.7629 78.0383 46.7501 78.8005 46.7117C81.0356 46.5838 83.1932 46.1616 85.0795 45.4836C89.0716 44.0379 91.578 41.556 92.1465 38.4984C92.4953 36.5666 92.3403 34.7627 91.9915 32.9589C92.1982 33.074 92.6762 33.2915 93.5935 33.2403C95.8157 33.1124 98.7872 31.4492 101.009 29.7861C104.356 27.2786 106.604 24.4513 107.017 22.2124C107.96 17.0695 98.3479 5.6706 93.516 4.80065ZM73.6843 48.9889C72.9996 49.3599 72.3536 49.4111 71.7593 49.1553C69.7697 48.2853 70.2736 44.588 70.5449 42.605L70.5966 42.2468C70.7903 40.7884 70.1056 39.5474 69.6922 38.9461C69.9506 38.9078 70.209 38.8822 70.4415 38.895C70.6612 38.9334 70.8679 38.9589 71.0746 38.9717C72.3536 39.2532 73.103 40.1615 73.1934 40.2894C74.0849 41.9398 72.8704 45.7906 72.8575 45.829C72.8058 45.9825 72.8962 46.1488 73.0513 46.2C73.0642 46.2 73.0771 46.2128 73.09 46.2128C73.2322 46.2384 73.3872 46.1488 73.426 46.0081C73.4776 45.8546 74.5887 42.3236 73.8781 40.3534C74.6533 40.2383 75.351 40.4174 75.8807 40.8907C76.63 41.556 76.953 42.7458 76.7463 44.1275C76.4362 46.0976 75.1313 48.1957 73.6843 48.9889ZM72.5216 38.9333C73.3614 38.8054 73.9427 38.5112 74.3432 38.1657C74.7825 38.9589 75.7773 39.8545 77.9866 40.2511C78.4129 40.3278 78.8134 40.3662 79.1881 40.379C78.6196 40.9803 77.922 41.4536 77.1468 41.7735C76.953 41.2362 76.6688 40.7756 76.2812 40.4302C75.5577 39.7905 74.6016 39.573 73.5552 39.7905C73.3743 39.5858 73.0254 39.2404 72.5216 38.9333ZM100.04 28.494C97.2627 30.5793 94.3428 31.8586 92.9604 31.6028C92.2628 31.4748 91.0483 29.6454 90.5445 25.9737C89.8985 21.3425 90.7124 15.6494 93.994 14.063C94.3945 13.8711 94.5625 13.3978 94.3687 12.9884C94.1749 12.5918 93.6969 12.4255 93.2834 12.6174C89.7176 14.3317 88.4902 19.7945 88.7616 24.3105C88.8908 26.5494 89.3817 28.6987 89.8339 30.6177C90.4799 33.3043 91.0354 35.6327 90.5574 38.1785C89.7822 42.4131 84.0459 45.1893 77.121 45.1381C77.2114 44.8183 77.2889 44.5113 77.3277 44.1914C77.3923 43.7565 77.4052 43.3471 77.3794 42.9633C78.8005 42.4259 80.0408 41.4536 80.8677 40.1615C82.8185 39.5346 83.4128 37.6924 83.8133 36.4642C84.0071 35.8757 84.2397 35.1593 84.4852 35.0698C84.7952 34.9674 84.9632 34.622 84.8598 34.3149C84.7565 34.0079 84.4076 33.8416 84.0976 33.9439C83.2707 34.2254 82.9736 35.1337 82.6635 36.106C82.095 37.8587 81.4878 39.6882 78.1933 39.0869C75.0022 38.5112 75.183 36.912 75.1959 36.8608C75.2605 36.541 75.0409 36.2212 74.705 36.17C74.382 36.106 74.059 36.3235 74.0073 36.6561C74.0073 36.6689 73.6714 38.2937 70.4028 37.7052C67.0953 37.1039 67.1858 35.1977 67.2762 33.3554C67.3279 32.3448 67.3667 31.3853 66.6948 30.8352C66.4364 30.6305 66.0618 30.6688 65.8421 30.9119C65.6354 31.1678 65.6742 31.5388 65.9196 31.7563C66.1264 31.9226 66.0876 32.6902 66.0618 33.2915C65.9972 34.5836 65.9067 36.5154 67.5088 37.7819C67.8447 39.3811 68.749 40.7884 70.0023 41.8119C70.0023 41.927 69.9893 42.0549 69.9764 42.1829L69.9247 42.5411C69.8601 42.9761 69.7955 43.5006 69.7439 44.0635C66.6819 43.1424 63.8654 41.6839 61.7595 39.8929C58.9818 37.5261 57.7157 34.8651 58.1679 32.3831C58.633 29.8245 59.9895 27.8415 61.5657 25.5515C62.1084 24.7583 63.8267 22.0461 63.9946 21.7391C66.5915 16.9927 67.8318 10.7496 64.7569 7.52564C64.4468 7.20581 63.9429 7.19301 63.62 7.50005C63.297 7.80709 63.284 8.30604 63.5941 8.62587C66.1005 11.2485 64.8732 16.7113 62.5864 20.9715C62.1084 21.867 59.8733 25.6666 58.3229 25.398C56.9276 25.1421 54.6537 22.9289 52.7933 20.012C50.8166 16.9288 49.7572 13.7688 50.0931 11.9777C50.4161 10.225 53.2843 7.43609 57.2247 5.06931C61.1652 2.70254 65.1057 1.33365 67.0307 1.67907C70.0539 2.21639 69.1625 6.39982 68.4261 8.66425C68.3227 8.99688 68.4131 9.36788 68.6974 9.57258C68.9816 9.77727 69.3692 9.77727 69.6534 9.57258C69.7051 9.5342 74.8342 5.83692 79.6274 6.69407C84.4076 7.55123 87.9089 12.8093 87.9347 12.8605C88.1285 13.1547 88.4902 13.2954 88.8391 13.1931C89.175 13.0908 89.4205 12.7837 89.4205 12.4383C89.4334 11.2869 89.8081 8.03737 91.3067 6.822C91.8235 6.39982 92.4566 6.2591 93.2059 6.38703C97.5598 7.16743 106.113 18.0674 105.402 21.931C105.105 23.7092 102.986 26.2935 100.04 28.494Z" fill="#231F20"></path><path d="M67.5604 16.3146C67.4183 16.289 67.2891 16.2123 67.1857 16.0844C66.979 15.8285 67.0307 15.4447 67.302 15.2528C67.3537 15.2144 68.5423 14.3317 69.9634 14.2549C71.3846 14.1781 72.6636 14.9457 72.7153 14.9713C72.9995 15.1376 73.09 15.5087 72.922 15.7901C72.7541 16.0716 72.3794 16.1611 72.0952 15.9948C72.0822 15.9948 71.0745 15.3935 70.0409 15.4447C69.0074 15.4959 68.0642 16.1995 68.0513 16.1995C67.8963 16.3018 67.7283 16.3402 67.5604 16.3146Z" fill="#231F20"></path><path d="M87.418 19.8841C87.2629 19.8585 87.1079 19.7561 87.0175 19.6154C87.0175 19.6026 86.3844 18.6303 85.4284 18.2209C84.4723 17.8115 83.3225 18.0162 83.3095 18.0162C82.9865 18.0802 82.6636 17.8627 82.6119 17.5429C82.5473 17.2231 82.7669 16.9032 83.0899 16.852C83.1545 16.8392 84.6144 16.5706 85.9193 17.1335C87.2242 17.6964 88.0123 18.9374 88.051 19.0013C88.2319 19.2828 88.1415 19.6538 87.8572 19.8201C87.7151 19.8841 87.5601 19.9096 87.418 19.8841Z" fill="#231F20"></path><path d="M86.9401 22.673C86.5137 21.4065 85.674 20.5365 84.6016 20.2167C82.4441 19.5898 79.9893 21.4832 79.1237 24.4129C78.9687 24.9502 78.8653 25.5003 78.8395 26.0505C78.0385 25.6794 77.147 25.3724 76.2039 25.1933C75.2478 25.027 74.3047 25.0014 73.4262 25.0654C73.5941 24.5408 73.6975 23.9907 73.7362 23.4278C73.9688 20.383 72.3409 17.7603 70.1058 17.594C67.8707 17.4277 65.8553 19.7689 65.6227 22.8137C65.5581 23.7221 65.6486 24.6432 65.894 25.462C65.9586 25.6794 66.1395 25.833 66.3591 25.8713C66.4108 25.8841 66.4625 25.8841 66.5271 25.8841C67.354 25.8074 68.6201 25.7306 69.925 25.769C69.3436 25.9609 68.9818 26.1144 68.9301 26.14C68.6201 26.2807 68.4909 26.6262 68.6201 26.9332C68.7105 27.1251 68.8785 27.2402 69.0593 27.2786C69.1756 27.3042 69.2919 27.2914 69.4082 27.2402C69.4469 27.2274 72.7285 25.7946 75.9455 26.3831C79.1625 26.9588 81.7335 29.4535 81.7593 29.4663C81.9919 29.6966 82.3795 29.6966 82.612 29.4663C82.8446 29.236 82.8446 28.8522 82.612 28.6219C82.5733 28.5835 82.289 28.3149 81.811 27.9311C83.0513 28.3533 84.2141 28.8778 84.9505 29.2232C85.0022 29.2488 85.0538 29.2616 85.1055 29.2744C85.3251 29.3128 85.5577 29.236 85.6869 29.0441C86.2166 28.3661 86.63 27.5345 86.8884 26.6645C87.3406 25.2829 87.3406 23.8628 86.9401 22.673ZM66.8372 22.9289C67.018 20.5749 68.478 18.6943 70.0283 18.8094C70.0929 18.8094 70.1575 18.8222 70.2092 18.835C71.4495 19.0525 72.3926 20.5493 72.5347 22.366C72.2634 21.5344 71.682 20.9459 70.9844 20.8819C69.925 20.8052 68.956 21.9694 68.8397 23.4918C68.8139 23.8756 68.8397 24.2466 68.9172 24.5792C68.2196 24.592 67.5477 24.6176 66.9405 24.6688C66.8242 24.1187 66.7855 23.5174 66.8372 22.9289ZM80.2865 24.7455C80.9583 22.4811 82.7671 20.9331 84.2657 21.3553C84.9634 21.56 85.506 22.1485 85.8032 23.044C86.0099 23.6709 86.0874 24.3873 86.0099 25.1165C85.9194 24.2466 85.4802 23.5557 84.7954 23.3638C83.7748 23.0696 82.5862 24.0163 82.1598 25.4748C82.0306 25.8969 81.9919 26.3191 82.0048 26.7029C81.3459 26.4854 80.687 26.3063 80.0281 26.1784C80.0539 25.7178 80.1444 25.2317 80.2865 24.7455Z" fill="#231F20"></path><path d="M79.6402 6.66848C84.4205 7.52563 87.9217 12.7837 87.9475 12.8349C88.1413 13.1291 88.5031 13.2699 88.8519 13.1675C89.1878 13.0652 89.4333 12.7581 89.4333 12.4127C89.4462 11.2613 89.8209 8.01178 91.3196 6.79641C91.8364 6.37423 92.4694 6.2335 93.2188 6.36144C97.5727 7.14183 106.125 18.0418 105.415 21.9054C105.092 23.6964 102.973 26.2807 100.027 28.4812C97.2626 30.5793 94.3428 31.8586 92.9604 31.6027C92.2627 31.4748 91.0483 29.6454 90.5444 25.9737C89.8984 21.3425 90.7123 15.6494 93.9939 14.063C94.3944 13.8711 94.5624 13.3978 94.3686 12.9884C94.1748 12.5918 93.6968 12.4255 93.2834 12.6174C91.3971 13.5257 90.1697 15.4831 89.4591 17.7859C89.4591 17.7859 82.3404 15.5343 79.7953 12.144C77.2372 8.76659 79.6402 6.66848 79.6402 6.66848Z" fill="#FFA400"></path><path d="M68.9428 3.29109C69.0461 3.61093 69.4208 4.57043 69.1366 4.32736C67.8704 3.23992 64.9764 4.64719 61.9145 7.18028C58.8396 9.71336 60.4933 13.2443 60.8163 17.9011C61.1393 22.5579 57.3668 24.9758 57.3668 24.9758C56.0102 24.1699 54.279 22.302 52.8061 19.9864C50.8294 16.9032 49.77 13.7433 50.1059 11.9522C50.4289 10.1995 53.2971 7.41056 57.2376 5.04378C61.1781 2.67701 65.1186 1.30812 67.0436 1.65354C68.0772 1.84544 68.6585 2.45952 68.9428 3.29109Z" fill="#FFA400"></path><path d="M21.3467 19.7946C19.7834 18.1954 18.0393 16.673 16.7603 15.7646C16.8119 17.6837 17.2383 20.8436 17.8584 23.9268L21.3467 19.7946Z" fill="#231F20"></path><path d="M38.6851 16.1227L43.5816 18.4895C42.8839 15.419 41.9666 12.3742 41.2173 10.5959C40.4292 11.9393 39.4602 14.0374 38.6851 16.1227Z" fill="#231F20"></path><path d="M28.7498 49.5774C22.6646 49.0529 17.626 46.6094 14.9129 42.8481C11.0757 37.5389 14.3702 26.9843 14.9387 25.27C14.7837 24.5408 14.3186 22.174 13.9827 19.7177C13.2333 14.1398 13.8147 12.8221 14.4994 12.272C14.732 12.0801 15.1325 11.8754 15.7526 11.9265C17.9102 12.1057 21.8378 15.8541 23.4011 17.4277C24.4475 16.7241 26.7343 15.368 29.3441 14.8051C30.7782 14.498 32.3802 14.4213 34.1114 14.5748C34.822 14.6387 35.4163 14.7283 35.8427 14.7923C36.1527 13.9735 36.7341 12.5406 37.4189 11.095C39.008 7.7687 40.287 6.33585 41.5661 6.45099C41.6565 6.46378 41.7469 6.47657 41.8374 6.50216C42.6771 6.73244 43.7624 7.69194 45.3773 13.0907C46.0879 15.4703 46.6305 17.8243 46.7856 18.5407C48.0129 19.8712 55.3642 28.1869 54.0593 34.5836C52.5348 42.0421 44.1758 47.5433 36.7212 49.1169C34.1889 49.6414 31.4371 49.8077 28.7498 49.5774ZM15.5459 13.5769C14.9645 14.3829 15.4426 19.6409 16.6312 25.1421C16.657 25.2956 16.657 25.4491 16.6053 25.5899C16.5666 25.705 12.6907 36.912 16.2823 41.8758C18.7112 45.2405 23.3106 47.4281 28.9048 47.9143C31.4371 48.1318 34.021 47.9783 36.3853 47.4793C43.3102 46.0209 51.0361 41.0059 52.4315 34.251C53.6588 28.2637 45.5065 19.6026 45.429 19.513C45.3257 19.3979 45.2481 19.2699 45.2223 19.1164C44.0337 13.6281 42.3154 8.63865 41.4369 8.11412C40.6358 8.31882 38.6462 11.9905 37.1992 16.0332C37.0571 16.4298 36.6308 16.6601 36.2044 16.5577C36.1915 16.5577 35.2871 16.3403 33.9822 16.2251C32.4319 16.0972 30.959 16.1611 29.7058 16.4298C26.5664 17.0951 23.8532 19.1548 23.8274 19.1676C23.4915 19.4235 23.0006 19.3979 22.7034 19.078C20.5717 16.8648 16.9542 13.6792 15.6105 13.5641C15.5718 13.5769 15.5588 13.5769 15.5459 13.5769Z" fill="#231F20"></path><path d="M39.9385 46.4302C45.4164 44.3833 50.6359 40.3406 52.1734 35.1849C50.9072 34.9546 49.5765 34.9546 48.2587 35.236C43.2717 36.3235 39.9385 41.0442 39.9385 46.4302Z" fill="#FFA400"></path><path d="M19.6801 41.0443C18.5561 41.2874 17.5225 41.7096 16.5923 42.2853C19.0858 45.4068 23.5301 47.4538 28.8918 47.9144C29.9512 48.0039 31.0106 48.0295 32.07 47.9911C29.8478 42.9633 24.7446 39.9441 19.6801 41.0443Z" fill="#FFA400"></path><path d="M29.6802 16.4298C27.1867 16.9543 24.9646 18.3616 24.1377 18.9245C26.011 23.9907 29.1376 27.3297 31.8507 26.7412C34.5638 26.1527 36.0108 21.8286 35.5716 16.4298C35.184 16.3658 34.6155 16.2763 33.9566 16.2251C32.4062 16.0971 30.9334 16.1739 29.6802 16.4298Z" fill="#FFA400"></path><path d="M16.1659 34.6347C15.9592 34.6219 15.7912 34.4428 15.7783 34.2253C15.7783 33.995 15.9592 33.8031 16.1917 33.8031L23.9564 33.688C24.189 33.688 24.3828 33.8671 24.3828 34.0974C24.3828 34.3276 24.2019 34.5195 23.9694 34.5195L16.2047 34.6347C16.2047 34.6475 16.1788 34.6347 16.1659 34.6347Z" fill="#231F20"></path><path d="M17.3285 40.0464C17.1735 40.0336 17.0443 39.944 16.9797 39.7905C16.8892 39.5858 16.9926 39.33 17.1993 39.2404L24.3439 36.2084C24.5635 36.1188 24.809 36.2212 24.8994 36.4259C24.9898 36.6433 24.8865 36.8864 24.6798 36.976L17.5352 40.008C17.4706 40.0336 17.406 40.0464 17.3285 40.0464Z" fill="#231F20"></path><path d="M16.773 37.3981C16.5921 37.3853 16.437 37.2573 16.3983 37.0654C16.3466 36.8352 16.4887 36.6177 16.7213 36.5665L24.163 34.9929C24.3955 34.9417 24.6152 35.0825 24.6669 35.3127C24.7185 35.543 24.5764 35.7605 24.3439 35.8117L16.9022 37.3853C16.8505 37.3981 16.8117 37.3981 16.773 37.3981Z" fill="#231F20"></path><path d="M42.1215 30.656C41.9664 30.6432 41.8373 30.5537 41.7727 30.4001C41.6822 30.1826 41.7856 29.9396 41.9923 29.85L49.1368 26.818C49.3565 26.7284 49.6019 26.8308 49.6924 27.0355C49.7828 27.253 49.6795 27.496 49.4727 27.5856L42.3282 30.6176C42.2507 30.656 42.1861 30.656 42.1215 30.656Z" fill="#231F20"></path><path d="M42.664 33.1508C42.4572 33.138 42.2893 32.9589 42.2764 32.7414C42.2764 32.5111 42.4572 32.3192 42.6898 32.3192L50.4545 32.2041C50.687 32.2041 50.8808 32.3832 50.8808 32.6135C50.8808 32.8438 50.7 33.0357 50.4674 33.0357L42.7027 33.1508C42.6898 33.1508 42.6769 33.1508 42.664 33.1508Z" fill="#231F20"></path><path d="M42.4058 31.9611C42.2249 31.9483 42.0699 31.8203 42.0311 31.6284C41.9794 31.3981 42.1215 31.1807 42.3541 31.1295L49.7958 29.5559C50.0284 29.5047 50.248 29.6455 50.2997 29.8757C50.3513 30.106 50.2092 30.3235 49.9767 30.3747L42.535 31.9483C42.4833 31.9611 42.4445 31.9611 42.4058 31.9611Z" fill="#231F20"></path><path d="M21.2178 31.3598C21.2178 31.3598 23.2074 29.2745 24.4606 29.0442C25.7267 28.8011 27.9747 30.1444 27.9747 30.1444C27.9747 30.1444 25.365 27.1764 24.1118 27.4194C22.8456 27.6497 21.2178 31.3598 21.2178 31.3598Z" fill="#231F20"></path><path d="M43.4656 26.5366C43.4656 26.5366 40.7783 25.4619 39.5381 25.769C38.2978 26.076 36.812 28.2253 36.812 28.2253C36.812 28.2253 37.936 24.4513 39.1763 24.157C40.4295 23.85 43.4656 26.5366 43.4656 26.5366Z" fill="#231F20"></path><path d="M40.1192 31.2189C39.8221 31.1933 39.5637 31.4108 39.5378 31.6923C39.5378 31.7178 39.2019 34.8394 37.096 35.3C35.2743 35.6966 34.4087 34.9929 34.1891 34.7755L33.9178 33.5473C35.0805 32.8181 36.0624 30.9886 35.9462 30.4513C35.804 29.8244 35.1193 28.8905 32.3545 29.4918C29.6026 30.0931 29.3571 31.2189 29.4993 31.8458C29.6285 32.4215 31.476 33.8415 32.8842 33.8543L33.1426 35.0057C33.0263 35.3128 32.5354 36.2979 30.7137 36.6945C28.6078 37.155 26.9928 34.4556 26.9799 34.43C26.8378 34.1742 26.5019 34.0846 26.2435 34.2381C25.9851 34.3789 25.8947 34.7115 26.0497 34.9674C26.1272 35.0953 27.8843 38.0506 30.5457 37.7947C30.5587 37.9098 30.5845 38.025 30.6103 38.1401C31.153 40.5709 33.1297 42.2084 35.0418 41.799C36.9539 41.3896 38.065 39.074 37.5353 36.6433C37.5094 36.5409 37.4836 36.4258 37.4578 36.3235C40.2226 35.6198 40.6101 31.9737 40.6231 31.8202C40.636 31.5132 40.4164 31.2573 40.1192 31.2189ZM34.8092 40.7755C33.6206 41.0314 32.3674 39.8672 31.9927 38.1785C31.9411 37.9226 31.9023 37.6796 31.8894 37.4365C32.9746 37.0143 33.556 36.3746 33.8661 35.8885C34.3183 36.1827 35.0159 36.477 36.0237 36.4898C36.127 36.7328 36.2175 36.9887 36.2691 37.2574C36.6567 38.9461 35.9978 40.5197 34.8092 40.7755Z" fill="#231F20"></path><path d="M33.879 35.8757C33.569 36.3747 32.9876 37.0016 31.9023 37.4237C31.9153 37.6668 31.9411 37.9227 32.0057 38.1658C32.3804 39.8545 33.6465 41.0187 34.8222 40.7628C36.0108 40.5069 36.6697 38.9334 36.295 37.2318C36.2304 36.9632 36.1529 36.7073 36.0496 36.4642C35.0289 36.477 34.3312 36.17 33.879 35.8757Z" fill="#EE4035"></path></svg>