<svg xmlns="http://www.w3.org/2000/svg" width="90" height="80" viewBox="0 0 90 80" fill="none"><path d="M30.1436 22.7743C30.0128 23.3615 28.9008 24.862 28.5084 25.384C28.1159 25.8407 26.5461 26.6236 26.4807 27.0803C26.4153 27.537 27.1348 29.6247 28.1813 29.8857C29.2278 30.2119 30.209 30.2119 30.536 30.6034C30.8631 30.9948 32.8907 33.6045 32.4329 34.9094C32.1712 35.627 31.648 37.519 31.3209 39.4763C32.4329 39.7373 33.6102 39.933 34.7222 39.9983C36.292 37.1276 39.9549 29.4942 41.4593 26.7541C41.5901 26.4931 41.7209 26.2321 41.9171 25.9712C40.8052 23.8182 39.497 21.4042 39.0391 20.8823C38.5159 20.3603 36.1612 17.033 35.2454 17.0982C34.9184 17.1634 35.4417 20.556 35.4417 20.556C35.4417 20.556 32.8907 17.033 32.3021 17.033H32.2366C31.8442 17.3592 32.0404 20.0993 32.8253 21.4042C32.2366 21.7956 30.2744 22.2523 30.1436 22.7743Z" fill="#F05A28"></path><path d="M36.8154 39.9983C37.9274 39.9331 38.9739 39.7373 39.955 39.4111C41.9173 38.7587 43.6833 37.7148 45.1877 36.3447C46.4305 35.1704 47.6079 34.4527 48.6544 34.0613C50.8129 33.2784 51.9902 34.3875 52.3827 34.8442C53.233 35.888 53.3638 37.5843 52.5789 38.8892C52.0556 39.7373 51.5324 40.5203 50.8783 41.2379C51.9248 40.7812 53.2984 39.9983 54.3449 38.6935C54.3449 38.6282 54.4104 38.6282 54.4104 38.6282C53.9525 36.671 54.2795 35.0399 54.8028 33.6046C55.1953 32.4954 56.8305 32.1692 59.9047 32.1692C62.1286 32.1692 63.6984 31.4516 64.6141 30.0162C65.5298 28.6462 65.5952 26.8846 65.4644 25.906C65.399 25.645 65.2028 25.384 64.8757 25.384C64.7449 25.384 64.6141 25.384 64.4833 25.384C63.8946 25.384 63.3059 25.3188 62.6518 25.1883C60.8204 24.7316 59.1198 23.231 57.9424 21.1433C57.55 20.4909 56.2418 20.1647 55.1298 19.9689C54.672 19.9037 54.2795 19.7732 53.8871 19.6427C52.5789 19.2513 51.7286 17.7507 50.8783 16.1849C50.6821 15.7934 50.4858 15.4672 50.2242 15.0758C50.0934 14.88 49.8972 14.88 49.7663 15.0758C47.7387 18.0117 48.589 20.3604 48.3273 20.5561C47.477 20.9476 44.272 24.9926 42.8984 27.7328C41.7211 30.2772 38.3852 37.1929 36.8154 39.9983Z" fill="#F05A28"></path><path d="M22.687 36.3446C24.0606 37.1275 25.6304 37.8452 27.2002 38.4324C25.8266 36.6056 24.7147 34.5179 23.9298 32.2996C19.9399 20.6865 26.0883 7.96424 37.731 3.98446C49.3737 0.00467987 62.063 6.13746 66.053 17.7506C68.146 23.7529 67.4919 30.0814 64.7448 35.3008C65.5951 35.2355 66.4454 35.627 66.9687 36.2794C67.0341 36.3446 67.0995 36.4751 67.1649 36.5404C70.2391 30.6686 70.9586 23.6224 68.6039 16.8372C64.1561 3.78873 49.897 -3.12695 36.8153 1.37477C23.799 5.87649 16.8657 20.0993 21.3789 33.1478C21.7713 34.2569 22.2292 35.3008 22.687 36.3446Z" fill="#8BC53F"></path><path d="M63.5673 37.9757C64.156 35.888 62.1937 34.6484 60.5585 37.6495C61.2126 35.888 59.7082 34.4527 58.2692 35.9532C57.2881 36.9971 57.1573 37.9757 55.7183 39.7373C52.4479 43.6518 47.1498 44.1085 45.3837 43.2604C48.3925 41.8903 50.0277 40.3245 51.2705 38.1715C52.2516 36.4099 50.878 33.4088 46.2994 37.5843C39.1045 44.1085 28.5737 42.347 23.9297 38.8239C30.0781 48.1535 41.9825 52.5248 53.1019 48.6755C58.5963 46.7834 63.044 43.1951 65.922 38.6282C66.6415 37.2581 64.6793 35.6923 63.5673 37.9757Z" fill="#8BC53F"></path><path d="M50.9433 10.4434C50.7471 10.052 50.3546 9.59528 49.8968 9.53004C47.9999 9.20383 47.2804 8.42092 51.3358 6.13744C48.9811 5.41977 46.2993 7.50753 45.449 9.0081C43.4867 7.70326 41.3937 8.02947 39.8239 5.02832C38.1232 8.48616 41.1974 11.683 41.1974 11.683C41.1974 11.683 35.8993 14.4232 34.4603 15.4671C34.2641 15.5976 34.3949 15.8585 34.5912 15.7933C36.8151 15.2714 40.0855 12.5964 43.4213 13.6403C44.0754 13.9013 44.9257 14.0318 45.776 13.9665C47.4767 13.9013 48.9157 13.1184 49.2427 12.205C49.4389 12.205 49.5697 12.205 49.766 12.205C50.1584 12.0745 50.5509 11.8788 50.7471 11.6178C50.8779 11.4221 51.0087 11.3568 51.205 11.2916C51.4012 11.2263 51.5974 11.2263 51.7936 11.2263C51.859 10.7044 51.205 10.8349 50.9433 10.4434Z" fill="#F05A28"></path><path d="M4.96622 54.1599C7.5 54.1599 9.32433 54.555 10.7432 55.444C12.0608 56.3329 12.7703 57.7157 12.7703 59.5924C12.7703 61.5679 12.0608 62.9507 10.7432 63.8397C9.42568 64.7286 7.5 65.1237 4.96622 65.1237H3.75V70.5563H0V54.555C0.810811 54.3575 1.72297 54.2587 2.63514 54.2587C3.5473 54.1599 4.35811 54.1599 4.96622 54.1599ZM5.27027 57.2219C4.96622 57.2219 4.76351 57.2219 4.45946 57.2219C4.15541 57.2219 3.9527 57.2219 3.75 57.2219V61.963H4.96622C6.28378 61.963 7.2973 61.7654 7.90541 61.4691C8.61487 61.1728 8.91892 60.4814 8.91892 59.4937C8.91892 58.9998 8.81757 58.7035 8.61487 58.4072C8.41216 58.1108 8.20946 57.9133 7.90541 57.7157C7.60135 57.5182 7.19595 57.4194 6.79054 57.3207C6.28378 57.3207 5.77703 57.2219 5.27027 57.2219Z" fill="#F05A28"></path><path d="M14.2905 64.5311C14.2905 63.4446 14.4932 62.4569 14.7973 61.6667C15.1013 60.8765 15.6081 60.1851 16.1149 59.5925C16.723 58.9998 17.3311 58.6047 18.0405 58.3084C18.75 58.0121 19.5608 57.9133 20.2703 57.9133C22.0946 57.9133 23.5135 58.4072 24.527 59.4937C25.5405 60.5802 26.0473 62.1606 26.0473 64.2348C26.0473 64.4324 26.0473 64.6299 26.0473 64.9262C26.0473 65.1238 26.0473 65.4201 26.0473 65.6176H17.9392C18.0405 66.309 18.3446 66.9017 18.9527 67.2968C19.5608 67.6919 20.3716 67.8894 21.3851 67.8894C21.9932 67.8894 22.7027 67.7906 23.3108 67.6919C23.9189 67.5931 24.4257 67.3956 24.8311 67.2968L25.3378 70.1612C25.1351 70.26 24.9324 70.3587 24.527 70.4575C24.223 70.5563 23.8176 70.6551 23.4121 70.6551C23.0067 70.7538 22.6013 70.7538 22.1959 70.8526C21.7905 70.8526 21.2838 70.9514 20.8784 70.9514C19.7635 70.9514 18.75 70.7538 17.9392 70.4575C17.1284 70.1612 16.4189 69.6673 15.8108 69.0747C15.304 68.4821 14.7973 67.7906 14.5946 67.0005C14.4932 66.2103 14.2905 65.4201 14.2905 64.5311ZM22.7027 63.1483C22.7027 62.852 22.6013 62.5557 22.5 62.2593C22.3986 61.963 22.2973 61.7655 22.0946 61.4692C21.8919 61.2716 21.6892 61.0741 21.3851 60.9753C21.0811 60.8765 20.777 60.7777 20.3716 60.7777C19.9662 60.7777 19.6621 60.8765 19.3581 60.9753C19.054 61.0741 18.8513 61.2716 18.6486 61.4692C18.4459 61.6667 18.3446 61.963 18.2432 62.2593C18.1419 62.5557 18.0405 62.852 18.0405 63.1483H22.7027Z" fill="#F05A28"></path><path d="M28.8853 55.1478L32.4326 54.5552V58.2098H36.7907V61.0742H32.4326V65.519C32.4326 66.2104 32.5339 66.8031 32.838 67.2969C33.142 67.692 33.6488 67.9883 34.4596 67.9883C34.865 67.9883 35.2704 67.9883 35.6758 67.8896C36.0812 67.7908 36.4866 67.692 36.7907 67.5932L37.2974 70.3589C36.892 70.5564 36.3853 70.6552 35.8785 70.8528C35.3717 70.9515 34.6623 71.0503 33.9528 71.0503C32.9393 71.0503 32.1285 70.9515 31.5204 70.6552C30.9123 70.3589 30.4055 70.0626 30.0001 69.5687C29.5947 69.0748 29.392 68.581 29.1893 67.8896C28.9866 67.1981 28.9866 66.5067 28.9866 65.7165V55.1478H28.8853Z" fill="#F05A28"></path><path d="M47.534 70.9514C44.7975 70.9514 42.7704 70.26 41.3515 68.7784C39.9326 67.2968 39.2231 65.2225 39.2231 62.5557C39.2231 61.1728 39.4258 59.9876 39.8313 58.9011C40.2367 57.8146 40.8448 56.9256 41.6556 56.2342C42.365 55.5428 43.2772 54.9501 44.3921 54.555C45.4056 54.1599 46.5204 53.9624 47.838 53.9624C48.5475 53.9624 49.1556 54.0612 49.7637 54.1599C50.3718 54.2587 50.8785 54.3575 51.284 54.555C51.6894 54.6538 52.0948 54.8514 52.3988 54.9501C52.7029 55.0489 52.9056 55.2464 53.0069 55.2464L51.8921 58.2096C51.3853 57.9133 50.7772 57.7158 50.0677 57.5182C49.3583 57.3207 48.6488 57.2219 47.7367 57.2219C47.1285 57.2219 46.6218 57.3207 46.0137 57.5182C45.5069 57.7158 45.0002 58.0121 44.4934 58.4072C44.088 58.8023 43.6826 59.3949 43.4799 59.9876C43.1758 60.679 43.0745 61.4692 43.0745 62.3581C43.0745 63.1483 43.1758 63.8397 43.2772 64.4324C43.4799 65.1238 43.6826 65.6176 44.088 66.1115C44.4934 66.6054 45.0002 67.0005 45.6083 67.198C46.2164 67.4943 46.9258 67.5931 47.838 67.5931C48.3448 67.5931 48.8515 67.5931 49.3583 67.4943C49.7637 67.3956 50.1691 67.3956 50.4731 67.2968C50.7772 67.198 51.0813 67.0992 51.3853 67.0005C51.6894 66.9017 51.8921 66.8029 52.0948 66.7041L53.1083 69.6673C52.6015 69.9637 51.7907 70.26 50.8786 70.5563C49.9664 70.7538 48.8515 70.9514 47.534 70.9514Z" fill="#F05A28"></path><path d="M60.1011 57.9133C61.1146 57.9133 62.0268 58.0121 62.7362 58.3084C63.4457 58.506 64.0538 58.9011 64.4592 59.2961C64.8646 59.6912 65.1687 60.2839 65.3714 60.8765C65.5741 61.4692 65.6754 62.1606 65.6754 62.9508V70.26C65.1687 70.3588 64.4592 70.4575 63.5471 70.6551C62.6349 70.8526 61.52 70.8526 60.2025 70.8526C59.3917 70.8526 58.6822 70.7538 57.9727 70.6551C57.2633 70.5563 56.7565 70.26 56.2498 69.9637C55.743 69.6673 55.439 69.2722 55.1349 68.6796C54.8308 68.1857 54.7295 67.4943 54.7295 66.8029C54.7295 66.1115 54.8308 65.5189 55.1349 64.9262C55.439 64.4324 55.8444 64.0373 56.3511 63.7409C56.8579 63.4446 57.466 63.2471 58.0741 63.0495C58.6822 62.9508 59.3917 62.852 60.1011 62.852C60.6079 62.852 61.0133 62.852 61.3173 62.9508C61.7227 62.9508 61.9254 63.0495 62.2295 63.1483V62.852C62.2295 62.2594 62.0268 61.7655 61.7227 61.3704C61.3173 60.9753 60.7092 60.8765 59.7971 60.8765C59.189 60.8765 58.5808 60.8765 57.9727 60.9753C57.3646 61.0741 56.8579 61.1728 56.4525 61.3704L55.9457 58.506C56.1484 58.4072 56.4525 58.4072 56.7565 58.3084C57.0606 58.2096 57.3646 58.2096 57.77 58.1109C58.1754 58.0121 58.4795 58.0121 58.9862 58.0121C59.2903 57.9133 59.6957 57.9133 60.1011 57.9133ZM60.4052 68.1857C60.7092 68.1857 61.1146 68.1857 61.4187 68.1857C61.7227 68.1857 62.0268 68.1857 62.2295 68.087V65.4201C62.1281 65.4201 61.8241 65.3213 61.6214 65.3213C61.3173 65.3213 61.1146 65.3213 60.8106 65.3213C60.5065 65.3213 60.2025 65.3213 59.8984 65.4201C59.5944 65.4201 59.2903 65.5189 59.0876 65.6176C58.8849 65.7164 58.6822 65.914 58.5808 66.1115C58.4795 66.309 58.3781 66.5066 58.3781 66.8029C58.3781 67.3956 58.5808 67.6919 58.9862 67.9882C59.189 67.9882 59.6957 68.1857 60.4052 68.1857Z" fill="#F05A28"></path><path d="M76.5203 61.3705C76.2162 61.2717 75.8108 61.1729 75.4054 61.1729C75 61.0742 74.4933 61.0742 73.9865 61.0742C73.7838 61.0742 73.4798 61.0742 73.1757 61.1729C72.8716 61.1729 72.6689 61.2717 72.4662 61.2717V70.7539H68.9189V58.9012C69.5271 58.7036 70.3379 58.5061 71.1487 58.3085C72.0608 58.111 72.973 58.0122 74.0879 58.0122C74.2906 58.0122 74.4933 58.0122 74.7973 58.0122C75.1014 58.0122 75.3041 58.111 75.6081 58.111C75.9122 58.111 76.1149 58.2098 76.4189 58.2098C76.723 58.3085 76.9257 58.3085 77.1284 58.4073L76.5203 61.3705Z" fill="#F05A28"></path><path d="M78.2432 64.5311C78.2432 63.4446 78.4459 62.4569 78.7499 61.6667C79.054 60.8765 79.5607 60.1851 80.0675 59.5925C80.6756 58.9998 81.2837 58.6047 81.9932 58.3084C82.7026 58.0121 83.5134 57.9133 84.2229 57.9133C86.0472 57.9133 87.4661 58.4072 88.4797 59.4937C89.4932 60.5802 89.9999 62.1606 89.9999 64.2348C89.9999 64.4324 89.9999 64.6299 89.9999 64.9262C89.9999 65.1238 89.9999 65.4201 89.9999 65.6176H81.8918C81.9932 66.309 82.2972 66.9017 82.9053 67.2968C83.5134 67.6919 84.3242 67.8894 85.3378 67.8894C85.9459 67.8894 86.6553 67.7906 87.2634 67.6919C87.8715 67.5931 88.3783 67.3956 88.7837 67.2968L89.2905 70.1612C89.0878 70.26 88.8851 70.3587 88.4797 70.4575C88.1756 70.5563 87.7702 70.6551 87.3648 70.6551C86.9594 70.7538 86.554 70.7538 86.1486 70.8526C85.7432 70.8526 85.2364 70.9514 84.831 70.9514C83.7161 70.9514 82.7026 70.7538 81.8918 70.4575C81.081 70.1612 80.3715 69.6673 79.7634 69.0747C79.2567 68.4821 78.7499 67.7906 78.5472 67.0005C78.3445 66.2103 78.2432 65.4201 78.2432 64.5311ZM86.6553 63.1483C86.6553 62.852 86.554 62.5557 86.4526 62.2593C86.3513 61.963 86.2499 61.7655 86.0472 61.4692C85.8445 61.2716 85.6418 61.0741 85.3378 60.9753C85.0337 60.8765 84.7297 60.7777 84.3242 60.7777C83.9188 60.7777 83.6148 60.8765 83.3107 60.9753C83.0067 61.0741 82.804 61.2716 82.6013 61.4692C82.3986 61.6667 82.2972 61.963 82.1959 62.2593C82.0945 62.5557 81.9932 62.852 81.9932 63.1483H86.6553Z" fill="#F05A28"></path><path d="M10.6732 76.9451C10.873 76.6495 10.9728 76.4524 11.0727 76.1568C11.1725 75.8611 11.3723 75.664 11.4721 75.3684H12.3709C12.1711 75.7626 11.9714 76.1568 11.7717 76.551C11.572 76.9451 11.3723 77.3393 11.0727 77.635V79.0146H10.2738V77.635C10.0741 77.2408 9.77448 76.8466 9.57475 76.551C9.37503 76.1568 9.17531 75.7626 8.97559 75.3684H9.9742C10.0741 75.664 10.1739 75.8611 10.3736 76.1568C10.3736 76.4524 10.5734 76.6495 10.6732 76.9451Z" fill="#F05A28"></path><path d="M14.9675 77.6349C14.9675 77.832 14.9675 78.0291 14.8676 78.2262C14.7678 78.4233 14.6679 78.5218 14.5681 78.7189C14.4682 78.8175 14.2685 78.916 14.1686 79.0146C13.9689 79.1131 13.7692 79.1131 13.5694 79.1131C13.3697 79.1131 13.17 79.1131 12.9703 79.0146C12.7706 78.916 12.6707 78.8175 12.5708 78.7189C12.471 78.6204 12.3711 78.4233 12.2712 78.2262C12.1714 78.0291 12.1714 77.832 12.1714 77.6349C12.1714 77.4378 12.1714 77.2407 12.2712 77.0436C12.3711 76.8466 12.471 76.748 12.5708 76.5509C12.6707 76.4524 12.8704 76.3538 12.9703 76.2553C13.17 76.1567 13.3697 76.1567 13.5694 76.1567C13.7692 76.1567 13.9689 76.1567 14.1686 76.2553C14.3683 76.3538 14.4682 76.4524 14.5681 76.5509C14.6679 76.6495 14.7678 76.8466 14.8676 77.0436C14.9675 77.2407 14.9675 77.4378 14.9675 77.6349ZM14.1686 77.6349C14.1686 77.4378 14.1686 77.2407 14.0688 77.0436C13.9689 76.9451 13.869 76.8466 13.6693 76.8466C13.4696 76.8466 13.3697 76.9451 13.2699 77.0436C13.17 77.1422 13.0701 77.3393 13.0701 77.6349C13.0701 77.832 13.0701 78.0291 13.2699 78.2262C13.3697 78.3247 13.4696 78.4233 13.6693 78.4233C13.869 78.4233 13.9689 78.3247 14.0688 78.2262C14.1686 78.1276 14.1686 77.9306 14.1686 77.6349Z" fill="#F05A28"></path><path d="M18.0629 79.0145C17.9631 79.0145 17.7634 79.113 17.5636 79.113C17.3639 79.113 17.1642 79.2116 16.8646 79.2116C16.6649 79.2116 16.4652 79.2116 16.2654 79.113C16.0657 79.0145 15.9659 78.9159 15.866 78.8174C15.7661 78.7188 15.6663 78.5218 15.6663 78.4232C15.6663 78.2261 15.5664 78.1276 15.5664 77.9305V76.3538H16.3653V77.8319C16.3653 78.1276 16.3653 78.2261 16.4652 78.4232C16.565 78.5218 16.6649 78.6203 16.8646 78.6203C16.9645 78.6203 16.9645 78.6203 17.0643 78.6203C17.1642 78.6203 17.1642 78.6203 17.264 78.6203V76.4523H18.0629V79.0145Z" fill="#F05A28"></path><path d="M20.4596 76.9451C20.3598 76.9451 20.2599 76.9451 20.16 76.8466C20.0602 76.8466 19.9603 76.8466 19.8604 76.8466C19.7606 76.8466 19.7606 76.8466 19.6607 76.8466C19.5609 76.8466 19.5609 76.8466 19.461 76.8466V79.0146H18.6621V76.3538C18.762 76.3538 18.9617 76.2553 19.1614 76.2553C19.3611 76.2553 19.5609 76.1567 19.8604 76.1567C19.8604 76.1567 19.9603 76.1567 20.0602 76.1567C20.16 76.1567 20.16 76.1567 20.2599 76.1567C20.3598 76.1567 20.3598 76.1567 20.4596 76.1567C20.5595 76.1567 20.5595 76.1567 20.6593 76.1567L20.4596 76.9451Z" fill="#F05A28"></path><path d="M24.9533 77.6348C24.9533 77.8319 24.9533 78.029 24.8535 78.2261C24.7536 78.4232 24.6537 78.5218 24.5539 78.7188C24.454 78.8174 24.2543 78.9159 24.0546 79.0145C23.8549 79.113 23.6551 79.113 23.4554 79.113C23.3555 79.113 23.2557 79.113 23.1558 79.113C23.056 79.113 22.9561 79.113 22.8562 79.113C22.7564 79.113 22.6565 79.113 22.5567 79.0145C22.4568 79.0145 22.3569 79.0145 22.3569 78.9159V75.0727L23.1558 74.9741V76.3538C23.2557 76.3538 23.3555 76.2552 23.4554 76.2552C23.5553 76.2552 23.6551 76.2552 23.755 76.2552C23.9547 76.2552 24.1544 76.2552 24.2543 76.3538C24.454 76.4523 24.5539 76.5508 24.6537 76.6494C24.7536 76.7479 24.8535 76.945 24.8535 77.1421C24.9533 77.2407 24.9533 77.4378 24.9533 77.6348ZM24.1544 77.6348C24.1544 77.1421 23.9547 76.8465 23.5553 76.8465C23.4554 76.8465 23.3555 76.8465 23.3555 76.8465C23.2557 76.8465 23.2557 76.8465 23.1558 76.945V78.4232C23.1558 78.4232 23.2557 78.4232 23.3555 78.4232C23.4554 78.4232 23.4554 78.4232 23.5553 78.4232C23.755 78.4232 23.9547 78.3247 24.0546 78.2261C24.0546 78.1276 24.1544 77.9305 24.1544 77.6348Z" fill="#F05A28"></path><path d="M27.2501 76.9451C27.1503 76.9451 27.0504 76.9451 26.9506 76.8466C26.8507 76.8466 26.7508 76.8466 26.651 76.8466C26.5511 76.8466 26.5511 76.8466 26.4512 76.8466C26.3514 76.8466 26.3514 76.8466 26.2515 76.8466V79.0146H25.4526V76.3538C25.5525 76.3538 25.7522 76.2553 25.9519 76.2553C26.1517 76.2553 26.3514 76.1567 26.651 76.1567C26.651 76.1567 26.7508 76.1567 26.8507 76.1567C26.9506 76.1567 26.9506 76.1567 27.0504 76.1567C27.1503 76.1567 27.1503 76.1567 27.2501 76.1567C27.35 76.1567 27.35 76.1567 27.4499 76.1567L27.2501 76.9451Z" fill="#F05A28"></path><path d="M28.7479 76.2551C28.9476 76.2551 29.1473 76.2551 29.3471 76.3537C29.5468 76.4522 29.6466 76.4522 29.7465 76.5508C29.8464 76.6493 29.9462 76.7478 29.9462 76.9449C29.9462 77.0435 30.0461 77.2406 30.0461 77.4377V79.1129C29.9462 79.1129 29.7465 79.2115 29.5468 79.2115C29.3471 79.2115 29.0475 79.31 28.8477 79.31C28.648 79.31 28.5482 79.31 28.3484 79.31C28.2486 79.31 28.0489 79.2115 27.949 79.1129C27.8491 79.0144 27.7493 78.9158 27.7493 78.8173C27.6494 78.7188 27.6494 78.5217 27.6494 78.4231C27.6494 78.226 27.6494 78.1275 27.7493 78.0289C27.8491 77.9304 27.949 77.8318 28.0489 77.7333C28.1487 77.6348 28.2486 77.6348 28.4483 77.6348C28.5482 77.6348 28.7479 77.6348 28.8477 77.6348C28.9476 77.6348 29.0475 77.6348 29.1473 77.6348C29.2472 77.6348 29.2472 77.6348 29.3471 77.6348V77.5362C29.3471 77.4377 29.3471 77.3391 29.2472 77.2406C29.1473 77.142 29.0475 77.142 28.8477 77.142C28.7479 77.142 28.5482 77.142 28.4483 77.142C28.3484 77.142 28.2486 77.142 28.1487 77.2406L28.0489 76.6493C28.0489 76.6493 28.1487 76.6493 28.2486 76.6493C28.3484 76.6493 28.3484 76.6493 28.4483 76.6493C28.5482 76.6493 28.648 76.6493 28.7479 76.6493C28.648 76.2551 28.7479 76.2551 28.7479 76.2551ZM28.8477 78.5217C28.9476 78.5217 29.0475 78.5217 29.0475 78.5217C29.1473 78.5217 29.1473 78.5217 29.2472 78.5217V77.9304H29.1473C29.0475 77.9304 29.0475 77.9304 28.9476 77.9304C28.8477 77.9304 28.8478 77.9304 28.7479 77.9304C28.648 77.9304 28.648 77.9304 28.5482 78.0289L28.4483 78.1275C28.4483 78.1275 28.4483 78.226 28.4483 78.3246C28.4483 78.4231 28.4483 78.5217 28.5482 78.6202C28.5482 78.5217 28.7479 78.5217 28.8477 78.5217Z" fill="#F05A28"></path><path d="M30.7451 76.3538C30.845 76.3538 31.0447 76.2553 31.2444 76.2553C31.4441 76.2553 31.6439 76.1567 31.9435 76.1567C32.1432 76.1567 32.3429 76.1567 32.5426 76.2553C32.7423 76.3538 32.8422 76.4524 32.9421 76.5509C33.0419 76.6495 33.1418 76.8466 33.1418 76.9451C33.1418 77.1422 33.2416 77.2407 33.2416 77.4378V79.0146H32.4428V77.5364C32.4428 77.2407 32.4428 77.1422 32.3429 77.0436C32.243 76.9451 32.1432 76.8466 31.9435 76.8466C31.8436 76.8466 31.8436 76.8466 31.7437 76.8466C31.6439 76.8466 31.6439 76.8466 31.544 76.8466V79.0146H30.7451V76.3538Z" fill="#F05A28"></path><path d="M36.4377 79.0145C36.3378 79.0145 36.238 79.0145 36.238 79.113C36.238 79.2116 36.0383 79.113 35.9384 79.2116C35.8385 79.2116 35.7387 79.2116 35.6388 79.2116C35.539 79.2116 35.4391 79.2116 35.3392 79.2116C35.1395 79.2116 34.9398 79.2116 34.7401 79.113C34.5403 79.0145 34.4405 78.9159 34.2408 78.8174C34.1409 78.7188 34.041 78.5217 33.9412 78.3247C33.8413 78.1276 33.8413 77.9305 33.8413 77.7334C33.8413 77.5363 33.8413 77.3392 33.9412 77.1421C34.041 76.945 34.041 76.8465 34.1409 76.6494C34.2408 76.5508 34.3406 76.4523 34.5403 76.3538C34.7401 76.2552 34.8399 76.2552 35.0396 76.2552C35.1395 76.2552 35.2394 76.2552 35.3392 76.2552C35.4391 76.2552 35.539 76.3538 35.6388 76.3538V75.0727L36.4377 74.9741V79.0145ZM34.5403 77.6348C34.5403 77.8319 34.6402 78.029 34.7401 78.2261C34.8399 78.4232 35.0396 78.4232 35.2394 78.4232C35.3392 78.4232 35.3392 78.4232 35.4391 78.4232C35.539 78.4232 35.539 78.4232 35.6388 78.4232V76.945C35.539 76.945 35.539 76.8465 35.4391 76.8465C35.3392 76.8465 35.2394 76.8465 35.2394 76.8465C34.7401 76.945 34.5403 77.1421 34.5403 77.6348Z" fill="#F05A28"></path><path d="M39.2337 78.5217C39.3336 78.5217 39.5333 78.5217 39.5333 78.5217C39.6332 78.5217 39.6332 78.4231 39.6332 78.3246C39.6332 78.226 39.6332 78.226 39.5333 78.1275C39.4335 78.1275 39.3336 78.0289 39.1339 77.9304C39.034 77.9304 38.9341 77.8318 38.8343 77.8318C38.7344 77.8318 38.6346 77.7333 38.5347 77.6348C38.4348 77.5362 38.4348 77.4377 38.335 77.3391C38.335 77.2406 38.2351 77.142 38.2351 77.0435C38.2351 76.7479 38.335 76.5508 38.5347 76.4522C38.7344 76.2551 39.034 76.2551 39.3336 76.2551C39.5333 76.2551 39.6332 76.2551 39.8329 76.2551C40.0326 76.2551 40.1325 76.3537 40.2323 76.3537L40.1325 76.9449C40.0326 76.9449 39.9328 76.8464 39.8329 76.8464C39.733 76.8464 39.6332 76.8464 39.4335 76.8464C39.1339 76.8464 39.034 76.9449 39.034 77.0435V77.142C39.034 77.142 39.034 77.142 39.1339 77.2406C39.1339 77.2406 39.2337 77.2406 39.2337 77.3391C39.3336 77.3391 39.3336 77.4377 39.4335 77.4377C39.6332 77.5362 39.733 77.5362 39.8329 77.6348C39.9328 77.7333 40.0326 77.7333 40.1325 77.8318C40.2323 77.9304 40.2323 78.0289 40.2323 78.0289C40.2323 78.1275 40.2323 78.226 40.2323 78.3246C40.2323 78.6202 40.1325 78.8173 39.9328 78.9158C39.733 79.0144 39.4335 79.1129 39.034 79.1129C38.7344 79.1129 38.5347 79.1129 38.4348 79.0144C38.2351 79.0144 38.1353 78.9158 38.1353 78.9158L38.2351 78.3246C38.335 78.4231 38.5347 78.4231 38.6346 78.4231C38.9341 78.5217 39.1339 78.5217 39.2337 78.5217Z" fill="#F05A28"></path><path d="M42.1297 79.113C41.93 79.113 41.7303 79.113 41.5306 79.0145C41.4307 79.0145 41.231 78.9159 41.231 78.8174C41.1311 78.7188 41.1311 78.6203 41.0312 78.5218C41.0312 78.4232 41.0312 78.2261 41.0312 78.1276V75.0727L41.8301 74.9741V78.029C41.8301 78.1276 41.8301 78.1276 41.8301 78.2261C41.8301 78.3247 41.8301 78.3247 41.93 78.3247L42.0299 78.4232C42.1297 78.4232 42.1297 78.4232 42.2296 78.4232L42.1297 79.113Z" fill="#F05A28"></path><path d="M45.3249 77.6349C45.3249 77.832 45.3249 78.0291 45.2251 78.2262C45.1252 78.4233 45.0253 78.5218 44.9255 78.7189C44.8256 78.8175 44.6259 78.916 44.526 79.0146C44.3263 79.1131 44.1266 79.1131 43.9269 79.1131C43.7271 79.1131 43.5274 79.1131 43.3277 79.0146C43.128 78.916 43.0281 78.8175 42.9283 78.7189C42.8284 78.6204 42.7285 78.4233 42.6287 78.2262C42.5288 78.0291 42.5288 77.832 42.5288 77.6349C42.5288 77.4378 42.5288 77.2407 42.6287 77.0436C42.7285 76.8466 42.8284 76.748 42.9283 76.5509C43.0281 76.4524 43.2278 76.3538 43.3277 76.2553C43.5274 76.1567 43.7271 76.1567 43.9269 76.1567C44.1266 76.1567 44.3263 76.1567 44.526 76.2553C44.7258 76.3538 44.8256 76.4524 44.9255 76.5509C45.0253 76.6495 45.1252 76.8466 45.2251 77.0436C45.3249 77.2407 45.3249 77.4378 45.3249 77.6349ZM44.526 77.6349C44.526 77.4378 44.526 77.2407 44.4262 77.0436C44.3263 76.9451 44.2265 76.8466 44.0267 76.8466C43.827 76.8466 43.7271 76.9451 43.6273 77.0436C43.5274 77.1422 43.4276 77.3393 43.4276 77.6349C43.4276 77.832 43.4276 78.0291 43.6273 78.2262C43.7271 78.3247 43.827 78.4233 44.0267 78.4233C44.2265 78.4233 44.3263 78.3247 44.4262 78.2262C44.526 78.1276 44.526 77.9306 44.526 77.6349Z" fill="#F05A28"></path><path d="M48.4209 78.7188C48.4209 79.2115 48.321 79.5072 48.0214 79.7043C47.8217 79.9014 47.4223 79.9999 46.9229 79.9999C46.7232 79.9999 46.6234 79.9999 46.4236 79.9999C46.2239 79.9999 46.1241 79.9014 45.9243 79.9014L46.0242 79.2115C46.1241 79.2115 46.3238 79.3101 46.4236 79.3101C46.5235 79.3101 46.7232 79.3101 46.9229 79.3101C47.1227 79.3101 47.3224 79.3101 47.4223 79.113C47.5221 79.0145 47.5221 78.9159 47.5221 78.7188V78.6203C47.4223 78.6203 47.3224 78.7188 47.2225 78.7188C47.1227 78.7188 47.0228 78.7188 46.9229 78.7188C46.5235 78.7188 46.2239 78.6203 46.0242 78.4232C45.8245 78.2261 45.7246 77.8319 45.7246 77.4377C45.7246 77.2406 45.7246 77.0436 45.8245 76.8465C45.9243 76.6494 46.0242 76.5508 46.1241 76.4523C46.2239 76.3537 46.4236 76.2552 46.6234 76.1566C46.8231 76.0581 47.0228 76.0581 47.2225 76.0581C47.3224 76.0581 47.4223 76.0581 47.5221 76.0581C47.622 76.0581 47.7218 76.0581 47.8217 76.0581C47.9216 76.0581 48.0214 76.0581 48.1213 76.1566C48.2211 76.1566 48.321 76.1566 48.321 76.2552V78.7188H48.4209ZM46.6234 77.6348C46.6234 78.029 46.8231 78.3246 47.1227 78.3246C47.2225 78.3246 47.3224 78.3246 47.3224 78.3246C47.4222 78.3246 47.4223 78.3246 47.5221 78.2261V76.945H47.4223C47.3224 76.945 47.3224 76.945 47.2225 76.945C47.0228 76.945 46.8231 77.0436 46.7232 77.1421C46.7232 77.2406 46.6234 77.3392 46.6234 77.6348Z" fill="#F05A28"></path><path d="M50.2186 76.2551C50.4183 76.2551 50.618 76.2551 50.8178 76.3537C51.0175 76.4522 51.1173 76.4522 51.2172 76.5508C51.3171 76.6493 51.4169 76.7478 51.4169 76.9449C51.4169 77.0435 51.5168 77.2406 51.5168 77.4377V79.1129C51.4169 79.1129 51.2172 79.2115 51.0175 79.2115C50.8178 79.2115 50.5182 79.31 50.3185 79.31C50.1187 79.31 50.0189 79.31 49.8191 79.31C49.7193 79.31 49.5196 79.2115 49.4197 79.1129C49.3198 79.0144 49.22 78.9158 49.22 78.8173C49.1201 78.7188 49.1201 78.5217 49.1201 78.4231C49.1201 78.226 49.1201 78.1275 49.22 78.0289C49.3198 77.9304 49.4197 77.8318 49.5196 77.7333C49.6194 77.6348 49.7193 77.6348 49.919 77.6348C50.0189 77.6348 50.2186 77.6348 50.3185 77.6348C50.4183 77.6348 50.5182 77.6348 50.618 77.6348C50.7179 77.6348 50.7179 77.6348 50.8178 77.6348V77.5362C50.8178 77.4377 50.8178 77.3391 50.7179 77.2406C50.618 77.142 50.5182 77.142 50.3185 77.142C50.2186 77.142 50.0189 77.142 49.919 77.142C49.8191 77.142 49.7193 77.142 49.6194 77.2406L49.5196 76.6493C49.5196 76.6493 49.6194 76.6493 49.7193 76.6493C49.8191 76.6493 49.8191 76.6493 49.919 76.6493C50.0189 76.6493 50.1187 76.6493 50.2186 76.6493C50.0189 76.2551 50.1187 76.2551 50.2186 76.2551ZM50.2186 78.5217C50.3185 78.5217 50.4183 78.5217 50.4183 78.5217C50.5182 78.5217 50.5182 78.5217 50.618 78.5217V77.9304H50.5182C50.4183 77.9304 50.4183 77.9304 50.3185 77.9304C50.2186 77.9304 50.2186 77.9304 50.1187 77.9304C50.0189 77.9304 50.0189 77.9304 49.919 78.0289L49.8191 78.1275C49.8191 78.1275 49.8191 78.226 49.8191 78.3246C49.8191 78.4231 49.8191 78.5217 49.919 78.6202C50.0189 78.5217 50.1187 78.5217 50.2186 78.5217Z" fill="#F05A28"></path><path d="M52.1157 76.3538C52.2156 76.3538 52.4153 76.2553 52.615 76.2553C52.8148 76.2553 53.0145 76.1567 53.3141 76.1567C53.5138 76.1567 53.7135 76.1567 53.9132 76.2553C54.113 76.3538 54.2128 76.4524 54.3127 76.5509C54.4125 76.6495 54.5124 76.8466 54.5124 76.9451C54.5124 77.1422 54.6123 77.2407 54.6123 77.4378V79.0146H53.8134V77.5364C53.8134 77.2407 53.8134 77.1422 53.7135 77.0436C53.6136 76.9451 53.5138 76.8466 53.3141 76.8466C53.2142 76.8466 53.2142 76.8466 53.1143 76.8466C53.0145 76.8466 53.0145 76.8466 52.9146 76.8466V79.0146H52.1157V76.3538Z" fill="#F05A28"></path><path d="M59.0063 78.7188C59.0063 79.2115 58.9065 79.5072 58.6069 79.7043C58.4071 79.9014 58.0077 79.9999 57.5084 79.9999C57.3087 79.9999 57.2088 79.9999 57.0091 79.9999C56.8094 79.9999 56.7095 79.9014 56.5098 79.9014L56.6096 79.2115C56.7095 79.2115 56.9092 79.3101 57.0091 79.3101C57.1089 79.3101 57.3087 79.3101 57.5084 79.3101C57.7081 79.3101 57.9078 79.3101 58.0077 79.113C58.1076 79.0145 58.1076 78.9159 58.1076 78.7188V78.6203C58.0077 78.6203 57.9078 78.7188 57.808 78.7188C57.7081 78.7188 57.6083 78.7188 57.5084 78.7188C57.1089 78.7188 56.8094 78.6203 56.6096 78.4232C56.4099 78.2261 56.3101 77.8319 56.3101 77.4377C56.3101 77.2406 56.3101 77.0436 56.4099 76.8465C56.5098 76.6494 56.6096 76.5508 56.7095 76.4523C56.8094 76.3537 57.0091 76.2552 57.2088 76.1566C57.4085 76.0581 57.6083 76.0581 57.808 76.0581C57.9078 76.0581 58.0077 76.0581 58.1076 76.0581C58.2074 76.0581 58.3073 76.0581 58.4071 76.0581C58.507 76.0581 58.6069 76.0581 58.7067 76.1566C58.8066 76.1566 58.9065 76.1566 58.9065 76.2552V78.7188H59.0063ZM57.2088 77.6348C57.2088 78.029 57.4085 78.3246 57.7081 78.3246C57.808 78.3246 57.9078 78.3246 57.9078 78.3246C58.0077 78.3246 58.0077 78.3246 58.1076 78.2261V76.945H58.0077C57.9078 76.945 57.9078 76.945 57.808 76.945C57.6083 76.945 57.4085 77.0436 57.3087 77.1421C57.3087 77.2406 57.2088 77.3392 57.2088 77.6348Z" fill="#F05A28"></path><path d="M62.4016 77.6349C62.4016 77.832 62.4016 78.0291 62.3017 78.2262C62.2019 78.4233 62.102 78.5218 62.0021 78.7189C61.9023 78.8175 61.7026 78.916 61.6027 79.0146C61.403 79.1131 61.2033 79.1131 61.0035 79.1131C60.8038 79.1131 60.6041 79.1131 60.4044 79.0146C60.2046 78.916 60.1048 78.8175 60.0049 78.7189C59.9051 78.6204 59.8052 78.4233 59.7053 78.2262C59.6055 78.0291 59.6055 77.832 59.6055 77.6349C59.6055 77.4378 59.6055 77.2407 59.7053 77.0436C59.8052 76.8466 59.9051 76.748 60.0049 76.5509C60.1048 76.4524 60.3045 76.3538 60.4044 76.2553C60.6041 76.1567 60.8038 76.1567 61.0035 76.1567C61.2033 76.1567 61.403 76.1567 61.6027 76.2553C61.8024 76.3538 61.9023 76.4524 62.0021 76.5509C62.102 76.6495 62.2019 76.8466 62.3017 77.0436C62.4016 77.2407 62.4016 77.4378 62.4016 77.6349ZM61.6027 77.6349C61.6027 77.4378 61.6027 77.2407 61.5028 77.0436C61.403 76.8466 61.3031 76.8466 61.1034 76.8466C60.9037 76.8466 60.8038 76.9451 60.7039 77.0436C60.6041 77.1422 60.5042 77.3393 60.5042 77.6349C60.5042 77.832 60.5042 78.0291 60.7039 78.2262C60.8038 78.3247 60.9037 78.4233 61.1034 78.4233C61.3031 78.4233 61.403 78.3247 61.5028 78.2262C61.5028 78.1276 61.6027 77.9306 61.6027 77.6349Z" fill="#F05A28"></path><path d="M62.9009 77.7335C62.9009 77.4378 62.9009 77.2407 63.0008 77.0436C63.1006 76.8466 63.2005 76.748 63.3003 76.5509C63.4002 76.4524 63.5999 76.3538 63.6998 76.2553C63.8995 76.1567 63.9994 76.1567 64.1991 76.1567C64.5985 76.1567 64.8981 76.2553 65.1977 76.5509C65.3974 76.748 65.4973 77.1422 65.4973 77.6349C65.4973 77.6349 65.4973 77.7335 65.4973 77.832C65.4973 77.9305 65.4973 77.9305 65.4973 77.9305H63.6998C63.6998 78.1276 63.7996 78.2262 63.8995 78.3247C63.9994 78.4233 64.1991 78.4233 64.3988 78.4233C64.4987 78.4233 64.6984 78.4233 64.7983 78.4233C64.8981 78.4233 65.0978 78.3247 65.0978 78.3247L65.1977 79.0145C65.1977 79.0145 65.0978 79.0145 64.998 79.1131C64.8981 79.1131 64.7983 79.1131 64.7983 79.2116C64.6984 79.2116 64.5985 79.2116 64.4987 79.2116C64.3988 79.2116 64.299 79.2116 64.1991 79.2116C63.8995 79.2116 63.6998 79.2116 63.5001 79.1131C63.3003 79.0145 63.2005 78.916 63.0008 78.8175C62.9009 78.7189 62.801 78.5218 62.7012 78.3247C62.9009 78.1276 62.9009 77.9306 62.9009 77.7335ZM64.7983 77.4378C64.7983 77.3393 64.7983 77.3393 64.7983 77.2407C64.7983 77.1422 64.7983 77.1422 64.6984 77.0436C64.6984 77.0436 64.5985 76.9451 64.4987 76.9451C64.3988 76.9451 64.3988 76.9451 64.299 76.9451C64.1991 76.9451 64.0992 76.9451 64.0992 76.9451C63.9994 76.9451 63.9994 77.0436 63.8995 77.0436C63.8995 77.0436 63.7996 77.1422 63.7996 77.2407C63.7996 77.3393 63.7996 77.3393 63.6998 77.4378H64.7983Z" fill="#F05A28"></path><path d="M66.995 78.5217C67.0948 78.5217 67.2945 78.5217 67.2945 78.5217C67.3944 78.5217 67.3944 78.4231 67.3944 78.3246C67.3944 78.226 67.3944 78.226 67.2945 78.1275C67.1947 78.1275 67.0948 78.0289 66.8951 77.9304C66.7952 77.9304 66.6954 77.8318 66.5955 77.8318C66.4956 77.8318 66.3958 77.7333 66.2959 77.6348C66.1961 77.5362 66.1961 77.4377 66.0962 77.3391C66.0962 77.2406 65.9963 77.142 65.9963 77.0435C65.9963 76.7479 66.0962 76.5508 66.2959 76.4522C66.4957 76.2551 66.7952 76.2551 67.0948 76.2551C67.2945 76.2551 67.3944 76.2551 67.5941 76.2551C67.7938 76.2551 67.8937 76.3537 67.9936 76.3537L67.8937 76.9449C67.7938 76.9449 67.694 76.8464 67.5941 76.8464C67.4943 76.8464 67.3944 76.8464 67.1947 76.8464C66.8951 76.8464 66.7952 76.9449 66.7952 77.0435V77.142C66.7952 77.142 66.7952 77.142 66.8951 77.2406C66.8951 77.2406 66.995 77.2406 66.995 77.3391C67.0948 77.3391 67.0948 77.4377 67.1947 77.4377C67.3944 77.5362 67.4943 77.5362 67.5941 77.6348C67.694 77.7333 67.7938 77.7333 67.8937 77.8318C67.9936 77.9304 67.9936 78.0289 67.9936 78.0289C67.9936 78.1275 67.9936 78.226 67.9936 78.3246C67.9936 78.6202 67.8937 78.8173 67.694 78.9158C67.4943 79.0144 67.1947 79.1129 66.7952 79.1129C66.4957 79.1129 66.2959 79.1129 66.1961 79.0144C65.9963 79.0144 65.8965 78.9158 65.8965 78.9158L65.9963 78.3246C66.0962 78.4231 66.2959 78.4231 66.3958 78.4231C66.6954 78.5217 66.7952 78.5217 66.995 78.5217Z" fill="#F05A28"></path><path d="M69.9907 79.1131V75.1713L70.7896 75.0728V76.4524C70.8895 76.4524 70.8895 76.4524 70.9893 76.3538C71.0892 76.3538 71.1891 76.3538 71.1891 76.3538C71.3888 76.3538 71.5885 76.3538 71.7882 76.4524C71.988 76.5509 72.0878 76.6495 72.1877 76.748C72.2875 76.8466 72.3874 77.0437 72.3874 77.1422C72.3874 77.3393 72.4873 77.4378 72.4873 77.6349V79.2116H71.6884V77.7335C71.6884 77.4378 71.6884 77.3393 71.5885 77.2407C71.4886 77.1422 71.3888 77.0437 71.1891 77.0437C71.0892 77.0437 71.0892 77.0437 70.9893 77.0437C70.8895 77.0437 70.8895 77.0437 70.7896 77.0437V79.1131H69.9907Z" fill="#F05A28"></path><path d="M73.0864 77.7335C73.0864 77.4378 73.0864 77.2407 73.1863 77.0436C73.2862 76.8466 73.386 76.748 73.4859 76.5509C73.5857 76.4524 73.7855 76.3538 73.8853 76.2553C74.0851 76.1567 74.1849 76.1567 74.3846 76.1567C74.7841 76.1567 75.0837 76.2553 75.3833 76.5509C75.583 76.748 75.6828 77.1422 75.6828 77.6349C75.6828 77.6349 75.6828 77.7335 75.6828 77.832C75.6828 77.9305 75.6828 77.9305 75.6828 77.9305H73.8853C73.8853 78.1276 73.9852 78.2262 74.0851 78.3247C74.1849 78.4233 74.3846 78.4233 74.5844 78.4233C74.6842 78.4233 74.8839 78.4233 74.9838 78.4233C75.0837 78.4233 75.2834 78.3247 75.2834 78.3247L75.3833 79.0145C75.3833 79.0145 75.2834 79.0145 75.1835 79.1131C75.0837 79.1131 74.9838 79.1131 74.9838 79.2116C74.8839 79.2116 74.7841 79.2116 74.6842 79.2116C74.5844 79.2116 74.4845 79.2116 74.3846 79.2116C74.0851 79.2116 73.8853 79.2116 73.6856 79.1131C73.4859 79.0145 73.386 78.916 73.1863 78.8175C73.0864 78.7189 72.9866 78.5218 72.8867 78.3247C73.0864 78.1276 73.0864 77.9306 73.0864 77.7335ZM74.8839 77.4378C74.8839 77.3393 74.8839 77.3393 74.8839 77.2407C74.8839 77.1422 74.8839 77.1422 74.7841 77.0436C74.7841 77.0436 74.6842 76.9451 74.5844 76.9451C74.4845 76.9451 74.4845 76.9451 74.3846 76.9451C74.2848 76.9451 74.1849 76.9451 74.1849 76.9451C74.085 76.9451 74.0851 77.0436 73.9852 77.0436C73.9852 77.0436 73.8853 77.1422 73.8853 77.2407C73.8853 77.3393 73.8853 77.3393 73.7855 77.4378H74.8839Z" fill="#F05A28"></path><path d="M77.9796 76.9451C77.8798 76.9451 77.7799 76.9451 77.68 76.8466C77.5802 76.8466 77.4803 76.8466 77.3805 76.8466C77.2806 76.8466 77.2806 76.8466 77.1807 76.8466C77.0809 76.8466 77.0809 76.8466 76.981 76.8466V79.0146H76.1821V76.3538C76.282 76.3538 76.4817 76.2553 76.6814 76.2553C76.8812 76.2553 77.0809 76.1567 77.3805 76.1567C77.3805 76.1567 77.4803 76.1567 77.5802 76.1567C77.68 76.1567 77.6801 76.1567 77.7799 76.1567C77.8798 76.1567 77.8798 76.1567 77.9796 76.1567C78.0795 76.1567 78.0795 76.1567 78.1794 76.1567L77.9796 76.9451Z" fill="#F05A28"></path><path d="M78.3794 77.7335C78.3794 77.4378 78.3794 77.2407 78.4793 77.0436C78.5791 76.8466 78.679 76.748 78.7789 76.5509C78.8787 76.4524 79.0784 76.3538 79.1783 76.2553C79.378 76.1567 79.4779 76.1567 79.6776 76.1567C80.0771 76.1567 80.3766 76.2553 80.6762 76.5509C80.8759 76.748 80.9758 77.1422 80.9758 77.6349C80.9758 77.6349 80.9758 77.7335 80.9758 77.832C80.9758 77.9305 80.9758 77.9305 80.9758 77.9305H79.1783C79.1783 78.1276 79.2782 78.2262 79.378 78.3247C79.4779 78.4233 79.6776 78.4233 79.8773 78.4233C79.9772 78.4233 80.1769 78.4233 80.2768 78.4233C80.3766 78.4233 80.5764 78.3247 80.5764 78.3247L80.6762 79.0145C80.6762 79.0145 80.5764 79.0145 80.4765 79.1131C80.3766 79.1131 80.2768 79.1131 80.2768 79.2116C80.1769 79.2116 80.0771 79.2116 79.9772 79.2116C79.8773 79.2116 79.7775 79.2116 79.6776 79.2116C79.378 79.2116 79.1783 79.2116 78.9786 79.1131C78.7789 79.0145 78.679 78.916 78.4793 78.8175C78.3794 78.7189 78.2795 78.5218 78.1797 78.3247C78.3794 78.1276 78.3794 77.9306 78.3794 77.7335ZM80.2768 77.4378C80.2768 77.3393 80.2768 77.3393 80.2768 77.2407C80.2768 77.1422 80.2768 77.1422 80.1769 77.0436C80.1769 77.0436 80.0771 76.9451 79.9772 76.9451C79.8773 76.9451 79.8773 76.9451 79.7775 76.9451C79.6776 76.9451 79.5777 76.9451 79.5777 76.9451C79.4779 76.9451 79.4779 77.0436 79.378 77.0436C79.378 77.0436 79.2782 77.1422 79.2782 77.2407C79.2782 77.3393 79.2782 77.3393 79.1783 77.4378H80.2768Z" fill="#F05A28"></path></svg>