<svg xmlns="http://www.w3.org/2000/svg" width="110" height="80" viewBox="0 0 110 80" fill="none"><path d="M56.3452 27.4291C56.3452 29.4966 57.3528 31.2328 58.4176 33.0604C59.2534 34.4882 60.1006 35.9503 60.4441 37.6065C61.0509 37.8693 61.6921 37.5608 62.505 36.1559C64.1423 33.3345 63.1004 30.0563 60.3983 27.4405C58.4519 25.5444 57.536 23.8995 57.181 23.1228C57.1467 23.2827 57.1009 23.4312 57.0665 23.5797C56.6887 25.1674 56.3452 26.5381 56.3452 27.4291Z" fill="#80BC00"></path><path d="M63.4321 2.21969C61.543 1.2602 59.1844 1.70568 57.1006 3.40763C55.6465 4.59557 53.7116 4.09298 52.1545 3.68177C51.2041 3.43048 50.1279 3.14491 49.773 3.46475C49.6699 3.55613 49.6699 3.60182 49.6699 3.63608C49.6699 3.87596 49.9562 4.29859 50.1279 4.4585C50.3454 4.67553 50.437 4.98394 50.3683 5.28092C50.1737 6.04623 50.2653 6.66305 50.6202 7.16564C51.2957 8.1137 52.8643 8.51349 53.6887 8.62772C54.2382 7.99948 55.5206 7.14279 58.4402 7.53116C61.8521 7.97663 65.2068 6.73158 65.9739 5.20097C65.4472 3.84169 64.5771 2.80224 63.4321 2.21969Z" fill="#54C0E8"></path><path d="M46.8304 10.7524C45.2618 10.0213 43.1895 9.06183 42.5025 6.5603C42.2277 6.80018 41.9415 7.15427 41.7698 7.66829C41.4835 8.75342 41.5751 10.3526 42.5712 12.6713C41.7125 11.8718 41.1286 11.1293 40.7393 10.444C39.7661 11.2435 38.2662 12.7285 38.0601 14.0763C37.9571 14.7274 37.9685 15.4242 37.9914 16.1552C38.0029 17.0005 38.0258 17.9143 37.877 18.8738C39.6974 16.5321 43.991 11.8261 48.5707 12.8998C48.4791 12.1802 48.1242 11.3463 46.8304 10.7524Z" fill="#80BC00"></path><path d="M39.9494 46.9272C40.2929 45.5908 39.7547 43.0664 38.0946 41.7186C35.736 39.7996 37.6137 37.0696 36.9725 33.7C36.4802 31.0957 33.9842 29.8849 32.7591 29.5879C32.0722 31.564 31.6943 33.6315 31.6943 35.9616C31.6943 40.1194 35.4727 44.7113 39.9494 46.9272Z" fill="#FFB71B"></path><path d="M48.6741 28.0003C48.6741 26.1385 47.8955 24.8706 47.1399 23.6484C46.4414 22.5061 45.7201 21.3182 45.8232 19.8333C45.079 20.3587 43.3157 21.9236 44.0371 24.4479C44.953 27.6006 45.5369 30.2734 44.8385 32.2038C44.266 33.803 45.8919 36.6814 47.0826 36.4873C47.0941 34.237 47.5177 33.0834 47.9299 31.9525C48.3191 30.9245 48.6741 29.9536 48.6741 28.0003Z" fill="#54C0E8"></path><path d="M73.92 23.7397C73.92 23.7397 68.2411 16.7377 68.2411 9.22166C68.2411 5.26947 66.9588 2.08259 64.2109 0.689048C61.692 -0.590272 58.635 -0.0648374 56.0131 2.07117C55.2346 2.71083 53.895 2.35673 52.6012 2.01406C51.1586 1.63712 49.6816 1.23733 48.6282 2.17397C48.1932 2.55092 47.9642 3.04208 47.9527 3.59036C47.9413 4.29856 48.3076 4.9268 48.6053 5.30374C48.4336 6.38888 48.6397 7.34837 49.2236 8.15937C50.4372 9.83847 52.9103 10.2497 53.6316 10.3411C57.9481 12.7741 56.5398 18.531 55.4063 23.18C54.9941 24.8819 54.6277 26.3554 54.6277 27.4406C54.6277 29.9763 55.7956 31.9867 56.9291 33.9285C57.9366 35.6533 58.8869 37.2868 58.8869 39.1258C58.8869 41.7415 57.1123 43.3749 54.2614 43.3749C51.2044 43.3749 48.8114 40.3708 48.8114 36.5443C48.8114 34.5682 49.1664 33.5973 49.5556 32.5578C49.9678 31.4384 50.4029 30.2733 50.4029 28.0117C50.4029 25.6701 49.4182 24.0595 48.6168 22.7573C47.9298 21.6265 47.4947 20.8726 47.5405 20.0045C48.6282 19.7189 50.8036 18.9194 51.2044 17.0689C51.3875 16.8862 51.5478 16.6463 51.6509 16.3265C51.8455 15.7325 51.4791 15.2413 51.067 14.6702C50.7578 14.2476 50.3342 13.6764 50.3228 13.2766C50.277 11.4034 49.3495 10.0327 47.552 9.21024C45.8231 8.41066 44.1859 7.65677 44.0141 5.20094C43.9912 4.94964 43.8653 4.70977 43.6592 4.5727C43.4531 4.42421 43.1897 4.37852 42.9493 4.43563C41.8158 4.72119 39.8122 6.02336 39.9038 8.94752C38.9535 9.68998 36.7094 11.6432 36.3773 13.8478C36.2514 14.6473 36.2743 15.4469 36.2857 16.2237C36.3201 17.937 36.3544 19.559 35.0836 21.5009C32.0266 26.1498 30 30.399 30 35.9846C30 42.6668 37.9459 50 45.182 50C47.9985 50 50.0022 49.5317 51.7539 49.109C54.3301 48.5036 56.3681 48.0239 60.112 49.1776C60.57 49.3146 61.0509 49.0634 61.1883 48.6065C61.3257 48.1496 61.0738 47.6698 60.6158 47.5327C56.4253 46.242 53.9637 46.8245 51.3532 47.4414C49.6014 47.8526 47.7924 48.2866 45.1705 48.2866C38.8733 48.2866 31.706 41.7301 31.706 35.9846C31.706 30.8102 33.5493 26.9608 36.5147 22.4375C38.0833 20.0502 38.0375 17.9941 38.0032 16.1894C37.9917 15.4583 37.9688 14.7616 38.0719 14.1105C38.2779 12.7626 39.7778 11.2777 40.751 10.4781C41.1403 11.1635 41.7242 11.9059 42.5829 12.7055C41.5868 10.3868 41.4952 8.79903 41.7815 7.70247C41.9532 7.18845 42.228 6.83435 42.5142 6.59448C43.2012 9.10743 45.2735 10.0669 46.8421 10.7865C48.3763 11.4947 48.5939 12.5228 48.6168 13.3452C48.6397 14.2818 49.2465 15.1157 49.693 15.7096C49.7503 15.7896 49.819 15.8696 49.8762 15.9609C49.693 16.1094 49.5785 16.3265 49.5671 16.5778C49.4984 17.7543 47.4031 18.3711 46.6704 18.4853C46.3269 18.5424 46.0521 18.7937 45.972 19.125C45.5025 20.9868 46.3498 22.3575 47.1627 23.694C47.9184 24.9162 48.6969 26.1841 48.6969 28.0459C48.6969 29.9992 48.342 30.9701 47.9642 31.9981C47.552 33.129 47.1169 34.2941 47.1169 36.5786C47.1169 41.376 50.2655 45.1226 54.2843 45.1226C58.0855 45.1226 60.6272 42.7239 60.6272 39.16C60.6272 36.8641 59.5166 34.9451 58.4404 33.0947C57.3756 31.2671 56.3681 29.5423 56.3681 27.4634C56.3681 26.5839 56.7001 25.2017 57.0894 23.614C58.2343 18.9079 59.9746 11.7917 54.3186 8.77618C54.2156 8.71907 54.1011 8.6848 53.9866 8.67338C53.3111 8.61627 51.4104 8.25074 50.6433 7.17703C50.2884 6.67444 50.1968 6.05762 50.3914 5.29232C50.4601 4.99533 50.38 4.68692 50.151 4.4699C49.9793 4.30998 49.693 3.89877 49.693 3.64748C49.693 3.61321 49.693 3.56752 49.7961 3.47614C50.151 3.15631 51.2273 3.44187 52.1776 3.69317C53.7347 4.10438 55.6696 4.61839 57.1237 3.41903C59.1961 1.71707 61.5661 1.28302 63.4553 2.23109C65.3559 3.19058 66.4779 5.37227 66.558 8.14794C65.0124 11.3006 61.3715 9.90701 61.3715 9.90701C61.3715 9.90701 63.9018 12.8197 66.5695 10.4096C67.0847 18.0741 72.5576 24.7791 72.5576 24.7791C76.8053 30.5817 79.3814 34.077 77.8472 39.6512C76.4618 44.6885 72.5461 44.1974 68.4014 43.6719L68.3098 43.6605C66.5809 43.4435 64.6231 42.5639 64.1422 41.7986C64.0506 41.6501 64.0621 41.593 64.0735 41.5702C64.1079 41.456 64.1766 41.3303 64.3941 41.2161C65.2528 40.782 67.1992 41.1704 68.2297 41.5017C68.6762 41.6501 69.1685 41.4103 69.3174 40.9648C69.4662 40.5193 69.2258 40.0282 68.7792 39.8797C68.4358 39.7654 65.4017 38.7945 63.627 39.6855C63.0431 39.971 62.6309 40.4394 62.4363 41.0333C62.3103 41.4217 62.2416 42.0271 62.6881 42.7239C63.5697 44.1174 66.1344 45.134 68.1037 45.3739L68.1953 45.3853C72.2255 45.8993 77.7327 46.5961 79.5188 40.1195C81.2248 33.7115 78.1678 29.5309 73.92 23.7397Z" fill="black"></path><path d="M72.5345 24.7562C72.5345 24.7562 71.2178 23.1457 69.821 20.6099C69.7981 22.3347 69.9469 25.1903 70.9888 26.1955C72.6261 27.7718 73.3016 31.3813 72.5688 33.2774C71.6529 35.6419 73.1069 41.2046 77.2516 41.1704C77.4806 40.7249 77.6753 40.2223 77.8356 39.6398C79.3469 34.0542 76.7822 30.5474 72.5345 24.7562Z" fill="#FFB71B"></path><path d="M3.54742 65.5363V71.9534H0V54.2451H6.77759C8.81087 54.2451 10.4115 54.7643 11.5796 55.8025C12.7476 56.8408 13.3245 58.2107 13.3245 59.8979C13.3245 61.5995 12.7476 62.955 11.5796 63.9789C10.4115 65.0027 8.81087 65.5219 6.77759 65.5219H3.54742V65.5363ZM3.54742 62.7964H6.77759C7.7726 62.7964 8.52246 62.5224 9.02718 61.9889C9.53189 61.4553 9.79146 60.7631 9.79146 59.9268C9.79146 59.076 9.53189 58.3694 9.02718 57.8214C8.52246 57.259 7.7726 56.985 6.77759 56.985H3.54742V62.7964Z" fill="black"></path><path d="M26.0001 64.1808H19.4244V69.2423H27.2402V71.9678H15.877V54.2451H27.2114V56.985H19.4244V61.4409H26.0001V64.1808Z" fill="black"></path><path d="M42.0789 56.985H37.0174V71.9678H33.4699V56.985H28.4805V54.2451H42.0789V56.985Z" fill="black"></path><path d="M63.5219 66.0987L63.5508 66.1708C63.5796 68.0599 63.0028 69.5452 61.8203 70.6123C60.6378 71.6794 59.0083 72.213 56.9174 72.213C54.7976 72.213 53.0815 71.5352 51.7693 70.1653C50.457 68.7953 49.8081 67.0361 49.8081 64.873V61.3544C49.8081 59.1913 50.4426 57.4321 51.7116 56.0621C52.9806 54.6922 54.6534 54 56.7299 54C58.893 54 60.5802 54.5336 61.7915 55.5862C63.0028 56.6389 63.594 58.1242 63.5652 60.0422L63.5363 60.1143H60.0754C60.0754 58.975 59.8015 58.1387 59.2535 57.5763C58.7055 57.0139 57.8547 56.7399 56.7155 56.7399C55.6484 56.7399 54.8264 57.1725 54.2208 58.0233C53.6295 58.8741 53.3267 59.9845 53.3267 61.34V64.873C53.3267 66.2285 53.6439 67.3533 54.264 68.2041C54.8985 69.0693 55.7637 69.4875 56.8885 69.4875C57.9556 69.4875 58.7488 69.2135 59.2679 68.6511C59.787 68.0887 60.0466 67.2379 60.0466 66.0843H63.5219V66.0987Z" fill="black"></path><path d="M75.318 68.1464H69.5787L68.3818 71.9678H64.6758L70.6458 54.2595H74.2798L80.2354 71.9678H76.5294L75.318 68.1464ZM70.4439 65.3488H74.4528L72.4916 59.1192H72.4195L70.4439 65.3488Z" fill="black"></path><path d="M85.4839 64.8874V71.9678H81.9365V54.2451H88.0652C90.0841 54.2451 91.6703 54.7066 92.8095 55.6295C93.9487 56.5524 94.5255 57.8358 94.5255 59.4797C94.5255 60.3882 94.2804 61.1669 93.8045 61.8303C93.3286 62.4936 92.622 63.0272 91.6991 63.4309C92.7518 63.7338 93.5017 64.2529 93.9487 64.9739C94.4102 65.6949 94.6409 66.589 94.6409 67.6561V68.9539C94.6409 69.4442 94.713 69.9634 94.8428 70.5113C94.9726 71.0449 95.2033 71.4487 95.535 71.7082V71.9678H91.8722C91.5405 71.7082 91.3386 71.2756 91.2521 70.6844C91.1656 70.0787 91.1079 69.5019 91.1079 68.9395V67.6849C91.1079 66.8053 90.8628 66.1131 90.3869 65.6228C89.911 65.1325 89.2188 64.8874 88.3392 64.8874H85.4839ZM85.4839 62.1475H88.0075C89.0025 62.1475 89.7524 61.9312 90.2283 61.513C90.7186 61.0948 90.9637 60.4603 90.9637 59.6384C90.9637 58.8308 90.7186 58.1819 90.2283 57.706C89.738 57.2301 89.0169 56.985 88.0652 56.985H85.4839V62.1475Z" fill="black"></path><path d="M107.937 64.1808H101.361V69.2423H109.177V71.9678H97.8135V54.2451H109.148V56.985H101.361V61.4409H107.937V64.1808Z" fill="black"></path><path d="M10.4515 76.9716L11.8214 74.2029H12.8741L10.8985 77.9089V79.8989H9.94676V77.8513L8 74.2029H9.05269L10.4515 76.9716Z" fill="black"></path><path d="M18.0799 77.5629C18.0799 78.2551 17.8636 78.8319 17.431 79.2934C16.9984 79.7548 16.4215 79.9856 15.7294 79.9856C15.0516 79.9856 14.4892 79.7548 14.071 79.2934C13.6384 78.8319 13.4365 78.2551 13.4365 77.5629V76.5391C13.4365 75.8469 13.6528 75.2701 14.071 74.8086C14.5036 74.3472 15.0516 74.1165 15.7294 74.1165C16.4215 74.1165 16.9984 74.3472 17.431 74.8086C17.8636 75.2701 18.0943 75.8469 18.0943 76.5391V77.5629H18.0799ZM17.1281 76.5391C17.1281 76.0632 16.9984 75.6739 16.7532 75.371C16.4937 75.0682 16.162 74.9096 15.7294 74.9096C15.3112 74.9096 14.9795 75.0682 14.7344 75.371C14.4892 75.6739 14.3739 76.0632 14.3739 76.5391V77.5774C14.3739 78.0532 14.4892 78.4426 14.7344 78.7598C14.9795 79.0627 15.3112 79.2213 15.7294 79.2213C16.162 79.2213 16.5081 79.0627 16.7532 78.7598C16.9984 78.457 17.1281 78.0676 17.1281 77.5774V76.5391Z" fill="black"></path><path d="M23.43 74.2029V77.9522C23.43 78.5867 23.2281 79.077 22.8099 79.4375C22.3917 79.798 21.8582 79.971 21.1948 79.971C20.5459 79.971 20.0268 79.798 19.6086 79.4375C19.2048 79.077 19.0029 78.5867 19.0029 77.9522V74.2029H19.9547V77.9522C19.9547 78.356 20.07 78.6732 20.3008 78.8895C20.5315 79.1058 20.8343 79.2212 21.1948 79.2212C21.5842 79.2212 21.887 79.1058 22.1322 78.8895C22.3629 78.6732 22.4782 78.356 22.4782 77.9522V74.2029H23.43Z" fill="black"></path><path d="M25.4918 77.534V79.8989H24.54V74.2029H26.5012C27.1357 74.2029 27.626 74.3471 27.9721 74.6355C28.3182 74.9239 28.4912 75.3277 28.4912 75.8612C28.4912 76.1496 28.4191 76.4092 28.2605 76.6255C28.1019 76.8418 27.8856 77.0149 27.5972 77.1302C27.9144 77.2312 28.1451 77.4042 28.2893 77.6205C28.4336 77.8512 28.5057 78.1397 28.5057 78.4713V78.9472C28.5057 79.1202 28.5201 79.2789 28.5633 79.4375C28.6066 79.5961 28.6787 79.7115 28.7652 79.798V79.8845H27.7846C27.6837 79.798 27.6116 79.6682 27.5827 79.4808C27.5539 79.2933 27.5395 79.1202 27.5395 78.9328V78.4713C27.5395 78.1829 27.453 77.9522 27.2943 77.7791C27.1213 77.6061 26.8906 77.5196 26.6022 77.5196H25.4918V77.534ZM25.4918 76.7841H26.4435C26.8185 76.7841 27.1069 76.712 27.2799 76.5678C27.453 76.4236 27.5395 76.1929 27.5395 75.9045C27.5395 75.6161 27.453 75.3998 27.2799 75.2267C27.1069 75.0681 26.8473 74.9816 26.5012 74.9816H25.4918V76.7841Z" fill="black"></path><path d="M35.7883 78.0388L35.8027 78.0676C35.8171 78.6445 35.6297 79.1059 35.2403 79.452C34.851 79.7981 34.3463 79.9856 33.6829 79.9856C33.0196 79.9856 32.486 79.7692 32.0678 79.3222C31.6496 78.8752 31.4478 78.2984 31.4478 77.6062V76.5247C31.4478 75.8325 31.6496 75.2557 32.0534 74.8086C32.4572 74.3616 32.9907 74.1309 33.6397 74.1309C34.303 74.1309 34.8365 74.3039 35.2259 74.65C35.6153 74.9961 35.8027 75.4575 35.7883 76.0488L35.7739 76.0776H34.851C34.851 75.7027 34.75 75.3999 34.5481 75.198C34.3463 74.9961 34.0434 74.8951 33.6397 74.8951C33.2503 74.8951 32.9475 75.0538 32.7168 75.3566C32.486 75.6594 32.3851 76.0488 32.3851 76.5102V77.6062C32.3851 78.0821 32.5004 78.4714 32.7312 78.7742C32.9619 79.0771 33.2791 79.2357 33.6685 79.2357C34.0578 79.2357 34.3463 79.1347 34.5481 78.9329C34.75 78.731 34.851 78.4426 34.851 78.0532H35.7883V78.0388Z" fill="black"></path><path d="M41.1815 77.5629C41.1815 78.2551 40.9652 78.8319 40.5325 79.2934C40.0999 79.7548 39.5231 79.9856 38.8309 79.9856C38.1532 79.9856 37.5908 79.7548 37.1726 79.2934C36.74 78.8319 36.5381 78.2551 36.5381 77.5629V76.5391C36.5381 75.8469 36.7544 75.2701 37.1726 74.8086C37.6052 74.3472 38.1532 74.1165 38.8309 74.1165C39.5231 74.1165 40.0999 74.3472 40.5325 74.8086C40.9652 75.2701 41.1959 75.8469 41.1959 76.5391V77.5629H41.1815ZM40.2297 76.5391C40.2297 76.0632 40.0999 75.6739 39.8548 75.371C39.5952 75.0682 39.2635 74.9096 38.8309 74.9096C38.4127 74.9096 38.0811 75.0682 37.8359 75.371C37.5908 75.6739 37.4754 76.0632 37.4754 76.5391V77.5774C37.4754 78.0532 37.5908 78.4426 37.8359 78.7598C38.0811 79.0627 38.4127 79.2213 38.8309 79.2213C39.2635 79.2213 39.6096 79.0627 39.8548 78.7598C40.0999 78.457 40.2297 78.0676 40.2297 77.5774V76.5391Z" fill="black"></path><path d="M45.075 78.5867H45.1038L46.7478 74.2029H47.9591V79.8989H47.0073V75.8036H46.9785L45.4067 79.8989H44.7577L43.1571 75.7314L43.1282 75.7459V79.9134H42.1909V74.2173H43.4311L45.075 78.5867Z" fill="black"></path><path d="M50.1075 77.7503V79.9133H49.1558V74.2173H51.3332C51.9677 74.2173 52.458 74.3759 52.8041 74.7076C53.1646 75.0392 53.3377 75.4574 53.3377 75.991C53.3377 76.5245 53.1646 76.9572 52.8041 77.2744C52.4436 77.5917 51.9533 77.7503 51.3332 77.7503H50.1075ZM50.1075 76.986H51.3332C51.6793 76.986 51.9533 76.8851 52.1264 76.6976C52.2994 76.5101 52.3859 76.265 52.3859 75.9766C52.3859 75.6882 52.2994 75.443 52.1264 75.2556C51.9533 75.0681 51.6793 74.9671 51.3332 74.9671H50.1075V76.986Z" fill="black"></path><path d="M57.2167 78.5723H55.1979L54.7653 79.8989H53.7847L55.7747 74.2029H56.6832L58.6443 79.8989H57.6638L57.2167 78.5723ZM55.4574 77.7791H56.9572L56.2217 75.5296H56.1929L55.4574 77.7791Z" fill="black"></path><path d="M63.7782 79.8989H62.8264L60.3029 75.8036L60.274 75.818V79.9134H59.3223V74.2173H60.274L62.7976 78.3127L62.8264 78.2983V74.2029H63.7782V79.8989Z" fill="black"></path><path d="M66.9073 76.9716L68.2772 74.2029H69.3299L67.3543 77.9089V79.8989H66.417V77.8513L64.4702 74.2029H65.5229L66.9073 76.9716Z" fill="black"></path><path d="M75.0548 78.4426C75.0548 78.2118 74.9683 78.01 74.8096 77.8657C74.6366 77.7215 74.3482 77.5773 73.9156 77.462C73.3099 77.2889 72.834 77.0726 72.5024 76.7986C72.1707 76.5246 71.9977 76.1641 71.9977 75.7171C71.9977 75.2557 72.1851 74.8807 72.5456 74.5779C72.9061 74.2751 73.382 74.1309 73.9588 74.1309C74.5789 74.1309 75.0692 74.2895 75.4297 74.6212C75.8046 74.9528 75.9777 75.3566 75.9633 75.8469L75.9488 75.8757H75.0404C75.0404 75.5729 74.9394 75.3422 74.7375 75.1547C74.5357 74.9817 74.2761 74.8951 73.9444 74.8951C73.6272 74.8951 73.382 74.9672 73.209 75.1259C73.0359 75.2701 72.9494 75.472 72.9494 75.7171C72.9494 75.9334 73.0503 76.1209 73.2378 76.2651C73.4253 76.4093 73.7425 76.5391 74.1896 76.6689C74.7808 76.8419 75.2423 77.0582 75.5595 77.3466C75.8768 77.635 76.0354 77.9955 76.0354 78.457C76.0354 78.9329 75.8479 79.3078 75.4874 79.5818C75.1125 79.8702 74.6366 80 74.0309 80C73.4541 80 72.9494 79.8413 72.5168 79.5385C72.0842 79.2357 71.8823 78.8031 71.8967 78.2407L71.9111 78.2118H72.8196C72.8196 78.5579 72.935 78.8175 73.1801 78.9905C73.4109 79.1636 73.6993 79.2501 74.0454 79.2501C74.377 79.2501 74.6366 79.178 74.8241 79.0338C74.9538 78.8752 75.0548 78.6877 75.0548 78.4426Z" fill="black"></path><path d="M77.9244 79.1491H80.5922V79.9133H76.9727V74.2173H77.9244V79.1491Z" fill="black"></path><path d="M85.8704 77.5629C85.8704 78.2551 85.6541 78.8319 85.2215 79.2934C84.7889 79.7548 84.2121 79.9856 83.5199 79.9856C82.8421 79.9856 82.2797 79.7548 81.8615 79.2934C81.4289 78.8319 81.2271 78.2551 81.2271 77.5629V76.5391C81.2271 75.8469 81.4434 75.2701 81.8615 74.8086C82.2942 74.3472 82.8421 74.1165 83.5199 74.1165C84.2121 74.1165 84.7889 74.3472 85.2215 74.8086C85.6541 75.2701 85.8848 75.8469 85.8848 76.5391V77.5629H85.8704ZM84.9187 76.5391C84.9187 76.0632 84.7889 75.6739 84.5437 75.371C84.2842 75.0682 83.9525 74.9096 83.5199 74.9096C83.1017 74.9096 82.77 75.0682 82.5249 75.371C82.2797 75.6739 82.1644 76.0632 82.1644 76.5391V77.5774C82.1644 78.0532 82.2797 78.4426 82.5249 78.7598C82.77 79.0627 83.1017 79.2213 83.5199 79.2213C83.9525 79.2213 84.2986 79.0627 84.5437 78.7598C84.7889 78.457 84.9187 78.0676 84.9187 77.5774V76.5391Z" fill="black"></path><path d="M91.0903 79.1347C90.9317 79.3511 90.6866 79.5529 90.3405 79.726C89.9944 79.899 89.5618 79.9856 89.0138 79.9856C88.336 79.9856 87.7881 79.7692 87.3555 79.3366C86.9228 78.904 86.7065 78.3416 86.7065 77.6494V76.467C86.7065 75.7748 86.9228 75.2124 87.341 74.7798C87.7592 74.3472 88.3072 74.1309 88.9561 74.1309C89.6195 74.1309 90.1386 74.3039 90.4991 74.6356C90.874 74.9672 91.0471 75.3999 91.0327 75.9478L91.0182 75.9767H90.1098C90.1098 75.6594 90.0088 75.3999 89.8069 75.198C89.605 74.9961 89.3166 74.9096 88.9417 74.9096C88.5524 74.9096 88.2351 75.0538 87.99 75.3566C87.7448 75.645 87.6294 76.0199 87.6294 76.4814V77.6783C87.6294 78.1397 87.7592 78.5147 88.0044 78.8031C88.2495 79.1059 88.5812 79.2501 88.985 79.2501C89.2878 79.2501 89.5329 79.2213 89.706 79.1492C89.879 79.0771 90.0232 78.9905 90.1098 78.904V77.7215H88.9129V77.0149H91.0615V79.1347H91.0903Z" fill="black"></path><path d="M95.2148 78.5723H93.1959L92.7633 79.8989H91.7827L93.7727 74.2029H94.6812L96.6424 79.8989H95.6618L95.2148 78.5723ZM93.4699 77.7791H94.9696L94.2342 75.5296H94.2053L93.4699 77.7791Z" fill="black"></path><path d="M101.776 79.8989H100.824L98.3004 75.8036L98.2716 75.818V79.9134H97.3198V74.2173H98.2716L100.795 78.3127L100.824 78.2983V74.2029H101.776V79.8989Z" fill="black"></path></svg>