<svg xmlns="http://www.w3.org/2000/svg" width="96" height="80" viewBox="0 0 96 80" fill="none"><path d="M7.854 60.2961C9.73 60.2961 11.179 60.7441 12.201 61.6401C13.223 62.5221 13.734 63.7751 13.734 65.3991C13.734 67.1071 13.216 68.4371 12.18 69.3891C11.158 70.3271 9.716 70.7961 7.854 70.7961H4.935V74.9961H1.617V60.2961H7.854ZM7.686 68.0241C8.624 68.0241 9.338 67.8141 9.828 67.3941C10.332 66.9601 10.584 66.3301 10.584 65.5041C10.584 64.6921 10.332 64.0831 9.828 63.6771C9.338 63.2571 8.624 63.0471 7.686 63.0471H4.935V68.0241H7.686ZM20.6374 63.5931C22.4574 63.5931 23.8364 64.1181 24.7744 65.1681C25.7264 66.2181 26.2024 67.6811 26.2024 69.5571C26.2024 69.8931 26.1954 70.1521 26.1814 70.3341H18.0754C18.2574 71.0481 18.6074 71.6081 19.1254 72.0141C19.6434 72.4061 20.2664 72.6021 20.9944 72.6021C21.5264 72.6021 22.0374 72.5041 22.5274 72.3081C23.0174 72.0981 23.4584 71.7971 23.8504 71.4051L25.5514 73.1271C24.9774 73.7711 24.2774 74.2681 23.4514 74.6181C22.6394 74.9541 21.7294 75.1221 20.7214 75.1221C19.5314 75.1221 18.4884 74.8841 17.5924 74.4081C16.7104 73.9321 16.0244 73.2601 15.5344 72.3921C15.0584 71.5241 14.8204 70.5231 14.8204 69.3891C14.8204 68.2411 15.0654 67.2331 15.5554 66.3651C16.0454 65.4831 16.7314 64.8041 17.6134 64.3281C18.4954 63.8381 19.5034 63.5931 20.6374 63.5931ZM23.1574 68.4231C23.1294 67.6811 22.8914 67.0861 22.4434 66.6381C21.9954 66.1901 21.4004 65.9661 20.6584 65.9661C19.9584 65.9661 19.3704 66.1901 18.8944 66.6381C18.4324 67.0721 18.1384 67.6671 18.0124 68.4231H23.1574ZM35.3097 74.3661C34.8897 74.6181 34.4207 74.8141 33.9027 74.9541C33.3987 75.0801 32.8877 75.1431 32.3697 75.1431C31.3197 75.1431 30.4657 74.8421 29.8077 74.2401C29.1497 73.6381 28.8207 72.7771 28.8207 71.6571V66.4281H27.2457V64.2021H28.8207V61.0941H32.0337V64.2021H35.0997V66.4491H32.0337V71.1111C32.0337 71.9791 32.3767 72.4131 33.0627 72.4131C33.5387 72.4131 34.0637 72.2731 34.6377 71.9931L35.3097 74.3661ZM51.924 64.3911C51.168 63.9291 50.363 63.5651 49.509 63.2991C48.669 63.0191 47.948 62.8791 47.346 62.8791C46.772 62.8791 46.317 62.9841 45.981 63.1941C45.645 63.4041 45.477 63.7121 45.477 64.1181C45.477 64.6361 45.715 65.0351 46.191 65.3151C46.681 65.5811 47.43 65.8611 48.438 66.1551C49.446 66.4491 50.272 66.7431 50.916 67.0371C51.574 67.3311 52.134 67.7721 52.596 68.3601C53.058 68.9481 53.289 69.7251 53.289 70.6911C53.289 71.6291 53.037 72.4411 52.533 73.1271C52.043 73.7991 51.364 74.3101 50.496 74.6601C49.628 75.0101 48.641 75.1851 47.535 75.1851C46.345 75.1851 45.176 74.9751 44.028 74.5551C42.88 74.1351 41.886 73.5611 41.046 72.8331L42.369 70.1241C43.111 70.7961 43.965 71.3351 44.931 71.7411C45.897 72.1471 46.779 72.3501 47.577 72.3501C48.263 72.3501 48.795 72.2241 49.173 71.9721C49.565 71.7201 49.761 71.3561 49.761 70.8801C49.761 70.5021 49.628 70.1941 49.362 69.9561C49.11 69.7041 48.781 69.5011 48.375 69.3471C47.983 69.1931 47.437 69.0181 46.737 68.8221C45.729 68.5421 44.903 68.2621 44.259 67.9821C43.629 67.7021 43.083 67.2751 42.621 66.7011C42.159 66.1271 41.928 65.3641 41.928 64.4121C41.928 63.5301 42.166 62.7601 42.642 62.1021C43.118 61.4301 43.783 60.9191 44.637 60.5691C45.491 60.2051 46.485 60.0231 47.619 60.0231C48.627 60.0231 49.621 60.1701 50.601 60.4641C51.581 60.7581 52.449 61.1501 53.205 61.6401L51.924 64.3911ZM62.7961 63.5721C64.0701 63.5721 65.0781 63.9641 65.8201 64.7481C66.5761 65.5321 66.9541 66.5821 66.9541 67.8981V74.9961H63.7201V68.8431C63.7201 68.1291 63.5171 67.5691 63.1111 67.1631C62.7191 66.7431 62.1801 66.5331 61.4941 66.5331C60.6961 66.5471 60.0591 66.8271 59.5831 67.3731C59.1211 67.9051 58.8901 68.5911 58.8901 69.4311V74.9961H55.6561V59.4141H58.8901V65.6931C59.6741 64.3071 60.9761 63.6001 62.7961 63.5721ZM74.825 63.5931C76.015 63.5931 77.065 63.8311 77.975 64.3071C78.899 64.7831 79.613 65.4551 80.117 66.3231C80.621 67.1911 80.873 68.1991 80.873 69.3471C80.873 70.4811 80.621 71.4891 80.117 72.3711C79.613 73.2391 78.899 73.9181 77.975 74.4081C77.065 74.8841 76.015 75.1221 74.825 75.1221C73.621 75.1221 72.557 74.8841 71.633 74.4081C70.723 73.9181 70.016 73.2391 69.512 72.3711C69.008 71.4891 68.756 70.4811 68.756 69.3471C68.756 68.1991 69.008 67.1911 69.512 66.3231C70.016 65.4551 70.723 64.7831 71.633 64.3071C72.557 63.8311 73.621 63.5931 74.825 63.5931ZM74.825 66.2811C73.985 66.2811 73.299 66.5681 72.767 67.1421C72.249 67.7161 71.99 68.4651 71.99 69.3891C71.99 70.3131 72.249 71.0621 72.767 71.6361C73.299 72.2101 73.985 72.4971 74.825 72.4971C75.651 72.4971 76.323 72.2101 76.841 71.6361C77.373 71.0621 77.639 70.3131 77.639 69.3891C77.639 68.4651 77.373 67.7161 76.841 67.1421C76.323 66.5681 75.651 66.2811 74.825 66.2811ZM89.92 63.5931C90.97 63.5931 91.894 63.8381 92.692 64.3281C93.504 64.8041 94.127 65.4831 94.561 66.3651C95.009 67.2471 95.233 68.2621 95.233 69.4101C95.233 70.5441 95.016 71.5451 94.582 72.4131C94.148 73.2671 93.532 73.9321 92.734 74.4081C91.95 74.8841 91.033 75.1221 89.983 75.1221C89.199 75.1221 88.499 74.9751 87.883 74.6811C87.281 74.3731 86.77 73.9321 86.35 73.3581V79.0701H83.116V63.6981H86.35V65.3571C86.756 64.7831 87.26 64.3491 87.862 64.0551C88.478 63.7471 89.164 63.5931 89.92 63.5931ZM89.164 72.4341C89.99 72.4341 90.662 72.1471 91.18 71.5731C91.698 70.9851 91.957 70.2291 91.957 69.3051C91.957 68.3951 91.698 67.6531 91.18 67.0791C90.662 66.4911 89.99 66.1971 89.164 66.1971C88.338 66.1971 87.659 66.4911 87.127 67.0791C86.609 67.6531 86.35 68.3951 86.35 69.3051C86.35 70.2431 86.609 70.9991 87.127 71.5731C87.659 72.1471 88.338 72.4341 89.164 72.4341Z" fill="#CE4239"></path><path d="M45.6114 15.1116C45.0796 15.1116 44.6475 15.8865 44.6475 16.8452C44.6475 17.8038 45.0796 18.5621 45.6114 18.5621C46.1433 18.5621 46.5854 17.8005 46.5854 16.8452C46.5854 15.8899 46.1533 15.1116 45.6114 15.1116ZM51.731 15.1116C51.1992 15.1116 50.7571 15.8865 50.7571 16.8452C50.7571 17.8038 51.1992 18.5621 51.731 18.5621C52.2629 18.5621 52.695 17.8005 52.695 16.8452C52.695 15.8899 52.2629 15.1116 51.731 15.1116ZM54.2141 18.5621V19.2134C54.2141 19.8114 54.4505 20.3849 54.8713 20.8077C55.2921 21.2306 55.8628 21.4681 56.4578 21.4681C57.0529 21.4681 57.6236 21.2306 58.0444 20.8077C58.4652 20.3849 58.7016 19.8114 58.7016 19.2134V18.5621H54.2141ZM50.3715 31.6827C50.1554 31.6827 49.9726 32.0167 49.9726 32.4009C49.9726 32.785 50.1554 33.1057 50.3715 33.1057C50.5876 33.1057 50.7671 32.7716 50.7671 32.4009C50.7671 32.0301 50.5975 31.6961 50.3715 31.6961V31.6827ZM47.6291 50.0075H49.3743H47.6059H47.6291ZM47.3898 31.6827C47.1638 31.6827 46.9942 32.0167 46.9942 32.4009C46.9942 32.785 47.1638 33.1057 47.3898 33.1057C47.6158 33.1057 47.7854 32.7716 47.7854 32.4009C47.7854 32.0301 47.6059 31.6961 47.3898 31.6961V31.6827ZM51.731 15.1116C51.1992 15.1116 50.7571 15.8865 50.7571 16.8452C50.7571 17.8038 51.1992 18.5621 51.731 18.5621C52.2629 18.5621 52.695 17.8005 52.695 16.8452C52.695 15.8899 52.2629 15.1116 51.731 15.1116ZM45.6114 15.1116C45.0796 15.1116 44.6475 15.8865 44.6475 16.8452C44.6475 17.8038 45.0796 18.5621 45.6114 18.5621C46.1433 18.5621 46.5854 17.8005 46.5854 16.8452C46.5854 15.8899 46.1533 15.1116 45.6114 15.1116Z" fill="#CE4239"></path><path d="M61.9823 0.000172885C59.0548 -0.0142576 56.1934 0.874998 53.7851 2.5477C51.3768 4.22041 49.5378 6.59588 48.5166 9.35295C47.4955 6.59642 45.657 4.22132 43.2493 2.54866C40.8417 0.876002 37.9811 -0.013572 35.0541 0.000172885C27.4088 0.000172885 21 5.99264 21 14.33C21.0092 16.7218 21.5785 19.0779 22.662 21.2076C23.8321 23.3253 25.8697 26.0377 28.7849 29.2477L39.2092 40.7382L40.2629 26.0143C38.9978 24.2133 38.4064 22.0211 38.5931 19.8247C38.7799 17.6282 39.7327 15.5686 41.2834 14.0093L41.9482 6.21978L45.9138 11.4941C46.5505 11.3552 47.2002 11.2858 47.8517 11.287C48.7104 11.2876 49.5649 11.4067 50.3913 11.641L53.9514 6.21978L54.7891 14.4435L54.9054 15.5458L55.9226 16.0369L60.1408 18.0644C60.1408 18.0644 61.138 24.3174 54.4899 27.1399L55.7231 27.6978L56.8566 41.7637L68.2149 29.2477C71.1268 26.0377 73.1678 23.3253 74.2547 21.2076C75.4097 19.1018 76.0104 16.7344 75.9999 14.33C76.0065 5.99264 69.6044 0.000172885 61.9823 0.000172885Z" fill="#CE4239"></path><path d="M46.9941 32.4142C46.9941 32.0167 47.1637 31.696 47.3897 31.696C47.6157 31.696 47.7853 32.0301 47.7853 32.4142C47.7853 32.7983 47.6058 33.119 47.3897 33.119C47.1736 33.119 46.9941 32.815 46.9941 32.4142Z" fill="white"></path><path d="M49.9727 32.4142C49.9727 32.0167 50.1555 31.696 50.3715 31.696C50.5876 31.696 50.7671 32.0301 50.7671 32.4142C50.7671 32.7983 50.5976 33.119 50.3715 33.119C50.1455 33.119 49.9727 32.815 49.9727 32.4142Z" fill="white"></path><path d="M51.0497 35.5241L53.2037 33.5199L51.874 31.3788V28.0385L49.6835 29.9559H48.1079L46.1932 27.8481L45.8608 31.1884L44.5811 33.4097L46.1999 35.0164L45.2027 47.3053L47.6492 50.0042H49.4176L52.499 46.5971L51.7743 35.641L51.0497 35.5241ZM47.3932 33.1191C47.1672 33.1191 46.9976 32.7851 46.9976 32.4143C46.9976 32.0435 47.1672 31.6961 47.3932 31.6961C47.6192 31.6961 47.7888 32.0302 47.7888 32.4143C47.7888 32.7984 47.6059 33.1191 47.3899 33.1191H47.3932ZM50.3849 33.1191C50.1688 33.1191 49.986 32.7851 49.986 32.4143C49.986 32.0435 50.1688 31.6961 50.3849 31.6961C50.6009 31.6961 50.7804 32.0302 50.7804 32.4143C50.7804 32.7984 50.5976 33.1191 50.3716 33.1191H50.3849Z" fill="#CE4239"></path></svg>