<svg xmlns="http://www.w3.org/2000/svg" width="127" height="80" viewBox="0 0 127 80" fill="none"><path d="M7.30367 41.9548C11.9036 41.9548 14.5488 44.2258 14.5488 48.2059C14.5488 52.3382 11.9036 54.7497 7.30367 54.7497H3.09001V60.275H0V41.9548H7.30367ZM3.09001 51.9753H7.17492C9.99573 51.9753 11.5993 50.7696 11.5993 48.2879C11.5993 45.8764 10.0074 44.7292 7.17492 44.7292H3.09001V51.9753Z" fill="#222222"></path><path d="M25.7737 58.5659C24.7788 59.795 23.187 60.392 21.1738 60.392C18.1657 60.392 16.2812 58.5307 16.2812 56.0724C16.2812 53.5322 18.1891 51.9168 21.5366 51.8816H25.7503V51.4602C25.7503 49.7043 24.6266 48.6624 22.4262 48.6624C21.0918 48.6624 19.7107 49.1307 18.3179 50.0789L17.0889 47.9952C19.0201 46.848 20.4364 46.2393 23.0816 46.2393C26.6632 46.2393 28.6764 48.0654 28.7115 51.1324L28.735 60.2632H25.7737V58.5659ZM25.7386 55.3701V54.0824H21.9697C20.0033 54.0824 19.0904 54.6092 19.0904 55.9437C19.0904 57.1962 20.1087 58.0157 21.7824 58.0157C23.9361 58.0157 25.5864 56.8919 25.7386 55.3701Z" fill="#222222"></path><path d="M35.7693 49.119C36.7057 47.2343 38.3911 46.2393 40.5799 46.2393V49.119C37.7825 48.9668 36.0034 50.6057 35.7693 52.9937V60.2633H32.7612V46.3446H35.7693V49.119Z" fill="#222222"></path><path d="M46.0691 49.119C47.0055 47.2343 48.6909 46.2393 50.8797 46.2393V49.119C48.0823 48.9668 46.3032 50.6057 46.0691 52.9937V60.2633H43.061V46.3446H46.0691V49.119Z" fill="#222222"></path><path d="M66.5874 53.3098C66.5874 57.5006 63.6262 60.3803 59.3423 60.3803C55.0233 60.3803 52.0737 57.5006 52.0737 53.3098C52.0737 49.0956 55.035 46.2393 59.3423 46.2393C63.6262 46.2393 66.5874 49.0956 66.5874 53.3098ZM55.0701 53.3332C55.0701 56.0256 56.8258 57.8635 59.3306 57.8635C61.812 57.8635 63.5676 56.0373 63.5676 53.3332C63.5676 50.6642 61.812 48.838 59.3306 48.838C56.8258 48.838 55.0701 50.6642 55.0701 53.3332Z" fill="#222222"></path><path d="M77.6015 59.3736C76.5013 60.0291 75.3542 60.392 74.1721 60.392C72.077 60.392 70.2745 59.1863 70.2745 56.3417V49.119H68.3081V46.8714H70.2745V43.0552H73.2591V46.8714H77.3674V49.119H73.2591V55.7915C73.2591 57.2314 73.8092 57.6762 74.7456 57.6762C75.3776 57.6762 76.0331 57.4655 76.8407 57.0792L77.6015 59.3736Z" fill="#222222"></path><path d="M0 71.232V64.7468H0.362891V71.232H0Z" fill="#272727"></path><path d="M2.71565 65.3791C2.71565 65.5664 2.57518 65.7068 2.41129 65.7068C2.24741 65.7068 2.10693 65.5546 2.10693 65.3791C2.10693 65.2035 2.24741 65.063 2.41129 65.063C2.57518 65.063 2.71565 65.2035 2.71565 65.3791ZM2.224 71.2321V66.6784H2.58689V71.2321H2.224Z" fill="#272727"></path><path d="M8.40442 68.4578V71.2322H8.04152V68.528C8.04152 67.5915 7.49133 67.0413 6.55484 67.0413C5.50128 67.0648 4.85745 67.7203 4.78721 68.7739V71.2322H4.42432V66.6785H4.78721V67.8374C5.09157 67.0882 5.73541 66.6902 6.64849 66.6667C7.74887 66.6785 8.40442 67.3457 8.40442 68.4578Z" fill="#272727"></path><path d="M13.9055 69.0548H9.93711C9.98393 70.1669 10.7565 70.9044 11.8101 70.9044C12.4305 70.9044 12.9807 70.682 13.3436 70.2722L13.5543 70.5064C13.1329 70.9629 12.5125 71.2322 11.7867 71.2322C10.499 71.2322 9.57422 70.284 9.57422 68.9495C9.57422 67.6149 10.5107 66.6667 11.7867 66.6667C13.1329 66.6785 13.9406 67.6501 13.9055 69.0548ZM13.5777 68.7387C13.5075 67.7086 12.8402 67.0062 11.7984 67.0062C10.78 67.0062 10.0308 67.7086 9.94882 68.7387H13.5777Z" fill="#272727"></path><path d="M18.1307 70.3306C17.7444 70.9627 17.1006 71.2436 16.3163 71.2436C15.4149 71.2436 14.8179 70.6817 14.8179 69.9091C14.8179 69.1482 15.4617 68.6917 16.5153 68.6917H18.1307V68.2469C18.119 67.4743 17.6742 67.0177 16.7728 67.0177C16.2109 67.0177 15.7192 67.2401 15.2393 67.6147L15.0637 67.3338C15.6022 66.9358 16.129 66.6899 16.8196 66.6899C17.8966 66.6899 18.4819 67.287 18.4819 68.2234L18.4936 71.2436H18.1307V70.3306ZM18.1307 69.7452V69.0078H16.5387C15.649 69.0078 15.1574 69.3121 15.1574 69.8974C15.1574 70.4944 15.6256 70.9159 16.3631 70.9159C17.2059 70.9159 17.8498 70.5413 18.1307 69.7452Z" fill="#272727"></path><path d="M20.5299 67.8254C20.8225 67.0879 21.4078 66.6899 22.2273 66.6782V67.0528C21.2205 67.0528 20.6118 67.7201 20.5299 68.7736V71.2319H20.167V66.6782H20.5299V67.8254Z" fill="#272727"></path><path d="M29.5784 70.7403C29.5784 72.0865 28.7121 72.941 27.3776 72.9293C26.6518 72.9176 26.0665 72.6718 25.5397 72.1918L25.727 71.9226C26.1953 72.3674 26.7104 72.5781 27.3659 72.5898C28.4897 72.6015 29.2272 71.8757 29.2272 70.7403V69.8857C28.9111 70.6115 28.2322 71.0563 27.3659 71.0563C26.1485 71.0563 25.2588 70.1432 25.2588 68.8673C25.2588 67.5913 26.1368 66.6782 27.3542 66.6782C28.2322 66.6782 28.8994 67.1348 29.2272 67.8605V66.6899H29.5784V70.7403ZM29.2272 68.879C29.2272 67.7903 28.4546 67.006 27.4127 67.006C26.3592 67.006 25.61 67.7903 25.61 68.879C25.61 69.9559 26.3592 70.7403 27.4127 70.7403C28.4663 70.7403 29.2272 69.9559 29.2272 68.879Z" fill="#272727"></path><path d="M35.1145 69.0548H31.1461C31.1929 70.1669 31.9655 70.9044 33.0191 70.9044C33.6395 70.9044 34.1897 70.682 34.5526 70.2722L34.7633 70.5064C34.3419 70.9629 33.7215 71.2322 32.9957 71.2322C31.708 71.2322 30.7832 70.284 30.7832 68.9495C30.7832 67.6149 31.7197 66.6667 32.9957 66.6667C34.3419 66.6785 35.1379 67.6501 35.1145 69.0548ZM34.7867 68.7387C34.7165 67.7086 34.0492 67.0062 33.0074 67.0062C31.9889 67.0062 31.2397 67.7086 31.1578 68.7387H34.7867Z" fill="#272727"></path><path d="M40.4166 68.9495C40.4166 70.2957 39.4684 71.2322 38.169 71.2322C36.8813 71.2322 35.9214 70.284 35.9214 68.9495C35.9214 67.6267 36.8696 66.6667 38.169 66.6667C39.4684 66.6785 40.4166 67.6267 40.4166 68.9495ZM36.2843 68.9612C36.2843 70.1084 37.0803 70.9044 38.169 70.9044C39.2694 70.9044 40.0537 70.1084 40.0537 68.9612C40.0537 67.8139 39.2694 67.0179 38.169 67.0179C37.0803 67.0296 36.2843 67.8257 36.2843 68.9612Z" fill="#272727"></path><path d="M49.1946 68.4578V71.2322H48.8318V68.528C48.8318 67.5915 48.2933 67.0413 47.3687 67.0413C46.2802 67.0648 45.6364 67.814 45.6364 69.008V71.2322H45.297V68.528C45.297 67.5915 44.7469 67.0413 43.8339 67.0413C42.7454 67.0648 42.1016 67.814 42.1016 69.008V71.2322H41.7388V66.6785H42.1016V67.8725C42.3942 67.0999 43.038 66.6902 43.9392 66.6667C44.8522 66.6667 45.4608 67.1584 45.613 67.9895C45.8939 67.1467 46.5377 66.6902 47.474 66.6667C48.5625 66.6785 49.1946 67.3457 49.1946 68.4578Z" fill="#272727"></path><path d="M54.7077 69.0548H50.7394C50.7862 70.1669 51.5588 70.9044 52.6123 70.9044C53.2328 70.9044 53.783 70.682 54.1458 70.2722L54.3566 70.5064C53.9351 70.9629 53.3147 71.2322 52.5889 71.2322C51.3012 71.2322 50.3765 70.284 50.3765 68.9495C50.3765 67.6149 51.313 66.6667 52.5889 66.6667C53.9351 66.6785 54.7311 67.6501 54.7077 69.0548ZM54.38 68.7387C54.3097 67.7086 53.6425 67.0062 52.6006 67.0062C51.5822 67.0062 50.833 67.7086 50.7511 68.7387H54.38Z" fill="#272727"></path><path d="M58.149 70.916C57.8564 71.115 57.5403 71.2438 57.2008 71.2438C56.557 71.2555 56.1707 70.8341 56.1707 69.9795V67.1115H55.5034V66.7954H56.1707V65.6716H56.5219V66.7954H58.0671V67.1115H56.5219V69.9327C56.5219 70.5765 56.7794 70.8926 57.2476 70.8809C57.5052 70.8809 57.7861 70.7872 58.0202 70.6233L58.149 70.916Z" fill="#272727"></path><path d="M59.6231 67.8254C59.9158 67.0879 60.5011 66.6899 61.3205 66.6782V67.0528C60.3138 67.0528 59.7051 67.7201 59.6231 68.7736V71.2319H59.2603V66.6782H59.6231V67.8254Z" fill="#272727"></path><path d="M62.807 65.3791C62.807 65.5664 62.6665 65.7068 62.5026 65.7068C62.3387 65.7068 62.1982 65.5664 62.1982 65.3791C62.1982 65.2035 62.3387 65.063 62.5026 65.063C62.6665 65.063 62.807 65.2035 62.807 65.3791ZM62.3153 71.2321V66.6784H62.6782V71.2321H62.3153Z" fill="#272727"></path><path d="M67.864 67.3106L67.6533 67.5681C67.2904 67.2286 66.8105 67.0179 66.2486 67.0179C65.1599 67.0179 64.3756 67.814 64.3756 68.9495C64.3756 70.0967 65.1599 70.8927 66.2486 70.8927C66.8573 70.8927 67.3841 70.6703 67.7353 70.2605L67.9577 70.4947C67.5597 70.9629 66.951 71.2322 66.2486 71.2322C64.9609 71.2322 64.0244 70.284 64.0244 68.9495C64.0244 67.6149 64.9726 66.6667 66.2486 66.6667C66.8924 66.6785 67.4543 66.9126 67.864 67.3106Z" fill="#272727"></path><path d="M74.2897 67.0296L74.1375 67.3223C73.8215 67.1233 73.4235 66.9945 72.9903 66.9945C72.3582 66.9945 71.8548 67.2403 71.8548 67.7788C71.8548 68.9963 74.5121 68.3992 74.5121 70.003C74.5121 70.8458 73.7512 71.2204 72.9318 71.2204C72.2997 71.2204 71.6792 70.998 71.2695 70.5883L71.4334 70.3073C71.8314 70.6702 72.3816 70.8809 72.9552 70.8809C73.5873 70.8809 74.1375 70.6234 74.1727 70.0498C74.2078 68.7621 71.5154 69.3474 71.5154 67.7905C71.5154 66.9945 72.206 66.6433 73.0137 66.6433C73.4937 66.6784 73.9385 66.8189 74.2897 67.0296Z" fill="#272727"></path><path d="M77.8712 70.916C77.5785 71.115 77.2625 71.2438 76.923 71.2438C76.2791 71.2555 75.8928 70.8341 75.8928 69.9795V67.1115H75.2256V66.7954H75.8928V65.6716H76.244V66.7954H77.7892V67.1115H76.244V69.9327C76.244 70.5765 76.5016 70.8926 76.9698 70.8809C77.2273 70.8809 77.5083 70.7872 77.7424 70.6233L77.8712 70.916Z" fill="#272727"></path><path d="M80.0949 71.8875C79.8139 72.5664 79.3691 72.941 78.8423 72.941C78.5146 72.941 78.2102 72.8591 77.9761 72.6835L78.1283 72.3674C78.3273 72.5079 78.5614 72.5781 78.8189 72.5781C79.2286 72.5781 79.5798 72.2855 79.8022 71.7587L80.0129 71.2436L78.14 66.6899H78.5263L80.2002 70.8105L81.8391 66.6899H82.2254L80.0949 71.8875Z" fill="#272727"></path><path d="M83.1494 71.232V64.7468H83.5123V71.232H83.1494Z" fill="#272727"></path><path d="M89.2249 69.0548H85.2565C85.3033 70.1669 86.0759 70.9044 87.1294 70.9044C87.7499 70.9044 88.3001 70.682 88.663 70.2722L88.8737 70.5064C88.4522 70.9629 87.8318 71.2322 87.106 71.2322C85.8183 71.2322 84.8936 70.284 84.8936 68.9495C84.8936 67.6149 85.8301 66.6667 87.106 66.6667C88.4405 66.6785 89.2483 67.6501 89.2249 69.0548ZM88.8971 68.7387C88.8268 67.7086 88.1596 67.0062 87.1177 67.0062C86.0993 67.0062 85.3501 67.7086 85.2682 68.7387H88.8971Z" fill="#272727"></path><path d="M121.869 31.4779V24.0796C121.869 10.8048 111.065 0 97.7922 0C91.1089 0 85.0576 2.73925 80.6918 7.14077C80.3406 7.43342 80.0012 7.74949 79.6852 8.11238L79.7437 8.1592C75.9982 12.4085 73.7158 17.9807 73.7158 24.0796C73.7158 27.9192 74.6405 31.7354 76.3845 35.1185C77.9763 38.1855 80.2353 40.9248 82.9625 43.0553V45.0922C82.9625 55.2063 91.1908 63.4475 101.315 63.4475H104.616V69.8507C104.616 72.6134 106.863 74.861 109.626 74.861C110.421 74.861 111.182 74.6737 111.861 74.3342V74.9898C111.861 77.7524 114.108 80 116.871 80C119.633 80 121.88 77.7524 121.88 74.9898V63.1197C122.793 63.2368 123.718 63.2953 124.654 63.2953H126.012V40.5502C126 36.933 124.397 33.6904 121.869 31.4779ZM76.4313 24.0796C76.4313 18.285 78.7488 13.029 82.506 9.16594C84.6947 7.45683 87.8667 7.49195 90.0203 9.40006C90.7577 10.0439 91.144 11.4603 91.144 13.4738V32.0164C89.4819 31.5833 87.855 31.7823 86.3919 32.6251C84.3202 33.8191 82.9742 36.1721 82.9742 38.6187V39.4615C78.8307 35.458 76.4313 29.8859 76.4313 24.0796ZM119.153 74.9898C119.153 76.254 118.123 77.2842 116.859 77.2842C115.595 77.2842 114.565 76.254 114.565 74.9898V70.6234C114.6 70.3658 114.623 70.1083 114.623 69.8507H114.565V65.7068H111.849V70.3658C111.615 71.3843 110.702 72.1452 109.614 72.1452C108.35 72.1452 107.32 71.115 107.32 69.8507V60.7316H101.304C92.7007 60.7316 85.6779 53.7079 85.6779 45.0922V42.3764V38.6187C85.6779 37.1437 86.4972 35.6804 87.7262 34.9781C88.9318 34.2874 90.3364 34.3693 91.7994 35.2122L93.836 36.3945V13.4738C93.836 10.6175 93.1455 8.56892 91.7994 7.37489C90.547 6.27451 89.0606 5.59555 87.5272 5.33802C90.5704 3.66403 94.0584 2.71583 97.7688 2.71583C109.544 2.71583 119.13 12.3032 119.13 24.0796V29.6869C117.55 28.926 115.794 28.5045 113.933 28.5045C107.285 28.5045 101.889 33.9128 101.889 40.5502C101.889 51.1911 109.239 60.158 119.141 62.6163V74.9898H119.153ZM123.285 60.5326C112.879 59.8303 104.616 51.1326 104.616 40.5502C104.616 35.3995 108.806 31.2204 113.945 31.2204C119.095 31.2204 123.273 35.4112 123.273 40.5502V60.5326H123.285Z" fill="#9FC115"></path><path d="M111.615 16.8685C111.615 12.5255 108.08 9.00195 103.75 9.00195C99.4074 9.00195 95.8843 12.5372 95.8843 16.8685C95.8843 21.2115 99.4191 24.7351 103.75 24.7351C108.08 24.7468 111.615 21.2115 111.615 16.8685ZM98.588 16.8685C98.588 14.0239 100.906 11.7178 103.738 11.7178C106.582 11.7178 108.888 14.0356 108.888 16.8685C108.888 19.7131 106.571 22.0192 103.738 22.0192C100.906 22.0309 98.588 19.7131 98.588 16.8685Z" fill="#9FC115"></path><path d="M105.705 16.8685C105.705 15.7798 104.827 14.9019 103.739 14.9019C102.65 14.9019 101.772 15.7798 101.772 16.8685C101.772 17.9572 102.65 18.8351 103.739 18.8351C104.827 18.8351 105.705 17.9572 105.705 16.8685Z" fill="#9FC115"></path></svg>