<svg xmlns="http://www.w3.org/2000/svg" width="118" height="80" viewBox="0 0 118 80" fill="none"><path d="M13.958 55.4377C15.5602 56.2906 16.7982 57.4846 17.6964 58.9953C18.5945 60.5061 19.0315 62.2606 19.0315 64.21C19.0315 66.1594 18.5703 67.8894 17.6721 69.4246C16.7739 70.9354 15.5116 72.1294 13.8852 72.9822C12.2588 73.8351 10.4139 74.2493 8.32627 74.2493H0V54.1462H8.49619C10.5353 54.1462 12.3559 54.5849 13.958 55.4377ZM11.6034 69.6439C12.5015 69.1078 13.1812 68.3768 13.6667 67.4508C14.1522 66.5249 14.4193 65.4527 14.4193 64.2343C14.4193 63.0403 14.1522 61.9438 13.6425 60.9935C13.1084 60.0431 12.4044 59.2878 11.5063 58.776C10.6081 58.24 9.56429 57.9963 8.42337 57.9963H4.5394V70.448H8.64184C9.70994 70.4236 10.7052 70.18 11.6034 69.6439Z" fill="#C89E64"></path><path d="M33.1593 59.629C34.3973 60.2869 35.3683 61.1885 36.0723 62.3825C36.752 63.5765 37.0919 64.9411 37.0919 66.525C37.0919 68.0845 36.752 69.4491 36.0723 70.6431C35.3926 71.8371 34.4216 72.763 33.1593 73.4209C31.9213 74.0789 30.4648 74.42 28.8627 74.42C27.212 74.42 25.7798 74.0789 24.5175 73.4209C23.2795 72.763 22.3085 71.8371 21.6045 70.6431C20.9248 69.4491 20.585 68.0845 20.585 66.525C20.585 64.9655 20.9248 63.5765 21.6045 62.3825C22.2842 61.1885 23.2552 60.2869 24.5175 59.629C25.7555 58.9711 27.212 58.6543 28.8627 58.6543C30.4891 58.6543 31.9213 58.9954 33.1593 59.629ZM26.0711 63.5034C25.3671 64.2832 25.003 65.3066 25.003 66.5737C25.003 67.8408 25.3671 68.8642 26.0711 69.644C26.775 70.4237 27.7218 70.8136 28.8627 70.8136C29.9793 70.8136 30.9018 70.4237 31.63 69.644C32.334 68.8642 32.6981 67.8408 32.6981 66.5737C32.6981 65.3066 32.334 64.2832 31.63 63.5034C30.926 62.7236 30.0036 62.3338 28.8627 62.3338C27.7218 62.3338 26.7993 62.7236 26.0711 63.5034Z" fill="#C89E64"></path><path d="M54.4484 58.8004V72.8116C54.4484 74.2737 54.1085 75.5408 53.4288 76.613C52.7491 77.6851 51.7781 78.538 50.5401 79.1228C49.3021 79.7076 47.8699 80 46.2435 80C44.9812 80 43.7917 79.8294 42.6508 79.4639C41.5099 79.0984 40.4903 78.6111 39.5436 77.9775L41.17 74.8829C42.6265 75.9063 44.2044 76.4424 45.9522 76.4424C47.2145 76.4424 48.2097 76.1256 48.9622 75.5164C49.7148 74.8829 50.0789 74.0544 50.0789 73.0066V71.2521C49.5691 71.9831 48.9137 72.5436 48.1369 72.9091C47.3601 73.299 46.4619 73.4939 45.4424 73.4939C44.1316 73.4939 42.9664 73.1771 41.9468 72.568C40.9273 71.9344 40.1262 71.0816 39.5679 69.9363C39.0096 68.8154 38.7183 67.4996 38.7183 66.0375C38.7183 64.5755 39.0096 63.3084 39.5679 62.2118C40.1262 61.1153 40.9273 60.2624 41.9468 59.6533C42.9664 59.0441 44.1316 58.7273 45.4424 58.7273C46.4377 58.7273 47.3116 58.9222 48.1126 59.3121C48.8894 59.702 49.5448 60.2624 50.0789 60.9691V58.8735H54.4484V58.8004ZM49.0593 68.986C49.7148 68.2549 50.0546 67.2802 50.0546 66.1106C50.0546 64.9166 49.7148 63.9663 49.0593 63.2109C48.3797 62.4555 47.53 62.09 46.4619 62.09C45.3938 62.09 44.5199 62.4555 43.8645 63.2109C43.1848 63.9663 42.845 64.9166 42.845 66.1106C42.8693 67.3046 43.2091 68.2549 43.8645 68.986C44.5199 69.717 45.3938 70.0825 46.4862 70.0825C47.53 70.0825 48.3797 69.717 49.0593 68.986Z" fill="#C89E64"></path><path d="M71.2467 56.4124C70.2029 55.9738 69.1105 55.7545 67.9938 55.7545C66.4403 55.7545 65.0323 56.12 63.7457 56.8754C62.4592 57.6307 61.4396 58.6298 60.6871 59.9213C59.9346 61.2127 59.5462 62.6261 59.5462 64.1612C59.5462 65.6963 59.9346 67.1097 60.6871 68.3768C61.4396 69.6682 62.4592 70.6673 63.7457 71.447C65.0323 72.2024 66.4403 72.5923 67.9938 72.5923C69.1105 72.5923 70.1786 72.373 71.2224 71.9344C72.2662 71.4958 73.2129 70.911 74.014 70.1312L75.2035 71.4227C74.2082 72.3486 73.0673 73.0797 71.805 73.6157C70.5184 74.1518 69.2319 74.4199 67.8967 74.4199C66.0033 74.4199 64.2798 73.9569 62.7019 73.0309C61.1241 72.105 59.8618 70.8622 58.9393 69.3027C58.0169 67.7432 57.5557 66.0131 57.5557 64.1612C57.5557 62.3093 58.0169 60.6036 58.9636 59.0441C59.886 57.4845 61.1726 56.2662 62.7505 55.3646C64.3526 54.463 66.0761 54 67.9696 54C69.329 54 70.6398 54.2437 71.8778 54.7554C73.1401 55.2671 74.2325 55.9738 75.2035 56.8754L74.0383 58.2643C73.2372 57.4845 72.3148 56.851 71.2467 56.4124Z" fill="#F29400"></path><path d="M88.6274 74.2494L88.6032 71.7152C88.0206 72.5924 87.2438 73.2504 86.297 73.689C85.3503 74.1276 84.258 74.3469 82.9957 74.3469C81.9761 74.3469 81.1022 74.152 80.3254 73.7621C79.5486 73.3722 78.966 72.8361 78.5291 72.1295C78.1164 71.4472 77.8979 70.6674 77.8979 69.8146C77.8979 68.5231 78.4077 67.4997 79.403 66.7443C80.3983 65.9889 81.7819 65.6234 83.5297 65.6234H88.5546V64.4781C88.5546 63.2841 88.1905 62.3825 87.4865 61.7246C86.7825 61.0667 85.763 60.7499 84.4036 60.7499C82.8015 60.7499 81.1993 61.3591 79.5729 62.5531L78.7233 61.2372C79.7428 60.5306 80.6896 60.0189 81.612 59.6777C82.5344 59.3366 83.5783 59.166 84.7677 59.166C86.5883 59.166 87.972 59.629 88.9673 60.5306C89.9625 61.4322 90.4723 62.6993 90.4723 64.3075L90.4966 74.2738H88.6274V74.2494ZM86.7097 71.7883C87.6322 71.1548 88.2633 70.3019 88.5789 69.1566V67.0854H83.7482C82.4373 67.0854 81.4421 67.3047 80.7381 67.7433C80.0584 68.182 79.7186 68.8399 79.7186 69.7171C79.7186 70.6187 80.0584 71.3497 80.7138 71.8858C81.3693 72.4219 82.2431 72.7143 83.3355 72.7143C84.6706 72.7386 85.7873 72.4219 86.7097 71.7883Z" fill="#F29400"></path><path d="M103.192 73.2258C102.173 73.9325 101.056 74.298 99.8667 74.3467C98.7258 74.3467 97.8276 73.9812 97.1479 73.2745C96.4682 72.5679 96.1526 71.4957 96.1526 70.0824V61.1152H94.0165L93.9922 59.6288H96.1769V55.7544H98.0946V59.6288L102.95 59.6044V61.1152H98.0946V69.7656C98.0946 71.6176 98.7743 72.5435 100.158 72.5435C100.911 72.5435 101.76 72.2755 102.658 71.7394L103.192 73.2258Z" fill="#F29400"></path><path d="M109.285 79.0253C108.533 79.6101 107.659 79.9269 106.688 79.9269C105.523 79.9269 104.503 79.5857 103.605 78.9034L104.455 77.417C105.11 77.88 105.838 78.0993 106.591 78.0993C107.198 78.0993 107.756 77.9044 108.241 77.4901C108.727 77.0759 109.14 76.5154 109.479 75.7357L110.111 74.1762L103.896 59.2146H105.935L111.082 72.1293L116.034 59.2146H118L111.082 76.418C110.645 77.5632 110.038 78.4161 109.285 79.0253Z" fill="#F29400"></path><path d="M79.6276 46.923C77.1227 46.2181 76.717 46.9758 76.717 46.9758C76.717 46.9758 73.3301 44.1739 76.1348 39.2219C79.4159 34.5344 79.4865 29.0538 78.7632 24.8067C78.7809 24.7891 78.7985 24.7891 78.7985 24.7715C78.675 24.0666 78.4986 23.2912 78.2693 22.5158C77.546 19.6257 76.6111 17.7049 76.6111 17.7049C78.1282 15.8721 77.4931 13.8632 77.4931 13.8632C76.6111 13.3169 74.7236 14.4447 74.7236 14.4447C75.0412 13.405 74.4061 12.6472 74.4061 12.6472C73.2419 12.8234 72.5715 14.0394 72.5715 14.0394C71.8483 14.0394 70.5959 14.0746 69.6609 14.8324C68.726 15.5902 67.4206 15.8193 66.768 15.8721C66.1329 15.925 66.274 17.1762 66.274 17.1762C65.2156 22.7625 72.501 22.3748 72.501 22.3748C71.0898 23.256 67.8793 22.6392 67.8793 22.6392C67.8793 22.6392 67.8087 23.8904 67.1208 25.2825C71.178 27.5911 73.0478 30.5164 73.6299 35.2569C74.5472 42.7464 68.1086 49.9364 68.1086 49.9364H80.4567C80.439 49.954 82.1325 47.6279 79.6276 46.923Z" fill="#F29400"></path><path d="M63.6457 28.5604C65.4802 27.8203 66.521 26.4986 67.1031 25.3003C66.521 24.9654 65.9036 24.6482 65.2333 24.3487C56.5367 20.5422 52.2325 16.1013 52.2325 16.1013C45.8821 16.6124 46.5701 6.05651 46.5701 6.05651C46.5701 6.05651 47.5932 18.1984 53.4321 14.5153C55.5842 13.1584 55.3901 11.3256 54.3494 9.58101C57.9479 7.99498 61.2113 7.20197 60.9291 2.95495C60.8938 2.49676 60.5234 2.12669 60.0647 2.12669C58.4771 2.09144 54.9491 1.96809 54.2612 1.75662C53.3615 1.47466 50.8743 0.258704 49.2867 0.0648567C47.7167 -0.128991 43.9593 -0.217103 41.6661 4.8758C40.8723 6.62043 40.643 9.24618 40.643 12.0305C40.643 12.0305 41.5427 24.2077 41.4545 26.8334C41.5427 27.9789 41.6309 29.0891 41.7367 30.1288C42.4423 37.4774 42.654 45.3018 39.9021 46.6411C37.1503 47.9804 37.1503 50.3595 41.4545 49.9541H44.3474C44.3474 49.9541 45.4058 49.8308 46.2526 47.4165C47.0993 45.0199 47.946 43.6805 48.7927 36.05C48.7927 36.05 55.7958 37.3188 54.4552 45.2313C54.4552 45.2313 49.2161 44.6674 48.6516 47.9804L48.5634 49.4079C48.5634 49.4079 48.2988 49.9365 50.0452 49.9365C50.7684 49.9365 54.0318 49.9365 57.5951 49.9365C54.9668 39.4335 59.6767 30.1641 63.6457 28.5604Z" fill="#C89E64"></path><path d="M73.6123 35.2746C73.0301 30.5518 71.1603 27.6265 67.1031 25.3003C66.521 26.4986 65.4802 27.8203 63.6456 28.5605C59.6766 30.1465 54.9667 39.4335 57.5951 49.9365H68.1086C68.0909 49.9542 74.5296 42.7642 73.6123 35.2746Z" fill="#C4621B"></path></svg>