<svg xmlns="http://www.w3.org/2000/svg" width="76" height="80" viewBox="0 0 76 80" fill="none"><path fill-rule="evenodd" clip-rule="evenodd" d="M38 8.37131C39.975 5.76888 42.5223 3.6594 45.4432 2.20733C48.364 0.755269 51.5796 -0.000141841 54.8392 1.99766e-08C66.5251 1.99766e-08 76 9.5089 76 21.2368C76.0033 24.0264 75.4575 26.7893 74.3939 29.3667C73.3303 31.9441 71.7698 34.2852 69.8021 36.2557L42.2908 63.8658C41.1518 65.0055 39.6091 65.6455 38.0008 65.6455C36.3924 65.6455 34.8497 65.0055 33.7108 63.8658L6.20019 36.2564C4.23223 34.2861 2.67144 31.945 1.60744 29.3676C0.543438 26.7902 -0.00282582 24.0273 1.09924e-05 21.2375C1.09924e-05 9.50967 9.47487 0.000770973 21.1607 0.000770973C24.4203 0.000538777 27.6358 0.755827 30.5567 2.20776C33.4776 3.65968 36.0249 5.76902 38 8.37131Z" fill="#231F20"></path><path fill-rule="evenodd" clip-rule="evenodd" d="M38 11.5615C39.6986 8.58506 42.1504 6.11165 45.1073 4.39157C48.0643 2.6715 51.4215 1.7658 54.8393 1.76611C65.5536 1.76611 74.2403 10.484 74.2403 21.2368C74.2437 23.794 73.7438 26.3266 72.7692 28.6894C71.7946 31.0521 70.3646 33.1984 68.5612 35.0049L41.0491 62.6151C40.2403 63.4241 39.145 63.8784 38.0031 63.8784C36.8612 63.8784 35.7658 63.4241 34.9571 62.6151L7.445 35.0072C5.64026 33.2009 4.20895 31.0545 3.23329 28.6913C2.25764 26.3281 1.75688 23.7948 1.75978 21.2368C1.75978 10.484 10.4465 1.76611 21.1608 1.76611C24.5785 1.76588 27.9357 2.67162 30.8926 4.39168C33.8496 6.11174 36.3014 8.58511 38 11.5615Z" fill="#231F20"></path><path fill-rule="evenodd" clip-rule="evenodd" d="M21.1609 2.6394C28.6304 2.6394 35.067 7.07499 38.0001 13.4653C40.9333 7.07268 47.3699 2.6394 54.8394 2.6394C65.074 2.6394 73.3701 10.9653 73.3701 21.2367C73.3734 23.6794 72.8957 26.0987 71.9642 28.3555C71.0328 30.6123 69.6661 32.6621 67.9427 34.3871L40.4314 61.998C39.7857 62.6435 38.9115 63.0059 38.0001 63.0059C37.0888 63.0059 36.2146 62.6435 35.5689 61.998L8.05984 34.3902C6.33561 32.665 4.9682 30.6148 4.03625 28.3575C3.1043 26.1001 2.62618 23.6801 2.62941 21.2367C2.62941 10.9653 10.9262 2.6394 21.1609 2.6394Z" fill="#F68922"></path><path fill-rule="evenodd" clip-rule="evenodd" d="M37.9998 50.7463C39.4994 50.7463 41.0013 50.5776 43.276 50.2387C43.939 50.1426 44.5965 50.012 45.246 49.8474C45.811 49.7052 46.3658 49.525 46.9067 49.3083L47.0303 49.2582L47.1247 49.3537C47.5525 49.7925 47.9327 50.2755 48.259 50.7948C48.6045 51.3469 48.8979 51.9301 49.1354 52.537C49.204 52.7095 49.2689 52.8859 49.3303 53.0661L40.428 62.0004C39.7823 62.6459 38.9081 63.0083 37.9967 63.0083C37.0854 63.0083 36.2111 62.6459 35.5655 62.0004L26.6631 53.0661C26.725 52.8859 26.7902 52.7095 26.8588 52.537C27.096 51.93 27.3894 51.3467 27.7352 50.7948C28.0634 50.2752 28.4457 49.7922 28.8756 49.3537L28.9693 49.2582L29.0928 49.3083C29.6341 49.525 30.1891 49.7052 30.7544 49.8474C31.4038 50.012 32.0614 50.1426 32.7244 50.2387C34.9991 50.5776 36.501 50.7463 38.0006 50.7463H37.9998ZM34.8464 40.8553C34.8372 41.0227 34.8313 41.1811 34.8287 41.3305C34.8287 41.4268 34.8287 41.5208 34.8287 41.6132C34.8287 41.7056 34.8287 41.7927 34.8364 41.8851L34.8517 42.2278L34.5448 42.0738C34.3345 41.9668 34.1315 41.8461 33.9369 41.7126C33.7973 41.6171 33.6617 41.5144 33.5302 41.4045L33.3813 41.2712C33.2418 41.1466 33.1088 41.0147 32.983 40.8761C32.8569 40.7373 32.7383 40.5917 32.6277 40.4402L32.8195 40.1244C33.1241 40.1738 33.432 40.1995 33.7405 40.2014C34.0487 40.2029 34.3566 40.1807 34.6614 40.1352L34.9124 40.0967L34.8886 40.3524C34.8727 40.5203 34.8602 40.6874 34.851 40.8538L34.8464 40.8553ZM41.1532 40.8553C41.144 40.689 41.131 40.5218 41.1156 40.3539L41.0911 40.0982L41.3428 40.1367C41.9536 40.2285 42.5748 40.2254 43.1846 40.1275L43.3765 40.4433C43.2659 40.5948 43.1472 40.7403 43.0212 40.8792C42.8952 41.0176 42.7622 41.1495 42.6229 41.2743L42.474 41.4076C42.343 41.5169 42.2074 41.6196 42.0672 41.7156C41.8724 41.8492 41.6691 41.9699 41.4587 42.0769L41.1517 42.2309L41.1663 41.8882C41.1709 41.7957 41.1732 41.7049 41.1747 41.6163C41.1762 41.5277 41.1747 41.4299 41.1747 41.3336C41.1747 41.1842 41.1688 41.0258 41.1571 40.8584L41.1532 40.8553ZM40.3973 39.9149L40.5508 39.9619L40.6789 39.9996L40.6935 40.1321C40.7181 40.3452 40.7367 40.5521 40.7495 40.7529C40.7626 40.9478 40.771 41.1426 40.7733 41.3352C40.7875 41.8614 40.7435 42.3876 40.6421 42.9041C40.5613 43.3229 40.4053 43.7235 40.1816 44.0863C39.9879 44.3914 39.7249 44.6461 39.4142 44.8296C39.0836 45.019 38.718 45.1387 38.3398 45.1816C38.2753 45.19 38.2201 45.1962 38.1755 45.2C38.131 45.2039 38.0727 45.2077 38.0067 45.2108H37.9883C37.9223 45.2108 37.8655 45.2039 37.8187 45.2C37.7719 45.1962 37.7197 45.19 37.6552 45.1816C37.277 45.1387 36.9114 45.019 36.5808 44.8296C36.2701 44.6461 36.0071 44.3914 35.8133 44.0863C35.5897 43.7235 35.4336 43.3229 35.3529 42.9041C35.2511 42.3876 35.2071 41.8614 35.2216 41.3352C35.2216 41.1426 35.2324 40.9501 35.2454 40.7529C35.2585 40.5557 35.2769 40.3455 35.3015 40.1321L35.316 39.9996L35.4442 39.9619L35.5977 39.9149L35.7512 39.8641C36.5353 39.588 37.2538 39.1519 37.8616 38.5832L37.9975 38.4562L38.1333 38.5832C38.7411 39.1519 39.4597 39.588 40.2438 39.8641L40.3973 39.9149ZM37.9998 47.1433C41.022 47.1433 44.0496 46.4339 46.0971 45.016C47.1427 44.2885 48.0395 43.3663 48.7386 42.2995C49.47 41.1934 50.0233 39.9188 50.4117 38.5016C50.6994 37.4534 50.7716 36.6 50.734 35.839C50.6964 35.0781 50.5529 34.4203 50.4071 33.7533C50.315 33.332 50.2213 32.9061 50.153 32.4532C50.0774 31.9692 50.0407 31.4798 50.0433 30.9898V30.8928L49.9665 30.8327C49.3887 30.3706 49.1837 29.6943 49.1623 28.9311C49.14 28.137 49.3158 27.2366 49.4854 26.3671C49.6388 25.5676 49.7923 24.7982 49.757 24.1943C49.7417 23.9209 49.7194 23.6614 49.691 23.4126C49.6626 23.1638 49.6281 22.9197 49.5882 22.6863L49.5237 22.57C47.1626 20.4732 44.2462 19.1088 41.1279 18.642C40.0919 18.4859 39.0434 18.4294 37.9967 18.4733C34.8407 18.3367 31.7129 19.1208 28.9915 20.7308C28.0942 21.2618 27.2498 21.8779 26.4697 22.5708L26.4052 22.6871C26.3653 22.9181 26.3285 23.1615 26.3024 23.4134C26.2763 23.6652 26.2518 23.9217 26.2364 24.1951C26.2019 24.799 26.3515 25.5684 26.5081 26.3679C26.6777 27.2366 26.8534 28.1393 26.8312 28.9318C26.8097 29.6951 26.6048 30.369 26.0269 30.8335L25.9502 30.8936V30.9906C25.9533 31.4805 25.9169 31.9699 25.8412 32.454C25.7729 32.9069 25.6792 33.3328 25.5872 33.7541C25.4413 34.4211 25.2971 35.0781 25.2595 35.8398C25.2218 36.6015 25.2948 37.4572 25.5826 38.5024C25.9709 39.9195 26.5242 41.1981 27.2556 42.3002C27.9545 43.3672 28.8513 44.2894 29.8971 45.0167C31.9447 46.4347 34.9722 47.144 37.9944 47.144L37.9998 47.1433ZM42.0841 42.1747C42.3421 42.0145 42.5872 41.8342 42.817 41.6355L42.8838 41.5755C43.1421 41.3444 43.3794 41.0908 43.5929 40.8176C43.8064 40.5445 43.9949 40.2527 44.1562 39.9457L44.2652 39.851C45.0611 39.5639 45.7876 39.1115 46.3972 38.5232C47.0069 37.935 47.486 37.2243 47.8031 36.4375L47.8914 36.2187L48.1086 36.3504C48.0408 36.2685 47.9635 36.1951 47.8783 36.1317C47.7397 36.0294 47.5809 35.958 47.4126 35.9221C47.2442 35.8863 47.0702 35.8868 46.9021 35.9237C46.9497 35.9361 47.0057 35.9492 47.0664 35.963C47.127 35.9769 47.2045 35.9946 47.2966 36.0177L47.5169 36.0755L47.4317 36.2865C46.8926 37.6289 45.8584 38.711 44.5444 39.3075C43.2305 39.904 41.7379 39.969 40.3773 39.489C39.8799 39.3087 39.412 39.0551 38.989 38.7365C38.6222 38.4684 38.3 38.1438 38.0343 37.7745H37.9653C37.6996 38.1438 37.3774 38.4684 37.0106 38.7365C36.5876 39.0551 36.1197 39.3087 35.6222 39.489C34.2614 39.9686 32.7687 39.9031 31.4548 39.306C30.141 38.7089 29.1072 37.6262 28.5687 36.2834L28.4835 36.0724L28.7037 36.0146C28.7928 35.9915 28.8641 35.9753 28.934 35.9599C29.0038 35.9445 29.0506 35.933 29.099 35.9207C28.9309 35.8837 28.7569 35.8831 28.5885 35.919C28.4202 35.9548 28.2614 36.0263 28.1228 36.1286C28.0376 36.192 27.9603 36.2654 27.8926 36.3473L28.1082 36.2156L28.1965 36.4344C28.5134 37.2212 28.9923 37.9319 29.6019 38.5202C30.2114 39.1084 30.9378 39.5609 31.7336 39.8479L31.8434 39.9426C32.0047 40.2496 32.1932 40.5414 32.4067 40.8145C32.6202 41.0877 32.8575 41.3414 33.1158 41.5724L33.1825 41.6325C33.4123 41.8313 33.6573 42.0116 33.9155 42.1716C34.1996 42.3491 34.4985 42.5017 34.8088 42.6276L34.9116 42.6692L34.9308 42.7793C34.9784 43.0641 35.0513 43.344 35.1487 43.6157C35.235 43.8557 35.3475 44.0853 35.4841 44.3004C35.7061 44.6517 36.006 44.9467 36.3605 45.1623C36.7431 45.3848 37.1675 45.5254 37.6069 45.5751C37.6621 45.5821 37.7273 45.589 37.8033 45.5951C37.8793 45.6013 37.9407 45.6059 37.9998 45.6082C38.0589 45.6105 38.1241 45.6013 38.1955 45.5951C38.2669 45.589 38.3375 45.5821 38.3927 45.5751C38.8321 45.5254 39.2565 45.3848 39.639 45.1623C39.9935 44.9467 40.2935 44.6517 40.5155 44.3004C40.6521 44.0853 40.7646 43.8557 40.8508 43.6157C40.9482 43.344 41.0212 43.0641 41.0688 42.7793L41.088 42.6692L41.1908 42.6276C41.501 42.5015 41.7999 42.349 42.0841 42.1716V42.1747ZM45.0426 30.3136C44.7321 30.627 44.32 30.8184 43.881 30.8531C43.442 30.8878 43.0051 30.7635 42.6496 30.5027C42.294 30.2419 42.0433 29.8619 41.943 29.4316C41.8426 29.0013 41.8992 28.5491 42.1025 28.157C42.1472 28.2163 42.1987 28.2701 42.256 28.3172C42.4198 28.4523 42.6251 28.5266 42.8371 28.5274C43.0491 28.5283 43.2549 28.4557 43.4198 28.3219C43.5847 28.1881 43.6985 28.0014 43.7421 27.7931C43.7856 27.5849 43.7563 27.3679 43.6589 27.1789L43.6474 27.1573C43.6781 27.1573 43.7103 27.1573 43.7426 27.1573C44.1075 27.1564 44.4645 27.2643 44.7682 27.4674C45.072 27.6704 45.3087 27.9595 45.4485 28.2978C45.5883 28.6361 45.6248 29.0085 45.5533 29.3677C45.4819 29.7268 45.3057 30.0566 45.0472 30.3151L45.0426 30.3136ZM36.2723 35.9076C36.1841 35.9546 36.1059 36.0184 36.042 36.0955C35.9794 36.0075 35.9278 35.912 35.8886 35.8113C35.8402 35.6797 35.8097 35.5421 35.798 35.4023C35.755 34.9217 36.1763 34.5844 36.7657 34.3957C37.5694 34.1625 38.4225 34.1625 39.2262 34.3957C39.8156 34.5844 40.2369 34.9217 40.1939 35.4023C40.1823 35.5422 40.1516 35.6798 40.1026 35.8113C40.0648 35.9118 40.0148 36.0072 39.9537 36.0955C39.8899 36.0184 39.8117 35.9546 39.7235 35.9076C39.6078 35.8462 39.4784 35.816 39.3476 35.8196C39.2169 35.8233 39.0893 35.8608 38.9773 35.9286C38.8653 35.9963 38.7726 36.0919 38.7082 36.2062C38.6438 36.3204 38.61 36.4495 38.6099 36.5807C38.61 36.6189 38.6129 36.657 38.6183 36.6947C38.6183 36.7116 38.6245 36.7286 38.6283 36.7463C38.4205 36.7795 38.2102 36.7939 37.9998 36.7894C37.7866 36.7958 37.5733 36.7819 37.3628 36.7478C37.3672 36.7304 37.3706 36.7126 37.3728 36.6947C37.3789 36.657 37.382 36.6189 37.382 36.5807C37.3818 36.3786 37.3017 36.1849 37.1592 36.042C37.0167 35.8992 36.8236 35.819 36.6222 35.819C36.4988 35.8187 36.3772 35.8491 36.2684 35.9076H36.2723ZM33.5609 30.309C33.3466 30.5233 33.0829 30.6814 32.7933 30.7692C32.5036 30.857 32.1969 30.8718 31.9002 30.8123C31.6035 30.7529 31.3259 30.621 31.0921 30.4283C30.8582 30.2356 30.6752 29.9881 30.5594 29.7076C30.4435 29.4271 30.3982 29.1223 30.4276 28.8201C30.457 28.5178 30.5601 28.2275 30.7279 27.9748C30.8956 27.7221 31.1228 27.5148 31.3894 27.3711C31.6559 27.2274 31.9537 27.1519 32.2562 27.1511C32.2885 27.1511 32.3199 27.1511 32.3514 27.1511L32.3399 27.1727C32.2425 27.3617 32.2132 27.5787 32.2567 27.7869C32.3003 27.9952 32.4141 28.182 32.579 28.3158C32.7439 28.4495 32.9497 28.5221 33.1617 28.5213C33.3737 28.5204 33.579 28.4462 33.7428 28.3111C33.8001 28.264 33.8516 28.2102 33.8963 28.1509C34.0748 28.4998 34.1384 28.8965 34.078 29.2841C34.0176 29.6716 33.8363 30.0299 33.5601 30.3074L33.5609 30.309ZM50.0955 25.2326C50.1512 24.8804 50.1723 24.5237 50.1584 24.1674C50.1261 23.6228 50.041 23.0826 49.9044 22.5546C49.7666 22.0228 49.5869 21.5028 49.3672 20.9996C49.1892 20.5924 48.991 20.1944 48.7732 19.8073C48.9719 20.3356 49.1492 20.8486 49.2981 21.38L48.9834 21.5918C47.573 20.49 45.9955 19.6222 44.3112 19.0217C44.2176 18.9886 44.1347 18.9593 44.0634 18.9354C43.9713 18.9046 43.8876 18.8769 43.8124 18.853L43.54 18.7652L43.7157 18.5388C44.1748 17.9407 44.6963 17.3935 45.2713 16.9067C45.7805 16.4735 46.3472 16.1135 46.9551 15.8369C47.3732 15.6481 47.8153 15.5185 48.269 15.4518C48.6866 15.3906 49.1116 15.4005 49.526 15.4811C49.9249 15.5608 50.3057 15.7136 50.6496 15.9316C51.0037 16.1593 51.3167 16.4458 51.5751 16.7789C52.3134 17.7123 52.5091 18.2538 52.7501 18.9216C52.8544 19.2119 52.9688 19.5277 53.143 19.9136C53.1165 19.6616 53.0771 19.4112 53.0248 19.1634C52.9068 18.6035 52.7266 18.0586 52.4876 17.539L52.3065 17.1493L52.7378 17.2664C52.9719 17.33 53.2123 17.3671 53.4546 17.3773C53.6892 17.3874 53.9241 17.3696 54.1545 17.3241H54.1714C54.3867 17.2975 54.6045 17.2975 54.8199 17.3241C55.0077 17.3462 55.1898 17.4028 55.3571 17.4913C55.5082 17.5746 55.6404 17.6884 55.7454 17.8256C55.8574 17.9731 55.9445 18.138 56.0033 18.3139C56.1821 18.8284 56.1759 19.3798 56.08 19.9528C55.9841 20.5082 55.7999 21.0835 55.6142 21.665C55.4538 22.1687 55.2918 22.6763 55.1783 23.1915C55.0607 23.685 55.016 24.1931 55.0455 24.6996C55.0763 25.0148 55.1338 25.3269 55.2174 25.6323V25.6423C55.4175 26.412 55.5168 27.2045 55.5129 27.9999C55.5147 28.1634 55.5054 28.3268 55.4852 28.489C55.4656 28.6475 55.4341 28.8043 55.3908 28.958C55.3036 29.2725 55.164 29.5698 54.978 29.8376C54.7926 30.1036 54.5631 30.3357 54.2995 30.5239C54.0261 30.7176 53.7234 30.866 53.4032 30.9636C53.0672 31.0643 52.7185 31.1162 52.3679 31.1177C52.1579 31.1199 51.948 31.1063 51.7401 31.0769C51.524 31.0464 51.3101 31.0014 51.1001 30.9421C50.1024 30.6594 49.7041 29.9778 49.6089 29.119C49.5191 28.3095 49.7056 27.3552 49.8844 26.4418C49.9658 26.0243 50.0456 25.6146 50.0985 25.2349L50.0955 25.2326ZM26.3937 29.1167C26.2986 29.9755 25.9041 30.6571 24.9026 30.9398C24.6925 30.9991 24.4787 31.0441 24.2625 31.0745C24.0546 31.104 23.8448 31.1176 23.6348 31.1154C23.2841 31.1139 22.9355 31.062 22.5995 30.9613C22.2789 30.8621 21.9762 30.7118 21.7031 30.5162C21.4395 30.328 21.2101 30.0959 21.0247 29.8299C20.8387 29.5621 20.6991 29.2648 20.6118 28.9503C20.5686 28.7966 20.537 28.6398 20.5174 28.4813C20.4968 28.3191 20.4876 28.1557 20.4898 27.9922C20.4858 27.1968 20.5851 26.4043 20.7853 25.6346V25.6246C20.8689 25.3192 20.9262 25.0072 20.9564 24.6919C20.9861 24.1854 20.9417 23.6773 20.8244 23.1838C20.7108 22.6686 20.5489 22.161 20.3885 21.6573C20.2028 21.0758 20.0186 20.502 19.9227 19.9451C19.8237 19.3721 19.8175 18.8207 19.9994 18.3062C20.0581 18.1303 20.1453 17.9654 20.2573 17.8179C20.3623 17.6807 20.4945 17.5669 20.6456 17.4836C20.8129 17.3951 20.995 17.3385 21.1828 17.3164C21.3981 17.2898 21.6159 17.2898 21.8313 17.3164H21.8474C22.078 17.3618 22.3132 17.3797 22.5481 17.3696C22.7904 17.3594 23.0308 17.3223 23.2649 17.2587L23.6954 17.1416L23.5151 17.5313C23.276 18.0509 23.0959 18.5958 22.9778 19.1557C22.9257 19.4036 22.886 19.654 22.8589 19.9059C23.0339 19.5208 23.1482 19.2042 23.2526 18.9138C23.4936 18.2461 23.6893 17.7046 24.4275 16.7711C24.686 16.4381 24.9989 16.1516 25.3531 15.9239C25.6966 15.7059 26.0772 15.5532 26.4759 15.4734C26.8903 15.3928 27.3152 15.3829 27.7329 15.4441C28.1868 15.5108 28.6292 15.6404 29.0476 15.8292C29.6555 16.1058 30.2222 16.4658 30.7313 16.899C31.3063 17.3858 31.8278 17.933 32.2869 18.5311L32.4627 18.7575L32.1902 18.8453C32.1135 18.8692 32.0314 18.8969 31.9393 18.9277C31.8679 18.9516 31.7858 18.9809 31.6906 19.014C30.0067 19.6148 28.4296 20.4825 27.0192 21.5841L26.7046 21.3723C26.8534 20.8409 27.0307 20.3279 27.2295 19.7996C27.0114 20.1866 26.8131 20.5845 26.6355 20.9919C26.4157 21.4951 26.2361 22.0151 26.0983 22.5469C25.9614 23.0749 25.8761 23.6151 25.8435 24.1597C25.8304 24.5159 25.8514 24.8727 25.9064 25.2249C25.9601 25.6046 26.0399 26.0143 26.1213 26.4318C26.3001 27.3452 26.4858 28.2995 26.3968 29.109L26.3937 29.1167ZM37.9998 50.3465C39.4787 50.3465 40.9552 50.1786 43.2184 49.842C43.8799 49.7459 44.536 49.6151 45.1838 49.45C45.7466 49.3075 46.2987 49.1255 46.8361 48.9055L46.9183 48.8708L46.9482 48.7861C47.1316 48.2605 47.2037 47.7023 47.16 47.1471C47.1068 46.5355 46.9533 45.937 46.7057 45.3756L46.6097 45.1446L46.3649 45.3163L46.3243 45.3448C44.2092 46.8082 41.1056 47.5422 38.0006 47.5422C34.8955 47.5422 31.7919 46.8098 29.6769 45.3448L29.6362 45.3163L29.3914 45.1446L29.2947 45.3756C29.0476 45.9371 28.8944 46.5356 28.8411 47.1471C28.7974 47.7023 28.8696 48.2605 29.0529 48.7861L29.0829 48.8708L29.1642 48.9055C29.7017 49.1253 30.2538 49.3072 30.8165 49.45C31.4644 49.6149 32.1204 49.7458 32.7819 49.842C35.0444 50.1786 36.5202 50.3465 37.9998 50.3465Z" fill="url(#paint0_linear_377_24060)"></path><path fill-rule="evenodd" clip-rule="evenodd" d="M26.4394 24.2005C26.4056 24.7789 26.5538 25.5368 26.7073 26.3247C27.1263 28.4682 27.5829 30.8073 25.0649 31.519C24.5986 31.6527 24.1156 31.7189 23.6306 31.7154C22.8177 31.719 22.0234 31.4719 21.3551 31.0076C20.7108 30.5482 20.2443 29.8798 20.0343 29.1152C19.9335 28.7488 19.8854 28.3699 19.8916 27.9899C19.8865 27.1452 19.9915 26.3034 20.2039 25.486C20.2787 25.2121 20.3301 24.9322 20.3574 24.6496C20.4265 23.7507 20.1187 22.7887 19.8202 21.8429C19.4127 20.5667 19.0136 19.3174 19.4365 18.1105C19.6207 17.5791 19.9277 17.1953 20.3574 16.9591C20.7734 16.7311 21.2886 16.6523 21.9031 16.7226L21.9391 16.7288C22.326 16.8047 22.7252 16.7888 23.1049 16.6826C23.511 16.5712 23.889 16.3746 24.2138 16.1057L24.7203 16.7273C24.3073 17.0679 23.8271 17.317 23.3113 17.4582C22.8204 17.5939 22.3049 17.6144 21.8048 17.5183C21.3589 17.469 21.0044 17.5183 20.7388 17.6623C20.4879 17.7994 20.3029 18.0366 20.1863 18.3747C19.8547 19.3282 20.2131 20.4543 20.5792 21.5988C20.9054 22.6201 21.2377 23.6591 21.1571 24.7089C21.1259 25.0353 21.0668 25.3584 20.9806 25.6747C20.7827 26.4324 20.6844 27.2128 20.6882 27.9961C20.6835 28.301 20.7225 28.605 20.8041 28.8987C20.965 29.4874 21.3237 30.0022 21.8194 30.356C22.3538 30.7249 22.9881 30.9203 23.6367 30.9159C24.0468 30.9179 24.4552 30.8611 24.8493 30.7472C26.6566 30.2374 26.2736 28.2757 25.9237 26.4788C25.7602 25.6431 25.6037 24.839 25.6428 24.1574C25.7073 23.0367 26.0035 21.9531 26.4517 20.9225C26.909 19.8968 27.4765 18.9242 28.1439 18.022C27.2752 20.234 26.5806 21.7359 26.4394 24.2005Z" fill="#231F20"></path><path fill-rule="evenodd" clip-rule="evenodd" d="M31.888 19.5894C29.9344 20.2861 28.1332 21.3549 26.5835 22.7372L26.0547 22.138C27.6815 20.6877 29.5721 19.5663 31.6225 18.8353C35.4221 17.4813 40.5778 17.4813 44.3774 18.8353C46.4278 19.5665 48.3183 20.6879 49.9452 22.138L49.4164 22.7372C47.8665 21.3557 46.0653 20.2877 44.1119 19.5917C40.4811 18.2954 35.5188 18.2954 31.888 19.5894Z" fill="#231F20"></path><path fill-rule="evenodd" clip-rule="evenodd" d="M32.4628 19.1171C31.3708 17.5767 30.1513 16.5492 28.9648 16.0247C28.1053 15.6442 27.2665 15.531 26.5129 15.682C25.7723 15.8314 25.1069 16.2396 24.5812 16.9051C23.3356 18.4809 23.6779 18.9076 22.6219 20.8238C22.569 18.9954 23.285 17.2547 23.9557 16.406C24.6042 15.5857 25.4308 15.0804 26.3571 14.8948C27.2703 14.7107 28.2757 14.8417 29.2872 15.2899C30.598 15.8707 31.9325 16.989 33.1129 18.6526L32.4628 19.1171Z" fill="#231F20"></path><path fill-rule="evenodd" clip-rule="evenodd" d="M29.5666 45.5096C27.2935 43.9353 25.8169 41.5816 25.0149 38.6594C24.401 36.4151 24.7003 35.0395 25.0103 33.6262C25.1999 32.7612 25.394 31.8801 25.3572 30.781L26.1546 30.7556C26.1937 31.9625 25.9911 32.8875 25.7916 33.7956C25.503 35.1157 25.2214 36.3989 25.7839 38.4492C26.536 41.1903 27.9112 43.39 30.0202 44.8511C34.0454 47.6392 41.9624 47.6392 45.9876 44.8511C48.0966 43.3877 49.4718 41.1903 50.2239 38.4492C50.7865 36.3989 50.5048 35.1157 50.2155 33.7956C50.0167 32.8875 49.8141 31.9625 49.8532 30.7556L50.6506 30.781C50.6153 31.8801 50.8041 32.7612 50.9975 33.6262C51.3045 35.0402 51.6115 36.4151 50.9929 38.6594C50.1909 41.5862 48.7144 43.9353 46.4412 45.5096C42.1374 48.4887 33.8643 48.4887 29.5666 45.5096Z" fill="#231F20"></path><path fill-rule="evenodd" clip-rule="evenodd" d="M29.6796 45.0159C28.9986 46.3771 28.8523 47.6117 29.2406 48.7198C30.2179 49.1264 31.4079 49.4345 32.8108 49.644C37.3149 50.3141 38.6856 50.3141 43.1897 49.644C44.5931 49.4355 45.7832 49.1274 46.7599 48.7198C47.1477 47.6122 47.0014 46.3776 46.3209 45.0159L47.0338 44.6577C47.8524 46.2977 47.989 47.8019 47.4436 49.1703L47.2326 49.3883C46.1582 49.8571 44.8489 50.2068 43.3048 50.4373C38.7355 51.1174 37.265 51.1174 32.6949 50.4373C31.1493 50.2068 29.8403 49.8571 28.7679 49.3883L28.5569 49.1703C28.0104 47.8019 28.147 46.2977 28.9667 44.6577L29.6796 45.0159Z" fill="#231F20"></path><path fill-rule="evenodd" clip-rule="evenodd" d="M29.2019 49.3091C28.2933 50.1784 27.577 51.2782 27.0531 52.6086C26.9764 52.8073 26.8996 53.0122 26.8298 53.2248L26.2051 52.597C26.2396 52.5031 26.2757 52.4091 26.3125 52.3167C26.883 50.8754 27.664 49.6806 28.6555 48.7322L29.2019 49.3091Z" fill="#231F20"></path><path fill-rule="evenodd" clip-rule="evenodd" d="M37.9998 38.7297C37.2561 39.4259 36.3533 39.928 35.3709 40.192C34.3884 40.4559 33.3564 40.4735 32.3656 40.2432C31.3748 40.013 30.4555 39.5419 29.6886 38.8714C28.9218 38.201 28.3308 37.3517 27.9678 36.3983L28.7153 36.1133C29.2176 37.4338 30.2136 38.5053 31.4913 39.0999C32.769 39.6944 34.2275 39.765 35.5563 39.2965C36.4219 38.9884 37.3789 38.3222 37.8586 37.5713H38.1395C38.6199 38.3222 39.5769 38.9923 40.4418 39.2965C41.7706 39.7637 43.2286 39.6926 44.506 39.0982C45.7834 38.5038 46.7795 37.433 47.2828 36.1133L48.0303 36.3983C47.6671 37.3516 47.076 38.2007 46.3092 38.8711C45.5423 39.5414 44.6231 40.0124 43.6323 40.2426C42.6416 40.4729 41.6096 40.4553 40.6272 40.1915C39.6448 39.9277 38.7421 39.4257 37.9983 38.7297H37.9998Z" fill="#231F20"></path><path fill-rule="evenodd" clip-rule="evenodd" d="M35.538 39.8872C35.4738 40.3682 35.4367 40.8524 35.4268 41.3375C35.4104 42.4903 35.5976 43.3706 35.9885 43.9785C36.3554 44.5485 36.9199 44.8822 37.6823 44.9798C37.7846 44.9932 37.8905 45.0024 38 45.0075C38.109 45.0019 38.2149 44.9926 38.3177 44.9798C39.08 44.8807 39.6446 44.547 40.0115 43.9785C40.4023 43.3711 40.5894 42.4908 40.5725 41.3375C40.5632 40.8524 40.5263 40.3682 40.462 39.8872L41.2532 39.7871C41.3207 40.298 41.3599 40.8123 41.3706 41.3275C41.389 42.6425 41.1588 43.6694 40.6799 44.4083C40.179 45.1867 39.4236 45.6419 38.4136 45.7739C38.2793 45.7908 38.1404 45.8032 37.9962 45.8085C37.8519 45.8139 37.713 45.7908 37.5787 45.7739C36.5687 45.6419 35.8133 45.1867 35.3124 44.4083C34.8361 43.6674 34.6071 42.6404 34.6255 41.3275C34.6354 40.8122 34.6747 40.2979 34.743 39.7871L35.538 39.8872Z" fill="#231F20"></path><path fill-rule="evenodd" clip-rule="evenodd" d="M34.9581 42.9025C34.2305 42.6404 33.5598 42.2403 32.9827 41.7241C32.4063 41.2074 31.934 40.5846 31.5913 39.8895L32.3081 39.5344C32.6043 40.1382 33.0136 40.6789 33.5138 41.1272C34.0142 41.5754 34.5957 41.9231 35.2267 42.1516L34.9581 42.9025Z" fill="#231F20"></path><path fill-rule="evenodd" clip-rule="evenodd" d="M35.6031 35.4215C35.6247 35.7315 35.7368 36.0283 35.9254 36.2748C35.9397 36.2932 35.9582 36.3079 35.9793 36.3178C36.0003 36.3277 36.0234 36.3324 36.0467 36.3317C36.0699 36.3309 36.0926 36.3247 36.113 36.3135C36.1334 36.3023 36.1509 36.2864 36.1641 36.2671C36.2311 36.1677 36.3282 36.0924 36.4411 36.0525C36.5539 36.0126 36.6766 36.0101 36.7909 36.0453C36.9053 36.0806 37.0054 36.1518 37.0764 36.2484C37.1475 36.3451 37.1857 36.4621 37.1855 36.5822C37.1854 36.6386 37.1768 36.6946 37.1602 36.7485C37.1534 36.7696 37.1516 36.7919 37.1548 36.8138C37.158 36.8357 37.1661 36.8566 37.1786 36.8748C37.2861 37.0343 38.7196 37.0289 38.8202 36.8748C38.8328 36.8567 38.8411 36.8358 38.8444 36.8139C38.8477 36.792 38.846 36.7696 38.8394 36.7485C38.8224 36.6947 38.8138 36.6386 38.814 36.5822C38.8139 36.4621 38.8521 36.3451 38.9231 36.2484C38.9942 36.1518 39.0943 36.0806 39.2086 36.0453C39.323 36.0101 39.4457 36.0126 39.5585 36.0525C39.6714 36.0924 39.7685 36.1677 39.8355 36.2671C39.8487 36.2864 39.8661 36.3023 39.8865 36.3135C39.9069 36.3247 39.9297 36.3309 39.9529 36.3317C39.9761 36.3324 39.9992 36.3277 40.0203 36.3178C40.0414 36.3079 40.0598 36.2932 40.0742 36.2748C40.2628 36.0283 40.3748 35.7315 40.3965 35.4215C40.5623 33.5545 35.4373 33.5545 35.6031 35.4215Z" fill="#231F20"></path><path fill-rule="evenodd" clip-rule="evenodd" d="M32.2587 26.9546C32.4229 26.9547 32.5865 26.9744 32.746 27.0131C32.6488 27.0807 32.5697 27.1712 32.5156 27.2767C32.4615 27.3822 32.4341 27.4995 32.4358 27.6181C32.4375 27.7368 32.4683 27.8532 32.5254 27.9571C32.5825 28.061 32.6642 28.1491 32.7633 28.2139C32.8624 28.2786 32.9759 28.3178 33.0937 28.3281C33.2115 28.3385 33.33 28.3195 33.4387 28.273C33.5475 28.2265 33.6432 28.1539 33.7174 28.0615C33.7916 27.9691 33.842 27.8598 33.8642 27.7433C34.1484 28.1082 34.301 28.5589 34.2971 29.0221C34.2932 29.4852 34.1331 29.9333 33.8429 30.2934C33.5526 30.6534 33.1494 30.9042 32.699 31.0047C32.2485 31.1053 31.7774 31.0497 31.3624 30.847C30.9475 30.6444 30.6132 30.3066 30.4141 29.8888C30.215 29.471 30.1629 28.9978 30.2661 28.5464C30.3694 28.095 30.622 27.6921 30.9827 27.4033C31.3435 27.1145 31.7911 26.9569 32.2526 26.9561L32.2587 26.9546Z" fill="#231F20"></path><path fill-rule="evenodd" clip-rule="evenodd" d="M49.5606 24.2005C49.5944 24.7789 49.4462 25.5368 49.292 26.3247C48.8737 28.4682 48.4171 30.8073 50.9351 31.519C51.4014 31.6527 51.8844 31.7189 52.3694 31.7154C53.1818 31.719 53.9756 31.4719 54.6434 31.0076C55.2886 30.5488 55.7561 29.8802 55.9664 29.1152C56.0673 28.7488 56.1154 28.3699 56.1092 27.9899C56.1138 27.1451 56.0083 26.3033 55.7953 25.486C55.7205 25.2121 55.6692 24.9322 55.6418 24.6496C55.5727 23.7507 55.8797 22.7887 56.179 21.8429C56.5865 20.5667 56.9856 19.3174 56.5628 18.1105C56.3781 17.5791 56.0711 17.1953 55.6418 16.9591C55.2259 16.7311 54.7107 16.6523 54.0962 16.7226L54.0601 16.7288C53.6732 16.8047 53.2741 16.7888 52.8944 16.6826C52.4882 16.5712 52.1102 16.3746 51.7854 16.1057L51.2789 16.7273C51.6919 17.0679 52.1721 17.317 52.6879 17.4582C53.1789 17.5939 53.6943 17.6144 54.1944 17.5183C54.6395 17.4669 54.9949 17.5149 55.2604 17.6623C55.5111 17.7994 55.6953 18.0369 55.813 18.3747C56.1445 19.3282 55.7861 20.4543 55.42 21.5988C55.0939 22.6201 54.7616 23.6591 54.8421 24.7089C54.873 25.0353 54.932 25.3585 55.0187 25.6747C55.2165 26.4324 55.3148 27.2128 55.311 27.9961C55.317 28.3008 55.2793 28.6048 55.199 28.8987C55.038 29.4874 54.6794 30.0022 54.1837 30.356C53.6493 30.7249 53.015 30.9203 52.3664 30.9159C51.9562 30.918 51.5479 30.8612 51.1538 30.7472C49.3465 30.2374 49.7294 28.2757 50.0794 26.4788C50.2429 25.6431 50.3994 24.839 50.3603 24.1574C50.2958 23.0367 49.9996 21.9531 49.5514 20.9225C49.0941 19.8967 48.5263 18.924 47.8584 18.022C48.7248 20.234 49.4186 21.7359 49.5606 24.2005Z" fill="#231F20"></path><path fill-rule="evenodd" clip-rule="evenodd" d="M43.5339 19.1171C44.626 17.5767 45.8454 16.5492 47.0319 16.0247C47.8914 15.6442 48.7302 15.531 49.4877 15.682C50.2283 15.8314 50.8937 16.2396 51.4194 16.9051C52.6649 18.4809 52.3219 18.9076 53.3787 20.8238C53.4316 18.9954 52.7156 17.2547 52.0448 16.406C51.3964 15.5857 50.5698 15.0804 49.6435 14.8948C48.7302 14.7107 47.7249 14.8417 46.7134 15.2899C45.4026 15.8707 44.0673 16.989 42.8877 18.6526L43.5339 19.1171Z" fill="#231F20"></path><path fill-rule="evenodd" clip-rule="evenodd" d="M46.7979 49.3091C47.7055 50.1784 48.4218 51.2782 48.9467 52.6086C49.0234 52.8073 49.1002 53.0122 49.17 53.2248L49.7947 52.5978C49.7602 52.5031 49.7241 52.4091 49.6873 52.3167C49.1173 50.8754 48.3363 49.6806 47.3443 48.7322L46.7979 49.3091Z" fill="#231F20"></path><path fill-rule="evenodd" clip-rule="evenodd" d="M41.0424 42.9025C41.7699 42.6405 42.4403 42.2405 43.017 41.7241C43.5938 41.2076 44.0664 40.5848 44.4092 39.8895L43.6924 39.5344C43.3962 40.1382 42.9868 40.6789 42.4867 41.1272C41.985 41.5736 41.4028 41.9195 40.7715 42.1462L41.0424 42.9025Z" fill="#231F20"></path><path fill-rule="evenodd" clip-rule="evenodd" d="M43.7412 26.9546C43.5771 26.9547 43.4135 26.9744 43.2539 27.0131C43.3506 27.0811 43.4291 27.1719 43.4827 27.2775C43.5362 27.383 43.563 27.5002 43.5609 27.6186C43.5587 27.7371 43.5276 27.8532 43.4703 27.9567C43.4129 28.0603 43.3311 28.1481 43.2321 28.2125C43.133 28.2769 43.0196 28.3159 42.902 28.326C42.7844 28.3361 42.6661 28.3171 42.5576 28.2706C42.449 28.2241 42.3535 28.1516 42.2794 28.0594C42.2053 27.9671 42.1549 27.8581 42.1327 27.7417C41.8485 28.1066 41.6959 28.5574 41.6998 29.0205C41.7037 29.4836 41.8638 29.9317 42.154 30.2918C42.4442 30.6519 42.8474 30.9026 43.2979 31.0032C43.7484 31.1037 44.2195 31.0481 44.6344 30.8455C45.0494 30.6428 45.3836 30.305 45.5827 29.8872C45.7818 29.4694 45.834 28.9963 45.7307 28.5449C45.6275 28.0935 45.3749 27.6905 45.0141 27.4017C44.6534 27.1129 44.2058 26.9553 43.7443 26.9546H43.7412Z" fill="#231F20"></path><path fill-rule="evenodd" clip-rule="evenodd" d="M27.2959 37.2044C27.4816 36.244 28.1976 35.4121 29.3841 35.7865C29.6757 36.3618 28.2069 35.8388 27.2959 37.2044Z" fill="#231F20"></path><path fill-rule="evenodd" clip-rule="evenodd" d="M48.704 37.2044C48.5183 36.244 47.8023 35.4121 46.6158 35.7865C46.3242 36.3618 47.7931 35.8388 48.704 37.2044Z" fill="#231F20"></path><path fill-rule="evenodd" clip-rule="evenodd" d="M36.5503 30.9667C38.0254 29.312 38.9752 27.2533 39.278 25.0539C39.5808 22.8545 39.2229 20.6145 38.2501 18.6204C36.0192 18.5942 33.7752 18.9177 31.8896 19.5893C29.9453 20.2821 28.1517 21.3434 26.6065 22.7155C26.5231 23.207 26.4673 23.7027 26.4392 24.2005C26.4054 24.7789 26.5535 25.5368 26.707 26.3247C27.0501 28.0807 27.4192 29.9693 26.1552 30.9852C26.1637 32.0812 25.9741 32.9453 25.7876 33.7956C25.7454 33.9897 25.7032 34.1807 25.6641 34.3771C27.6164 34.8481 29.6593 34.7797 31.576 34.1792C33.4927 33.5787 35.2116 32.4686 36.5503 30.9667ZM32.2602 26.9547C32.4244 26.9549 32.588 26.9745 32.7476 27.0132C32.6501 27.0806 32.5706 27.171 32.5162 27.2765C32.4617 27.382 32.434 27.4994 32.4355 27.6182C32.437 27.737 32.4677 27.8535 32.5247 27.9576C32.5818 28.0617 32.6635 28.1501 32.7627 28.215C32.8619 28.2798 32.9755 28.3191 33.0934 28.3295C33.2113 28.3398 33.33 28.3208 33.4389 28.2742C33.5478 28.2276 33.6435 28.1548 33.7177 28.0622C33.7919 27.9696 33.8422 27.8601 33.8642 27.7434C34.1484 28.1083 34.301 28.5591 34.2971 29.0222C34.2932 29.4853 34.1331 29.9334 33.8429 30.2935C33.5526 30.6535 33.1494 30.9043 32.699 31.0048C32.2485 31.1054 31.7774 31.0498 31.3624 30.8471C30.9475 30.6445 30.6132 30.3067 30.4141 29.8889C30.215 29.4711 30.1629 28.9979 30.2661 28.5465C30.3694 28.0952 30.622 27.6922 30.9827 27.4034C31.3435 27.1146 31.7911 26.957 32.2526 26.9563L32.2602 26.9547Z" fill="#F68922"></path><path fill-rule="evenodd" clip-rule="evenodd" d="M26.894 21.4339C28.3211 20.3182 29.9175 19.44 31.6223 18.8329C31.788 18.7736 31.9569 18.7174 32.128 18.6627C31.125 17.3711 30.0314 16.493 28.9646 16.0209C28.1051 15.6404 27.2663 15.5272 26.5126 15.6782C25.772 15.8276 25.1067 16.2358 24.581 16.9012C23.3354 18.4771 23.6777 18.9038 22.6217 20.82C22.6008 19.6582 22.843 18.5069 23.33 17.4527L23.3124 17.4581C22.8215 17.5938 22.306 17.6143 21.8059 17.5182C21.36 17.4689 21.0054 17.5182 20.7399 17.6622C20.489 17.7993 20.304 18.0365 20.1874 18.3746C19.8558 19.3281 20.2142 20.4542 20.5803 21.5987C20.9064 22.62 21.2387 23.659 21.1582 24.7088C21.127 25.0352 21.0679 25.3583 20.9817 25.6746C20.7838 26.4323 20.6855 27.2127 20.6893 27.996C20.684 28.3008 20.7225 28.6048 20.8036 28.8987C20.9646 29.4873 21.3232 30.0021 21.8189 30.3559C22.3533 30.7248 22.9876 30.9202 23.6362 30.9158C24.0464 30.9178 24.4547 30.861 24.8488 30.7471C26.6561 30.2373 26.2732 28.2756 25.9232 26.4787C25.7598 25.643 25.6032 24.8389 25.6423 24.1573C25.7068 23.0367 26.003 21.953 26.4512 20.9225C26.9086 19.8967 27.476 18.9241 28.1434 18.0219C27.6477 19.2865 27.2064 20.3202 26.894 21.4339Z" fill="#F68922"></path><path fill-rule="evenodd" clip-rule="evenodd" d="M47.8564 18.0189C48.5244 18.9209 49.0921 19.8936 49.5494 20.9195C49.9976 21.9523 50.2938 23.036 50.3583 24.1543C50.3974 24.8359 50.2409 25.64 50.0774 26.4757C49.7267 28.2726 49.3437 30.2343 51.1518 30.7441C51.5459 30.8581 51.9543 30.9149 52.3644 30.9128C53.013 30.9172 53.6473 30.7218 54.1817 30.3529C54.6777 30.0003 55.0371 29.4866 55.1993 28.8987C55.2803 28.6052 55.3188 28.3014 55.3137 27.9968C55.3174 27.2136 55.2192 26.4331 55.0213 25.6754C54.9347 25.3592 54.8756 25.0361 54.8448 24.7096C54.768 23.6598 55.0965 22.6208 55.4227 21.5995C55.7887 20.4519 56.1471 19.329 55.8156 18.3755C55.6984 18.0376 55.5142 17.8001 55.263 17.663C54.9975 17.5177 54.6422 17.4697 54.197 17.519C53.6969 17.6152 53.1815 17.5946 52.6906 17.4589L52.6729 17.4536C53.1599 18.5077 53.4021 19.6591 53.3813 20.8209C52.3245 18.9077 52.6675 18.4779 51.422 16.9021C50.8963 16.2366 50.2309 15.8284 49.4903 15.679C48.7367 15.525 47.8979 15.6413 47.0345 16.0217C45.9677 16.4939 44.8741 17.3719 43.8711 18.6635C44.0422 18.7182 44.2111 18.7744 44.3768 18.8338C46.0814 19.4409 47.6775 20.3191 49.1043 21.4347C48.7935 20.3202 48.3537 19.2866 47.8564 18.0189Z" fill="#F68922"></path><path fill-rule="evenodd" clip-rule="evenodd" d="M46.4371 45.5095C42.1394 48.4886 33.8625 48.4886 29.5625 45.5095L29.4781 45.4502C28.9731 46.6414 28.8938 47.7313 29.2402 48.7197C30.2174 49.1264 31.4075 49.4344 32.8103 49.6439C37.3145 50.314 38.6851 50.314 43.1893 49.6439C44.5927 49.4355 45.7827 49.1274 46.7594 48.7197C47.1058 47.7308 47.0265 46.6409 46.5215 45.4502L46.4371 45.5095Z" fill="#4BBACD"></path><path fill-rule="evenodd" clip-rule="evenodd" d="M29.4846 55.8912C30.0424 53.9443 30.8057 52.0629 31.7616 50.2787C30.8239 50.1068 29.9051 49.844 29.018 49.4939C28.1958 50.3324 27.5396 51.3714 27.0495 52.6109C26.9728 52.8096 26.896 53.0145 26.8262 53.2271L29.4846 55.8912Z" fill="#F68922"></path><path fill-rule="evenodd" clip-rule="evenodd" d="M44.2388 50.2786C45.1947 52.0628 45.958 53.9443 46.5158 55.8911L49.1742 53.2239C49.1036 53.0144 49.0291 52.8095 48.9509 52.6077C48.4607 51.3687 47.8046 50.3297 46.9824 49.4907C46.0954 49.8418 45.1766 50.1057 44.2388 50.2786Z" fill="#F68922"></path><path fill-rule="evenodd" clip-rule="evenodd" d="M38.3154 44.9828C39.0777 44.8837 39.6423 44.55 40.0091 43.9816C40.4 43.3741 40.587 42.4938 40.5701 41.3406C40.5645 40.9734 40.5389 40.5788 40.4934 40.1568C40.3875 40.126 40.2831 40.0928 40.1802 40.0559C39.3698 39.7711 38.6271 39.3205 37.9992 38.7327C37.3712 39.3204 36.6285 39.7709 35.8181 40.0559C35.7153 40.0928 35.6101 40.126 35.505 40.1568C35.4579 40.5788 35.4323 40.9734 35.4282 41.3406C35.4119 42.4933 35.5991 43.3736 35.99 43.9816C36.3568 44.5515 36.9214 44.8853 37.6838 44.9828C37.7861 44.9962 37.892 45.0054 38.0015 45.0106C38.1084 45.0049 38.213 44.9957 38.3154 44.9828Z" fill="#EE283D"></path><path fill-rule="evenodd" clip-rule="evenodd" d="M34.7554 41.4007C34.7605 41.0341 34.7822 40.649 34.8206 40.2454C34.0858 40.3556 33.3386 40.3517 32.605 40.2339C32.8536 40.5736 33.1365 40.8867 33.4492 41.1681C33.8457 41.5233 34.2866 41.8252 34.7607 42.0662C34.7541 41.8505 34.7523 41.6287 34.7554 41.4007Z" fill="#231F20"></path><path fill-rule="evenodd" clip-rule="evenodd" d="M41.1426 40.2206C41.1825 40.6411 41.205 41.0419 41.2101 41.4229C41.2142 41.6586 41.2111 41.8868 41.2009 42.1076C41.6924 41.8578 42.1493 41.5448 42.5601 41.1764C42.8852 40.8847 43.1794 40.56 43.438 40.2075C42.6781 40.3299 41.9039 40.3343 41.1426 40.2206Z" fill="#231F20"></path><path fill-rule="evenodd" clip-rule="evenodd" d="M38.0033 48.6482C38.4141 48.6482 38.8158 48.7705 39.1574 48.9996C39.4991 49.2287 39.7653 49.5543 39.9226 49.9353C40.0798 50.3162 40.121 50.7354 40.0408 51.1399C39.9606 51.5443 39.7628 51.9158 39.4722 52.2074C39.1817 52.499 38.8115 52.6976 38.4085 52.778C38.0056 52.8584 37.5879 52.8172 37.2082 52.6593C36.8286 52.5015 36.5042 52.2343 36.2759 51.8915C36.0476 51.5486 35.9258 51.1455 35.9258 50.7331C35.9258 50.1802 36.1447 49.6499 36.5343 49.2589C36.9239 48.8679 37.4523 48.6482 38.0033 48.6482Z" fill="#EE283D"></path><path fill-rule="evenodd" clip-rule="evenodd" d="M38.0031 48.2461C38.5766 48.2459 39.1324 48.4454 39.5758 48.8104C40.0193 49.1754 40.3229 49.6835 40.4349 50.248C40.5469 50.8125 40.4604 51.3985 40.1901 51.9062C39.9198 52.4139 39.4825 52.8118 38.9527 53.0321C38.4228 53.2524 37.8332 53.2816 37.2844 53.1145C36.7356 52.9475 36.2614 52.5946 35.9427 52.1161C35.6241 51.6375 35.4806 51.0629 35.5368 50.49C35.593 49.9172 35.8454 49.3817 36.251 48.9747C36.4808 48.7434 36.7539 48.5599 37.0545 48.4349C37.3552 48.3098 37.6776 48.2457 38.0031 48.2461ZM39.1888 49.5423C38.9144 49.2669 38.5533 49.0954 38.167 49.0571C37.7808 49.0189 37.3933 49.1162 37.0705 49.3326C36.7478 49.5489 36.5097 49.8709 36.397 50.2436C36.2842 50.6163 36.3038 51.0168 36.4522 51.3767C36.6007 51.7366 36.8689 52.0337 37.2111 52.2174C37.5534 52.401 37.9485 52.46 38.3292 52.3841C38.7099 52.3081 39.0526 52.1021 39.2989 51.8011C39.5452 51.5 39.6798 51.1226 39.6799 50.7331C39.6804 50.5115 39.6373 50.2921 39.553 50.0873C39.4687 49.8826 39.3449 49.6966 39.1888 49.54V49.5423Z" fill="#231F20"></path><path d="M38 44.3236C38.1039 44.3236 38.1881 43.2201 38.1881 41.8589C38.1881 40.4977 38.1039 39.3943 38 39.3943C37.8962 39.3943 37.812 40.4977 37.812 41.8589C37.812 43.2201 37.8962 44.3236 38 44.3236Z" fill="#231F20"></path><path fill-rule="evenodd" clip-rule="evenodd" d="M42.7189 35.7312C42.7521 35.7312 42.7846 35.7411 42.8122 35.7596C42.8399 35.7782 42.8614 35.8045 42.8741 35.8353C42.8869 35.8661 42.8902 35.9001 42.8837 35.9328C42.8772 35.9655 42.8612 35.9956 42.8377 36.0191C42.8142 36.0427 42.7842 36.0588 42.7516 36.0653C42.719 36.0718 42.6852 36.0685 42.6545 36.0557C42.6238 36.0429 42.5976 36.0213 42.5791 35.9936C42.5606 35.9658 42.5508 35.9332 42.5508 35.8999C42.5508 35.8551 42.5685 35.8122 42.6 35.7806C42.6315 35.749 42.6743 35.7312 42.7189 35.7312Z" fill="#231F20"></path><path fill-rule="evenodd" clip-rule="evenodd" d="M43.776 36.9604C43.8092 36.9604 43.8417 36.9703 43.8694 36.9889C43.897 37.0074 43.9185 37.0338 43.9313 37.0646C43.944 37.0954 43.9473 37.1293 43.9408 37.162C43.9343 37.1947 43.9183 37.2248 43.8948 37.2484C43.8713 37.272 43.8414 37.2881 43.8088 37.2946C43.7762 37.3011 43.7424 37.2977 43.7117 37.285C43.681 37.2722 43.6547 37.2506 43.6362 37.2228C43.6178 37.1951 43.6079 37.1625 43.6079 37.1291C43.6079 37.107 43.6123 37.085 43.6207 37.0646C43.6292 37.0441 43.6415 37.0255 43.6571 37.0099C43.6727 36.9942 43.6913 36.9818 43.7117 36.9733C43.7321 36.9648 43.7539 36.9604 43.776 36.9604Z" fill="#231F20"></path><path fill-rule="evenodd" clip-rule="evenodd" d="M42.4552 37.3462C42.4884 37.3462 42.5209 37.3561 42.5486 37.3746C42.5762 37.3932 42.5977 37.4195 42.6105 37.4503C42.6232 37.4811 42.6265 37.5151 42.62 37.5478C42.6135 37.5805 42.5975 37.6105 42.574 37.6341C42.5505 37.6577 42.5206 37.6738 42.488 37.6803C42.4554 37.6868 42.4216 37.6835 42.3909 37.6707C42.3602 37.6579 42.3339 37.6363 42.3154 37.6086C42.297 37.5808 42.2871 37.5482 42.2871 37.5149C42.2871 37.4701 42.3048 37.4272 42.3363 37.3956C42.3679 37.364 42.4106 37.3462 42.4552 37.3462Z" fill="#231F20"></path><path fill-rule="evenodd" clip-rule="evenodd" d="M33.2809 35.7312C33.2476 35.7312 33.2151 35.7411 33.1875 35.7596C33.1598 35.7782 33.1383 35.8045 33.1256 35.8353C33.1129 35.8661 33.1095 35.9001 33.116 35.9328C33.1225 35.9655 33.1385 35.9956 33.162 36.0191C33.1855 36.0427 33.2155 36.0588 33.2481 36.0653C33.2807 36.0718 33.3145 36.0685 33.3452 36.0557C33.3759 36.0429 33.4021 36.0213 33.4206 35.9936C33.4391 35.9658 33.4489 35.9332 33.4489 35.8999C33.4487 35.8552 33.431 35.8124 33.3995 35.7808C33.368 35.7492 33.3254 35.7314 33.2809 35.7312Z" fill="#231F20"></path><path fill-rule="evenodd" clip-rule="evenodd" d="M32.2242 36.9604C32.191 36.9604 32.1585 36.9703 32.1309 36.9889C32.1032 37.0074 32.0817 37.0338 32.0689 37.0646C32.0562 37.0954 32.0529 37.1293 32.0594 37.162C32.0659 37.1947 32.0819 37.2248 32.1054 37.2484C32.1289 37.272 32.1588 37.2881 32.1914 37.2946C32.224 37.3011 32.2578 37.2977 32.2885 37.285C32.3193 37.2722 32.3455 37.2506 32.364 37.2228C32.3824 37.1951 32.3923 37.1625 32.3923 37.1291C32.3921 37.0845 32.3743 37.0417 32.3428 37.0101C32.3114 36.9785 32.2687 36.9607 32.2242 36.9604Z" fill="#231F20"></path><path fill-rule="evenodd" clip-rule="evenodd" d="M33.545 37.3462C33.5118 37.3462 33.4793 37.3561 33.4516 37.3746C33.424 37.3932 33.4025 37.4195 33.3897 37.4503C33.377 37.4811 33.3737 37.5151 33.3802 37.5478C33.3867 37.5805 33.4027 37.6105 33.4262 37.6341C33.4497 37.6577 33.4796 37.6738 33.5122 37.6803C33.5448 37.6868 33.5786 37.6835 33.6093 37.6707C33.6401 37.6579 33.6663 37.6363 33.6848 37.6086C33.7032 37.5808 33.7131 37.5482 33.7131 37.5149C33.7131 37.4701 33.6954 37.4272 33.6639 37.3956C33.6323 37.364 33.5896 37.3462 33.545 37.3462Z" fill="#231F20"></path><path opacity="0.26" fill-rule="evenodd" clip-rule="evenodd" d="M22.6221 20.82C22.6013 19.6582 22.8435 18.5068 23.3305 17.4526L23.3128 17.458C22.9698 17.5515 22.6142 17.5905 22.2591 17.5736C22.0657 18.5717 22.1867 19.6539 22.6221 20.82Z" fill="black"></path><path opacity="0.26" fill-rule="evenodd" clip-rule="evenodd" d="M28.1432 18.0189C27.6466 19.2866 27.2069 20.3202 26.8945 21.4339C28.3216 20.3183 29.918 19.4401 31.6228 18.833C31.7885 18.7736 31.9574 18.7174 32.1285 18.6627C31.6893 18.091 31.1924 17.5662 30.6458 17.0969C30.3869 18.2897 29.5527 18.597 28.1432 18.0189Z" fill="black"></path><path opacity="0.26" fill-rule="evenodd" clip-rule="evenodd" d="M28.8073 21.0728C28.0278 21.5564 27.2909 22.106 26.6047 22.7156C26.5219 23.2071 26.4666 23.7028 26.439 24.2005C26.4052 24.779 26.5533 25.5368 26.7068 26.3248C27.0498 28.0808 27.419 29.9693 26.155 30.9852C26.155 31.2255 26.1496 31.4551 26.1343 31.6784C28.0979 31.1711 28.4929 29.1727 27.3192 25.6832C26.8971 23.8629 27.3931 22.3261 28.8073 21.0728Z" fill="black"></path><path opacity="0.26" fill-rule="evenodd" clip-rule="evenodd" d="M41.0781 18.8452C50.4003 24.4762 44.8041 26.7013 48.4586 32.8629C50.7819 38.188 49.177 42.5764 43.6437 46.0279C44.4722 45.7387 45.26 45.3431 45.9875 44.851C48.0964 43.3877 49.4717 41.1903 50.2238 38.4491C50.7863 36.3989 50.5046 35.1157 50.2153 33.7956C50.0296 32.9484 49.84 32.0811 49.8485 30.9851C48.5845 29.9692 48.9536 28.0807 49.2959 26.3246C49.4494 25.5367 49.5983 24.7788 49.5645 24.2004C49.5371 23.7027 49.4815 23.2069 49.398 22.7155C47.8531 21.3433 46.0598 20.2819 44.1157 19.5892C43.129 19.2448 42.1119 18.9957 41.0781 18.8452Z" fill="black"></path><path opacity="0.26" fill-rule="evenodd" clip-rule="evenodd" d="M54.4318 21.5103C53.8209 23.0183 53.5489 24.4966 53.616 25.9451C53.7357 28.5545 53.7464 31.2957 50.481 30.4292C50.6818 30.5754 50.9079 30.683 51.1479 30.7465C51.542 30.8604 51.9503 30.9172 52.3604 30.9152C53.009 30.9196 53.6433 30.7241 54.1777 30.3552C54.6756 30.0027 55.0365 29.4881 55.1992 28.8988C55.2802 28.6052 55.3187 28.3015 55.3135 27.9969C55.3173 27.2136 55.219 26.4332 55.0212 25.6755C54.9345 25.3593 54.8755 25.0361 54.8446 24.7097C54.7679 23.6599 55.0964 22.6209 55.4225 21.5996C55.7886 20.452 56.147 19.3291 55.8155 18.3755C55.6983 18.0377 55.5141 17.8002 55.2629 17.6631C54.9974 17.5178 54.642 17.4698 54.1969 17.5191C53.6968 17.6153 53.1814 17.5947 52.6904 17.459L52.6728 17.4536C53.1598 18.5078 53.402 19.6592 53.3811 20.8209C53.5778 19.8915 53.6265 18.9367 53.5254 17.992C55.0045 18.0485 55.3066 19.2212 54.4318 21.5103Z" fill="black"></path><path opacity="0.26" fill-rule="evenodd" clip-rule="evenodd" d="M49.1048 21.4339C48.7932 20.3202 48.3534 19.2865 47.8561 18.0188C47.433 19.2126 46.1982 19.3115 44.1517 18.3153C44.0581 18.4278 43.9647 18.5436 43.8716 18.6627C44.0427 18.7174 44.2116 18.7736 44.3773 18.8329C46.0818 19.44 47.678 20.3182 49.1048 21.4339Z" fill="black"></path><path opacity="0.26" fill-rule="evenodd" clip-rule="evenodd" d="M46.4372 45.5095C42.1395 48.4886 33.8626 48.4886 29.5626 45.5095L29.4782 45.4502C29.4015 45.622 29.3416 45.7906 29.2871 45.9578C31.1668 47.5495 33.6444 48.4319 36.7198 48.6049C37.1043 48.3716 37.5448 48.2476 37.9941 48.2461C38.4435 48.2446 38.8847 48.3657 39.2708 48.5965C41.0036 48.4831 42.725 48.2351 44.4196 47.8548C44.7537 48.5223 44.5518 49.0845 43.8141 49.5415C44.9499 49.3392 45.9317 49.0653 46.7595 48.7197C47.1059 47.7308 47.0266 46.6409 46.5216 45.4502L46.4372 45.5095Z" fill="black"></path><path opacity="0.26" fill-rule="evenodd" clip-rule="evenodd" d="M39.5516 50.086C39.4668 49.8829 39.3435 49.6982 39.1886 49.5423C38.9786 49.3317 38.7167 49.1808 38.4297 49.1049C38.1427 49.029 37.8408 49.0308 37.5547 49.1102C37.8308 49.1769 38.0894 49.3022 38.3132 49.4775C38.5371 49.6529 38.7209 49.8743 38.8524 50.1268C38.8762 50.173 38.8993 50.2208 38.9192 50.2693L38.9422 50.324C38.9918 50.4517 39.0283 50.5841 39.0512 50.7191C39.0623 50.7852 39.07 50.8518 39.0742 50.9186C39.1071 51.4101 38.9578 51.8964 38.6552 52.2842C38.8558 52.1996 39.0382 52.077 39.1924 51.9229C39.4714 51.6438 39.6431 51.2747 39.6774 50.8809C39.6774 50.8316 39.6836 50.7823 39.6836 50.733C39.6836 50.7145 39.6836 50.6968 39.6836 50.6791C39.6791 50.545 39.659 50.4118 39.6237 50.2824C39.6039 50.2155 39.5798 50.1499 39.5516 50.086Z" fill="black"></path><path opacity="0.26" fill-rule="evenodd" clip-rule="evenodd" d="M43.3039 50.4375C42.2141 50.6 41.3001 50.7232 40.4789 50.8079C40.4643 51.2868 40.3122 51.7512 40.0411 52.1455C39.7699 52.5398 39.3911 52.8472 38.9502 53.0307C39.4332 52.9782 39.8881 52.7768 40.2524 52.4542C40.6168 52.1316 40.8726 51.7037 40.9847 51.2292C42.1686 51.1938 43.3464 51.0445 44.5019 50.7833C44.4152 50.6138 44.3277 50.4459 44.2379 50.2788C43.9376 50.3363 43.6262 50.3892 43.3039 50.4375Z" fill="black"></path><path opacity="0.26" fill-rule="evenodd" clip-rule="evenodd" d="M35.5763 51.2393C35.5469 51.0975 35.53 50.9534 35.5257 50.8087C34.703 50.724 33.7874 50.6 32.6946 50.4375C32.3738 50.3897 32.0627 50.3368 31.7613 50.2788C31.6713 50.4467 31.583 50.6154 31.4966 50.7848C32.8365 51.0816 34.2042 51.2339 35.5763 51.2393Z" fill="black"></path><path opacity="0.26" fill-rule="evenodd" clip-rule="evenodd" d="M31.4968 50.7848C31.5838 50.6153 31.6721 50.4466 31.7616 50.2787C30.8239 50.1068 29.9051 49.844 29.018 49.4939C28.886 49.6279 28.7594 49.7673 28.6343 49.9113C29.5643 50.2769 30.5214 50.5689 31.4968 50.7848Z" fill="black"></path><path opacity="0.26" fill-rule="evenodd" clip-rule="evenodd" d="M49.1742 53.2239C49.1036 53.0144 49.0291 52.8095 48.9509 52.6077C48.4607 51.3687 47.8046 50.3297 46.9824 49.4907C46.0953 49.8408 45.1764 50.1036 44.2388 50.2756C44.3286 50.4427 44.416 50.6106 44.5028 50.78C44.7161 50.7313 44.9287 50.6799 45.1405 50.626C46.2733 51.0465 47.0819 52.4498 47.5664 54.8359L49.1742 53.2239Z" fill="black"></path><path fill-rule="evenodd" clip-rule="evenodd" d="M8.10199 79.809H1.78516V69.1656H4.17651V77.8689H8.10275V79.809H8.10199ZM13.4956 79.9939C11.976 79.9939 10.7379 79.4981 9.78115 78.5066C8.82441 77.5151 8.34655 76.2219 8.34757 74.6271C8.34757 72.9445 8.83362 71.5838 9.80571 70.545C10.7778 69.5063 12.0648 68.9862 13.6667 68.9846C15.1817 68.9846 16.4062 69.4822 17.3405 70.4773C18.2747 71.4724 18.7413 72.7858 18.7403 74.4176C18.7403 76.0905 18.2555 77.4396 17.286 78.465C16.3164 79.4904 15.053 80.0021 13.4956 80V79.9939ZM13.5992 71.0488C12.7611 71.0488 12.0942 71.363 11.6038 71.9969C11.1134 72.6307 10.864 73.4603 10.864 74.5C10.864 75.5547 11.1106 76.3893 11.6038 77.004C12.097 77.6186 12.7425 77.9251 13.5401 77.9236C14.3659 77.9236 15.0174 77.6247 15.5024 77.0294C15.9875 76.434 16.2269 75.6053 16.2269 74.5462C16.2269 73.4408 15.9928 72.5815 15.5247 71.9684C15.0566 71.3553 14.4152 71.0488 13.6007 71.0488H13.5992ZM29.3318 69.1633L25.6788 79.809H22.972L19.3596 69.1656H21.9352L24.1492 76.5742C24.2563 76.9197 24.3281 77.2754 24.3634 77.6355H24.4063C24.4491 77.2651 24.5262 76.8995 24.6366 76.5434L26.833 69.1641L29.3318 69.1633ZM36.9686 79.809H30.6057V69.1656H36.7238V71.1173H32.9963V73.4864H36.4659V75.4304H32.9963V77.865H36.9686V79.809ZM42.8465 79.809V69.1656H46.6069C50.3741 69.1656 52.2579 70.8955 52.2584 74.3552C52.2584 76.0127 51.7442 77.3364 50.7158 78.3264C49.6875 79.3164 48.3168 79.8106 46.6039 79.809H42.8465ZM45.2378 71.115V77.8627H46.422C47.457 77.8627 48.2692 77.5511 48.8586 76.9277C49.448 76.3044 49.7427 75.4556 49.7427 74.3814C49.7427 73.3678 49.4506 72.5704 48.8663 71.9892C48.282 71.4079 47.4634 71.1165 46.4105 71.115H45.2378ZM58.4993 79.9962C56.9797 79.9962 55.7418 79.5004 54.7856 78.5089C53.8294 77.5174 53.3533 76.2243 53.3574 74.6294C53.3574 72.9468 53.8434 71.5861 54.8155 70.5474C55.7876 69.5086 57.0746 68.9885 58.6765 68.9869C60.1915 68.9869 61.4161 69.4845 62.3503 70.4796C63.2845 71.4747 63.7516 72.7863 63.7516 74.4145C63.7516 76.0874 63.2669 77.4366 62.2973 78.4619C61.3278 79.4873 60.0618 79.9988 58.4993 79.9962ZM58.6029 71.0511C57.7648 71.0511 57.0979 71.3653 56.6075 71.9992C56.1171 72.6331 55.8677 73.4626 55.8677 74.5023C55.8677 75.557 56.1143 76.3916 56.6075 77.0063C57.1007 77.6209 57.7461 77.9274 58.5438 77.9259C59.3695 77.9259 60.0211 77.627 60.5061 77.0317C60.9911 76.4363 61.2306 75.6076 61.2306 74.5485C61.2306 73.4431 60.9965 72.5838 60.5284 71.9707C60.0602 71.3576 59.4189 71.0511 58.6044 71.0511H58.6029ZM74.2127 79.0997C73.1776 79.6973 71.8899 79.9962 70.3494 79.9962C68.6446 79.9962 67.2998 79.5225 66.3149 78.5752C65.33 77.6278 64.8383 76.3226 64.8399 74.6595C64.8399 72.9871 65.3771 71.6238 66.4515 70.5697C67.5259 69.5156 68.9559 68.9877 70.7415 68.9862C71.8671 68.9862 72.8579 69.1423 73.7138 69.4544V71.705C72.8952 71.228 71.8945 70.9905 70.7116 70.9925C69.719 70.9925 68.9119 71.3152 68.2903 71.9607C67.6687 72.6061 67.3563 73.4687 67.3533 74.5485C67.3533 75.6407 67.6326 76.4879 68.1913 77.0902C68.75 77.6925 69.5059 77.9916 70.4591 77.9875C71.0321 77.9875 71.4857 77.9064 71.8198 77.7441V75.6646H69.7039V73.7491H74.2157L74.2127 79.0997Z" fill="#231F20"></path><defs><linearGradient id="paint0_linear_377_24060" x1="37.7258" y1="13.7751" x2="40.3917" y2="66.3126" gradientUnits="userSpaceOnUse"><stop stop-color="white"></stop><stop offset="1" stop-color="#E6E7E8"></stop></linearGradient></defs></svg>