<svg width="113" height="46" viewBox="0 0 113 46" fill="none" xmlns="http://www.w3.org/2000/svg">
<path fill-rule="evenodd" clip-rule="evenodd" d="M19.6682 35.1408C19.6358 36.6444 20.4373 38.0538 21.7671 38.7703C23.2034 39.548 24.964 39.3548 26.2057 38.2848C27.3224 37.3232 27.8135 35.8242 27.517 34.396C25.4876 34.8391 22.8698 35.0842 19.6682 35.1408Z" fill="#FF782C"/>
<path fill-rule="evenodd" clip-rule="evenodd" d="M11.5231 25.3978C14.0204 27.5425 15.5448 30.6252 15.7393 33.9389C15.7579 34.283 15.7671 34.6271 15.7579 34.9665L15.7486 35.287L15.5123 35.4991C15.3733 35.6217 15.2482 35.7584 15.1278 35.8998C14.4281 36.7152 14.0482 37.7475 14.0482 38.827C14.0482 39.2653 14.1131 39.699 14.2382 40.1185L14.3308 40.4249L14.1733 40.703C13.937 41.1225 13.6729 41.5326 13.3856 41.9191L13.1076 42.3009L12.649 42.2019C11.4304 41.9427 10.2211 41.5844 9.06743 41.0989C6.76468 40.1373 4.54534 38.6148 3.33142 36.3476L3.22949 36.1543L3.24803 35.9375C3.40092 33.8965 3.64649 31.8602 3.92912 29.8381L4.10518 28.589L5.0967 29.3478C5.47663 29.6354 5.91216 29.8286 6.38012 29.9182C6.98245 30.0313 7.55698 29.9795 8.10834 29.6967C9.15082 29.164 9.73925 27.9479 10.0728 26.8685C10.1794 26.5197 10.2674 26.1661 10.3416 25.8126L10.5964 24.5918L11.5231 25.3978Z" fill="#FF782C"/>
<path fill-rule="evenodd" clip-rule="evenodd" d="M21.9432 5.30371C24.1996 5.30371 26.0298 7.15617 26.0298 9.44228C26.0298 11.7284 24.1996 13.5808 21.9432 13.5808C19.6868 13.5808 17.8567 11.7284 17.8567 9.44228C17.8613 7.15617 19.6868 5.30371 21.9432 5.30371Z" fill="#FF782C"/>
<path d="M17.8753 0.179784C20.4097 0.179784 22.9626 0.60401 24.9271 1.45246C27.6839 -0.305719 29.4492 -0.465982 30.2322 0.962246C30.8531 2.09823 30.4129 4.42676 28.9164 7.94784C29.945 12.5389 30.8068 16.701 31.511 20.4248C32.2338 24.2523 32.7944 27.6696 33.1883 30.6675V30.6722C33.2485 31.12 33.2856 31.5537 33.3041 31.9779C33.457 35.3151 32.4191 38.016 30.3573 40.0241C28.3511 41.9802 25.3951 43.2387 21.6468 43.7478C20.8545 43.8562 20.0251 43.9316 19.1587 43.9694C15.4845 44.1438 11.7084 43.5734 8.59019 42.2677C5.68049 41.0469 3.31288 39.1709 2.08043 36.6444L1.95996 36.3993L1.97849 36.1306C2.21016 32.9018 2.73835 28.9093 3.55844 24.1533C4.36 19.5198 5.44882 14.118 6.82954 7.94784C5.33299 4.42676 4.89746 2.09352 5.51369 0.962246C6.29671 -0.465982 8.06662 -0.305719 10.8234 1.45246C12.7833 0.60401 15.3409 0.179784 17.8753 0.179784ZM17.9587 41.9991C18.334 41.9991 18.7046 41.9896 19.0799 41.9708C19.8815 41.9331 20.6552 41.8624 21.3919 41.7634C24.714 41.3109 27.2947 40.2362 28.9952 38.5817C30.3481 37.2619 31.1496 35.5414 31.3164 33.4533C30.6029 33.9293 29.6855 34.33 28.5689 34.6458C26.1133 35.3387 22.5781 35.6781 17.9633 35.6592C17.2035 35.7818 16.5455 36.173 16.0729 36.7245C15.5911 37.2901 15.2992 38.0302 15.2992 38.8315C15.2992 39.6328 15.5864 40.3729 16.0729 40.9338C16.5409 41.4853 17.1988 41.8718 17.9587 41.9991ZM24.5704 3.48875C22.8329 2.62144 20.3634 2.18779 17.8753 2.18779C15.3872 2.18779 12.9177 2.62144 11.1802 3.48875L10.6705 3.74328C8.91915 5.08667 8.52995 4.82742 9.50294 2.96554C8.11296 2.06523 7.36237 1.72114 7.24653 1.93325C6.92684 2.51774 7.4365 4.35605 8.77552 7.44819L8.90525 7.74986L8.83112 8.07039C7.4365 14.2829 6.33378 19.7602 5.51369 24.4974C5.33762 25.5061 4.82333 27.0663 5.49052 27.9807C5.74998 28.3343 6.13918 28.5935 6.59324 28.6784C6.97317 28.7491 7.2836 28.7019 7.54306 28.5699C8.13612 28.2683 8.57165 27.4858 8.87745 26.4912C9.23421 25.3458 9.39638 23.9742 9.43808 22.6732C9.48441 21.1884 9.35004 19.3124 9.07205 18.0161C8.78942 16.6869 11.5879 17.3751 11.4119 22.7345C11.3655 24.2004 11.1756 25.7653 10.7632 27.0852C10.3045 28.5605 9.56781 29.7766 8.43265 30.3564C7.7979 30.6816 7.0751 30.7948 6.24575 30.6439C5.64805 30.5355 5.11059 30.2857 4.6519 29.9369C4.33683 32.1947 4.1098 34.2122 3.97544 35.9892C5.01329 37.9312 6.95464 39.4066 9.34541 40.4106C10.8234 41.0281 12.4682 41.4664 14.1872 41.721C13.6358 40.8866 13.3161 39.8874 13.3161 38.8221C13.3161 37.5258 13.7887 36.3286 14.5764 35.4094C15.364 34.4903 16.4668 33.8445 17.7363 33.6607L17.7919 33.6512H17.8799C22.3557 33.6748 25.7426 33.359 28.0407 32.7085C29.9311 32.1712 30.9782 31.4594 31.1867 30.5685C31.1543 30.3423 31.1265 30.1113 31.0894 29.8803C30.6214 30.2574 30.0515 30.5308 29.4214 30.6439C28.5921 30.7995 27.8646 30.6816 27.2345 30.3564C26.0994 29.7766 25.358 28.5605 24.904 27.0852C24.4962 25.7653 24.3063 24.2004 24.2553 22.7345C24.2553 18.5064 26.7063 15.5273 26.4191 18.2707C26.2754 19.6518 26.2013 21.886 26.2291 22.6732C26.2708 23.9742 26.4376 25.3458 26.7897 26.4912C27.0955 27.4811 27.531 28.2636 28.1241 28.5699C28.3836 28.7019 28.6986 28.7444 29.0739 28.6784C29.5326 28.5935 29.9172 28.3343 30.1766 27.9807C31.0801 26.7458 29.806 22.0793 29.5697 20.8019C28.8469 16.965 27.9619 12.718 26.9194 8.07039L26.8453 7.74986C26.4376 5.6523 26.6785 5.07724 27.5681 6.02468C28.4577 3.78571 28.7728 2.42347 28.504 1.93325C28.3697 1.68814 27.3874 2.18779 25.5526 3.42276L25.08 3.74328L24.5704 3.48875Z" fill="black"/>
<path fill-rule="evenodd" clip-rule="evenodd" d="M17.6529 13.4533C18.2553 13.4533 18.7325 13.4156 18.7325 14.0284C18.7325 14.4196 18.5286 14.7637 18.2275 14.9617C18.2414 14.9853 18.2506 15.0088 18.2599 15.0371L18.2645 15.0418L18.2692 15.0513L18.2738 15.0607L18.2784 15.0701L18.2831 15.0795L18.2877 15.0937V15.0984V15.1078V15.1125V15.122C18.2923 15.1408 18.297 15.1597 18.297 15.1832C18.3526 15.565 18.5286 15.8997 18.7881 16.159C19.0475 16.4182 19.3904 16.5926 19.7657 16.6445C20.1456 16.6963 20.5209 16.6115 20.836 16.4276C21.151 16.2438 21.4105 15.961 21.5588 15.6027C21.7024 15.2634 22.087 15.1031 22.4252 15.2492C22.7588 15.3953 22.9163 15.7866 22.7727 16.126C22.5086 16.7576 22.0499 17.2619 21.4893 17.5872C20.9333 17.9077 20.2707 18.0538 19.5989 17.9643C18.9271 17.8747 18.3248 17.5636 17.8661 17.1064C17.7873 17.031 17.7178 16.9461 17.6483 16.8613C17.5788 16.9461 17.5047 17.0263 17.4305 17.1064C16.9718 17.5636 16.3695 17.8747 15.6977 17.9643C15.0259 18.0538 14.3633 17.9124 13.8073 17.5872C13.2467 17.2619 12.788 16.7576 12.5239 16.126C12.3803 15.7866 12.5378 15.3953 12.8714 15.2492C13.205 15.1031 13.5942 15.2634 13.7378 15.6027C13.8861 15.961 14.1456 16.2438 14.4606 16.4276C14.7757 16.6115 15.151 16.6916 15.5309 16.6445C15.9108 16.5926 16.2491 16.4182 16.5085 16.159C16.7633 15.9044 16.9394 15.565 16.9996 15.1832C17.0043 15.1644 17.0043 15.1455 17.0089 15.122V15.1125V15.1078L17.0135 15.0984V15.0937L17.0182 15.0795L17.0228 15.0701L17.0274 15.0607L17.0321 15.0513L17.0367 15.0418L17.0413 15.0371C17.0506 15.0135 17.0599 14.9853 17.0738 14.9617C16.768 14.7637 16.5688 14.4196 16.5688 14.0284C16.5502 13.4156 17.0506 13.4533 17.6529 13.4533Z" fill="black"/>
<path fill-rule="evenodd" clip-rule="evenodd" d="M21.1463 8.47095C21.6838 8.47095 22.1193 8.91403 22.1193 9.4561C22.1193 9.99816 21.6838 10.4412 21.1463 10.4412C20.6089 10.4412 20.1733 9.99816 20.1733 9.4561C20.178 8.90932 20.6089 8.47095 21.1463 8.47095Z" fill="black"/>
<path fill-rule="evenodd" clip-rule="evenodd" d="M14.1363 8.47095C14.6738 8.47095 15.1093 8.91403 15.1093 9.4561C15.1093 9.99816 14.6738 10.4412 14.1363 10.4412C13.5989 10.4412 13.1633 9.99816 13.1633 9.4561C13.1633 8.90932 13.5989 8.47095 14.1363 8.47095Z" fill="black"/>
<path d="M24.8021 11.992C23.1851 12.6001 24.5472 10.6911 28.9859 9.69651C30.5288 9.35242 32.0902 9.11202 33.6608 8.98947C33.9342 8.97062 34.1705 9.17802 34.189 9.4514C34.2076 9.72951 34.0037 9.9699 33.7303 9.98875C32.1967 10.1113 30.6817 10.3376 29.199 10.6722C27.7117 11.0069 26.2384 11.45 24.8021 11.992Z" fill="black"/>
<path d="M25.5479 13.8353C24.2275 14.005 24.8622 12.3929 30.0422 12.671C31.5851 12.7559 33.1187 12.9774 34.6199 13.3403C34.884 13.4063 35.0508 13.675 34.9859 13.9437C34.9211 14.2124 34.657 14.382 34.3882 14.3161C32.938 13.9672 31.4646 13.7504 29.9866 13.6703C28.5086 13.5902 27.0213 13.6467 25.5479 13.8353Z" fill="black"/>
<path d="M25.3764 15.2778C23.1663 14.5707 27.4984 14.7734 30.8298 16.1781C32.192 16.7531 33.1603 17.2764 33.7441 17.7477C33.9572 17.9221 33.9897 18.2379 33.8182 18.4501C33.6468 18.6669 33.3364 18.6999 33.1233 18.5255C32.6136 18.1154 31.724 17.6393 30.4498 17.0972C29.1479 16.5552 27.4567 15.9471 25.3764 15.2778Z" fill="black"/>
<path d="M10.0173 11.992C11.6343 12.6001 10.2722 10.6911 5.83349 9.69651C4.29061 9.35242 2.72919 9.11202 1.15851 8.98947C0.88515 8.97062 0.648853 9.17802 0.63032 9.4514C0.611787 9.72951 0.815651 9.9699 1.08901 9.98875C2.62263 10.1113 4.13771 10.3376 5.62036 10.6722C7.11227 11.0069 8.58102 11.45 10.0173 11.992Z" fill="black"/>
<path d="M9.45201 13.8116C10.7679 13.9813 10.1377 12.3692 4.95772 12.6473C3.41484 12.7322 1.88123 12.9537 0.380044 13.3167C0.115947 13.3827 -0.0508509 13.6513 0.014015 13.92C0.0788809 14.1887 0.342978 14.3584 0.611708 14.2924C2.06192 13.9436 3.53531 13.7268 5.01332 13.6466C6.48671 13.5665 7.97399 13.6231 9.45201 13.8116Z" fill="black"/>
<path d="M9.44285 15.2778C11.6529 14.5707 7.32081 14.7734 3.98948 16.1781C2.6273 16.7531 1.65894 17.2764 1.07515 17.7477C0.86202 17.9221 0.829587 18.2379 1.00102 18.4501C1.17245 18.6669 1.48288 18.6999 1.69601 18.5255C2.20567 18.1154 3.09526 17.6393 4.36941 17.0972C5.67136 16.5552 7.3625 15.9471 9.44285 15.2778Z" fill="black"/>
<path d="M43.8 10.56L43.96 14.6L53.48 14.28L44.52 34.48V38L57.96 37.68L57.88 34H49.24L57.64 14L57.4 10.4L43.8 10.56ZM59.7422 37.52H63.6622L63.7822 18.64H59.8622L59.7422 37.52ZM59.5422 12.64C59.5422 13.84 60.5022 14.8 61.7022 14.8C62.9022 14.8 63.8622 13.84 63.8622 12.64C63.8622 11.44 62.9022 10.48 61.7022 10.48C60.5022 10.48 59.5422 11.44 59.5422 12.64ZM78.8797 17.92H74.9597L75.1197 19.08C74.3997 18.84 73.6397 18.72 72.8397 18.72C68.1997 18.72 65.4797 23.04 65.4797 28.24C65.4797 34.4 69.9197 39.44 75.7997 36.24C76.1197 39.32 74.9597 41.28 73.7597 41.4C73.0397 41.48 71.9197 41.32 72.0397 39.28L68.2797 38.96C68.1197 43.6 69.6797 44.72 73.3997 44.96C78.1197 45.24 80.2797 40.88 79.7997 31.44C79.4797 25.16 79.0797 18.88 78.8797 17.92ZM73.1197 22.4C75.1197 22.4 75.6397 24 75.6397 26C76.0797 32.6 75.5597 34 73.1197 34C68.2397 34 68.0397 22.4 73.1197 22.4ZM94.8953 17.92H90.9753L91.1353 19.08C90.4153 18.84 89.6553 18.72 88.8553 18.72C84.2153 18.72 81.4953 23.04 81.4953 28.24C81.4953 34.4 85.9353 39.44 91.8153 36.24C92.1353 39.32 90.9753 41.28 89.7753 41.4C89.0553 41.48 87.9353 41.32 88.0553 39.28L84.2953 38.96C84.1353 43.6 85.6953 44.72 89.4153 44.96C94.1353 45.24 96.2953 40.88 95.8153 31.44C95.4953 25.16 95.0953 18.88 94.8953 17.92ZM89.1353 22.4C91.1353 22.4 91.6553 24 91.6553 26C92.0953 32.6 91.5753 34 89.1353 34C84.2553 34 84.0553 22.4 89.1353 22.4ZM103.791 31.2C100.071 30.84 101.751 22.12 102.631 18.96L98.6309 18.72C96.2309 26.08 97.3109 38.32 105.911 33.44C106.111 38 104.471 40.12 103.471 40.2C101.911 40.28 101.431 39.32 101.591 37.76H97.7509C97.3109 41.96 99.5509 43.72 103.191 43.76C112.991 43.84 110.271 20.24 110.031 18.64L105.871 18.72C106.511 24.76 107.071 31.56 103.791 31.2Z" fill="black"/>
<path d="M75.482 5.669L74.26 5.708L74.312 14.054L75.547 14.145L75.508 11.532C75.768 11.662 76.067 11.74 76.392 11.766C77.887 11.857 78.797 10.505 78.81 8.828C78.836 6.8 77.25 4.85 75.495 6.176L75.482 5.669ZM76.314 10.557C75.82 10.531 75.586 10.206 75.521 9.751L75.547 7.515C75.625 7.034 75.82 6.761 76.353 6.8C77.952 6.904 77.952 10.661 76.314 10.557ZM82.1262 5.734C80.6182 5.734 79.7342 7.138 79.7342 8.828C79.7342 10.518 80.6182 11.87 82.1262 11.87C83.3222 11.87 84.1672 11.337 84.3102 9.868H83.0102C82.9582 10.388 82.7762 10.7 82.2172 10.7C81.5152 10.7 81.1252 9.985 81.0212 9.166H84.3362V8.1C84.3362 6.67 83.4132 5.734 82.1262 5.734ZM82.2172 6.93C82.8672 6.93 83.0362 7.45 83.0362 8.1H81.0732C81.2292 7.45 81.6062 6.93 82.2172 6.93ZM85.5004 6.514H86.0334C85.8514 9.075 85.3704 12.065 87.4244 12C88.8674 11.948 89.0494 10.466 88.8414 9.53L87.7494 9.582C87.8534 10.414 87.7494 10.921 87.3984 10.843C86.7484 10.7 87.1124 8.646 87.3334 6.514L88.6724 6.54V5.5H87.4114C87.4374 5.11 87.4764 4.707 87.5154 4.33L86.2024 4.538C86.1634 4.837 86.1374 5.162 86.1114 5.5H85.5784L85.5004 6.514ZM92.842 7.853L93.947 8.1C94.337 6.28 93.31 5.5 92.088 5.5C90.905 5.5 90.242 6.332 90.125 7.216C89.995 8.295 90.801 8.763 92.374 9.595C92.946 9.985 92.673 10.999 91.984 10.934C91.139 10.856 91.282 9.907 91.373 9.4H90.138C89.93 11.233 90.554 12.026 91.932 12.026C93.18 12.026 93.791 11.233 93.882 10.232C94.077 8.243 91.139 8.334 91.425 7.216C91.698 6.137 93.18 6.67 92.842 7.853ZM96.5437 7.658C96.6347 7.229 96.8557 6.93 97.3367 6.93C98.4157 6.93 98.0647 7.554 98.0777 11.87H99.4557C99.5987 7.021 99.5857 5.734 97.4277 5.734C97.1157 5.734 96.8167 5.799 96.5437 5.903L96.6217 3.29H95.3607L95.2047 11.87L96.4657 11.844L96.5437 7.658ZM103.175 11.87C106.412 11.87 106.581 5.734 103.175 5.734C99.9119 5.734 99.7949 11.87 103.175 11.87ZM103.266 6.93C104.735 6.93 104.8 10.7 103.266 10.7C101.55 10.7 101.472 6.93 103.266 6.93ZM107.959 5.669L106.737 5.708L106.789 14.054L108.024 14.145L107.985 11.532C108.245 11.662 108.544 11.74 108.869 11.766C110.364 11.857 111.274 10.505 111.287 8.828C111.313 6.8 109.727 4.85 107.972 6.176L107.959 5.669ZM108.791 10.557C108.297 10.531 108.063 10.206 107.998 9.751L108.024 7.515C108.102 7.034 108.297 6.761 108.83 6.8C110.429 6.904 110.429 10.661 108.791 10.557Z" fill="#FF782C"/>
</svg>
